SplineFontDB: 3.0
FontName: Tienne-Bold
FullName: Tienne Bold
FamilyName: Tienne
Weight: Bold
Copyright: Copyright (c) 2011 by vernon adams. All rights reserved. with\nReserved Font Names "Tienne" and "Tienne Regular". This\nFont Software is licensed under the SIL Open Font License, Version\n1.1. This license is available with a FAQ at:\nhttp://scripts.sil.org/OFL
Version: 1.000
ItalicAngle: 0
UnderlinePosition: -103
UnderlineWidth: 102
Ascent: 1638
Descent: 410
sfntRevision: 0x00010000
LayerCount: 2
Layer: 0 1 "Back"  1
Layer: 1 1 "Fore"  0
XUID: [1021 14 500265001 13549228]
FSType: 0
OS2Version: 3
OS2_WeightWidthSlopeOnly: 0
OS2_UseTypoMetrics: 1
CreationTime: 1311268500
ModificationTime: 1311322782
PfmFamily: 17
TTFWeight: 700
TTFWidth: 5
LineGap: 112
VLineGap: 0
Panose: 2 0 8 5 7 0 0 2 0 4
OS2TypoAscent: -142
OS2TypoAOffset: 1
OS2TypoDescent: -62
OS2TypoDOffset: 1
OS2TypoLinegap: 112
OS2WinAscent: -2
OS2WinAOffset: 1
OS2WinDescent: -296
OS2WinDOffset: 1
HheadAscent: -504
HheadAOffset: 1
HheadDescent: 322
HheadDOffset: 1
OS2SubXSize: 1434
OS2SubYSize: 1331
OS2SubXOff: 0
OS2SubYOff: 287
OS2SupXSize: 1434
OS2SupYSize: 1331
OS2SupXOff: 0
OS2SupYOff: 977
OS2StrikeYSize: 102
OS2StrikeYPos: 512
OS2Vendor: 'newt'
OS2CodePages: 20000001.00000000
OS2UnicodeRanges: 800000ef.4000204a.00000000.00000000
Lookup: 258 0 0 "'kern' Horizontal Kerning lookup 0"  {"'kern' Horizontal Kerning lookup 0-1" [507,0,2] } ['kern' ('DFLT' <'dflt' > 'grek' <'dflt' > 'latn' <'dflt' > ) ]
MarkAttachClasses: 1
DEI: 91125
KernClass2: 4 3 "'kern' Horizontal Kerning lookup 0-1" 
 1 V
 1 W
 1 Y
 197 agrave aacute acircumflex atilde adieresis aring ae ccedilla egrave eacute ecircumflex edieresis ograve oacute ocircumflex otilde odieresis oslash oe uni0201 uni0203 uni0205 uni0207 uni020D uni020F
 1 d
 0 {} 0 {} 0 {} 0 {} -113 {} -137 {} 0 {} -77 {} -102 {} 0 {} -198 {} -221 {}
ShortTable: maxp 16
  1
  0
  302
  141
  5
  140
  4
  1
  0
  0
  0
  0
  0
  0
  2
  1
EndShort

StartChar: exclam
Encoding: 33 33 4
Width: 786
Flags: W
LayerCount: 2
Fore
SplineSet
399 -22 m 256,0,1
 359 -22 359 -22 327.5 -9.5 c 128,-1,2
 296 3 296 3 274.5 25 c 128,-1,3
 253 47 253 47 241.5 76.5 c 128,-1,4
 230 106 230 106 230 141 c 0,5,6
 230 175 230 175 242 204.5 c 128,-1,7
 254 234 254 234 276 256 c 128,-1,8
 298 278 298 278 329 291 c 128,-1,9
 360 304 360 304 399 304 c 256,10,11
 438 304 438 304 469.5 291 c 128,-1,12
 501 278 501 278 522.5 255.5 c 128,-1,13
 544 233 544 233 556 203.5 c 128,-1,14
 568 174 568 174 568 141 c 0,15,16
 568 106 568 106 556.5 76.5 c 128,-1,17
 545 47 545 47 523.5 25 c 128,-1,18
 502 3 502 3 470.5 -9.5 c 128,-1,19
 439 -22 439 -22 399 -22 c 256,0,1
491 435 m 1,20,21
 474 427 474 427 453.5 422.5 c 128,-1,22
 433 418 433 418 413 418 c 0,23,24
 378 418 378 418 356 421.5 c 128,-1,25
 334 425 334 425 321 435 c 128,-1,26
 308 445 308 445 302 462.5 c 128,-1,27
 296 480 296 480 294 507 c 0,28,29
 280 659 280 659 267 805.5 c 128,-1,30
 254 952 254 952 242 1107 c 0,31,32
 238 1155 238 1155 233.5 1198 c 128,-1,33
 229 1241 229 1241 225 1275.5 c 128,-1,34
 221 1310 221 1310 218.5 1334 c 128,-1,35
 216 1358 216 1358 216 1370 c 0,36,37
 216 1372 216 1372 216.5 1374.5 c 128,-1,38
 217 1377 217 1377 217 1379 c 1,39,40
 279 1435 279 1435 398 1435 c 0,41,42
 435 1435 435 1435 465 1431 c 128,-1,43
 495 1427 495 1427 516 1415.5 c 128,-1,44
 537 1404 537 1404 548 1383 c 128,-1,45
 559 1362 559 1362 559 1328 c 0,46,47
 559 1316 559 1316 559 1301 c 128,-1,48
 559 1286 559 1286 557 1269 c 2,49,-1
 518 817 l 2,50,51
 506 682 506 682 498 590 c 128,-1,52
 490 498 490 498 491 435 c 1,20,21
EndSplineSet
EndChar

StartChar: quotedbl
Encoding: 34 34 5
Width: 922
Flags: W
LayerCount: 2
Fore
SplineSet
794 1337 m 1,0,1
 778 1188 778 1188 768.5 1089 c 128,-1,2
 759 990 759 990 754 939 c 1,3,4
 734 930 734 930 712.5 924.5 c 128,-1,5
 691 919 691 919 668 919 c 0,6,7
 637 919 637 919 613 935 c 1,8,9
 585 940 585 940 577 964 c 128,-1,10
 569 988 569 988 566 1017 c 0,11,12
 556 1116 556 1116 546 1211.5 c 128,-1,13
 536 1307 536 1307 530 1412 c 1,14,15
 556 1432 556 1432 591.5 1443 c 128,-1,16
 627 1454 627 1454 675 1454 c 0,17,18
 717 1454 717 1454 739.5 1441.5 c 128,-1,19
 762 1429 762 1429 773 1403 c 1,20,21
 794 1373 794 1373 794 1337 c 1,0,1
390 1337 m 1,22,23
 374 1188 374 1188 364.5 1089 c 128,-1,24
 355 990 355 990 350 939 c 1,25,26
 330 928 330 928 308 922 c 128,-1,27
 286 916 286 916 260 916 c 0,28,29
 209 916 209 916 187.5 945 c 128,-1,30
 166 974 166 974 162 1017 c 0,31,32
 151 1116 151 1116 141.5 1211.5 c 128,-1,33
 132 1307 132 1307 127 1412 c 1,34,35
 152 1432 152 1432 187.5 1443 c 128,-1,36
 223 1454 223 1454 271 1454 c 0,37,38
 313 1454 313 1454 336 1441.5 c 128,-1,39
 359 1429 359 1429 370 1403 c 1,40,41
 380 1387 380 1387 385 1372 c 128,-1,42
 390 1357 390 1357 390 1337 c 1,22,23
EndSplineSet
EndChar

StartChar: numbersign
Encoding: 35 35 6
Width: 1216
Flags: W
LayerCount: 2
Fore
SplineSet
508 841 m 1,0,-1
 454 585 l 1,1,-1
 709 585 l 1,2,-1
 763 841 l 1,3,-1
 508 841 l 1,0,-1
1023 442 m 1,4,-1
 834 442 l 1,5,-1
 758 73 l 1,6,-1
 701 73 l 2,7,8
 662 73 662 73 641.5 82 c 128,-1,9
 621 91 621 91 616 118 c 1,10,11
 618 140 618 140 625.5 175.5 c 128,-1,12
 633 211 633 211 641 248 c 2,13,-1
 680 442 l 1,14,-1
 425 442 l 1,15,-1
 349 73 l 1,16,-1
 282 73 l 2,17,18
 249 73 249 73 228 78.5 c 128,-1,19
 207 84 207 84 207 107 c 0,20,21
 207 121 207 121 213 151.5 c 128,-1,22
 219 182 219 182 227 227 c 1,23,-1
 273 442 l 1,24,-1
 70 442 l 1,25,-1
 70 498 l 2,26,27
 70 522 70 522 72.5 539 c 128,-1,28
 75 556 75 556 83 566 c 128,-1,29
 91 576 91 576 106.5 580.5 c 128,-1,30
 122 585 122 585 148 585 c 2,31,-1
 300 585 l 1,32,-1
 353 841 l 1,33,-1
 144 841 l 1,34,-1
 144 917 l 2,35,36
 144 939 144 939 148 952.5 c 128,-1,37
 152 966 152 966 161.5 973.5 c 128,-1,38
 171 981 171 981 186 983 c 128,-1,39
 201 985 201 985 222 985 c 2,40,-1
 383 985 l 1,41,-1
 459 1348 l 1,42,-1
 517 1348 l 2,43,44
 556 1348 556 1348 577.5 1340 c 128,-1,45
 599 1332 599 1332 604 1306 c 1,46,47
 601 1292 601 1292 598.5 1275 c 128,-1,48
 596 1258 596 1258 592 1238 c 2,49,-1
 539 985 l 1,50,-1
 791 985 l 1,51,-1
 868 1348 l 1,52,-1
 924 1348 l 2,53,54
 964 1348 964 1348 986.5 1341.5 c 128,-1,55
 1009 1335 1009 1335 1009 1307 c 1,56,57
 1007 1295 1007 1295 1005.5 1277.5 c 128,-1,58
 1004 1260 1004 1260 999 1235 c 2,59,-1
 945 985 l 1,60,-1
 1145 985 l 1,61,-1
 1145 930 l 2,62,63
 1145 907 1145 907 1143.5 890 c 128,-1,64
 1142 873 1142 873 1134.5 862 c 128,-1,65
 1127 851 1127 851 1111 846 c 128,-1,66
 1095 841 1095 841 1067 841 c 2,67,-1
 917 841 l 1,68,-1
 862 585 l 1,69,-1
 1073 585 l 1,70,-1
 1073 510 l 2,71,72
 1073 476 1073 476 1061.5 461.5 c 128,-1,73
 1050 447 1050 447 1023 442 c 1,4,-1
EndSplineSet
EndChar

StartChar: dollar
Encoding: 36 36 7
Width: 1338
Flags: W
LayerCount: 2
Fore
SplineSet
893 333 m 0,0,1
 893 408 893 408 852.5 460 c 128,-1,2
 812 512 812 512 737 556 c 1,3,-1
 737 125 l 1,4,5
 772 133 772 133 801 151.5 c 128,-1,6
 830 170 830 170 850.5 197.5 c 128,-1,7
 871 225 871 225 882 259.5 c 128,-1,8
 893 294 893 294 893 333 c 0,0,1
460 1120 m 1,9,10
 457 1112 457 1112 456.5 1104.5 c 128,-1,11
 456 1097 456 1097 456 1089 c 0,12,13
 456 1010 456 1010 497.5 959 c 128,-1,14
 539 908 539 908 615 871 c 1,15,-1
 615 1292 l 1,16,17
 544 1280 544 1280 506.5 1233 c 128,-1,18
 469 1186 469 1186 460 1120 c 1,9,10
737 1506 m 1,19,-1
 737 1441 l 1,20,21
 808 1441 808 1441 874 1434 c 128,-1,22
 940 1427 940 1427 995 1412.5 c 128,-1,23
 1050 1398 1050 1398 1090 1376.5 c 128,-1,24
 1130 1355 1130 1355 1150 1327 c 1,25,26
 1150 1303 1150 1303 1147 1279 c 1,27,28
 1148 1279 1148 1279 1148 1274 c 256,29,30
 1148 1269 1148 1269 1147 1261.5 c 128,-1,31
 1146 1254 1146 1254 1144 1248 c 2,32,-1
 1093 1069 l 1,33,-1
 900 1116 l 1,34,35
 871 1174 871 1174 832.5 1217.5 c 128,-1,36
 794 1261 794 1261 737 1277 c 1,37,-1
 737 818 l 1,38,39
 825 781 825 781 910.5 741 c 128,-1,40
 996 701 996 701 1063 650 c 128,-1,41
 1130 599 1130 599 1171.5 532.5 c 128,-1,42
 1213 466 1213 466 1213 377 c 0,43,44
 1213 290 1213 290 1178.5 219 c 128,-1,45
 1144 148 1144 148 1081.5 95.5 c 128,-1,46
 1019 43 1019 43 931 11.5 c 128,-1,47
 843 -20 843 -20 737 -27 c 1,48,-1
 737 -173 l 1,49,-1
 702 -213 l 1,50,51
 673 -213 673 -213 655.5 -209 c 128,-1,52
 638 -205 638 -205 629 -195 c 128,-1,53
 620 -185 620 -185 617.5 -168 c 128,-1,54
 615 -151 615 -151 615 -124 c 2,55,-1
 615 -28 l 1,56,57
 363 -19 363 -19 174 100 c 0,58,59
 153 113 153 113 139.5 124 c 128,-1,60
 126 135 126 135 118 152 c 1,61,62
 118 196 118 196 126 242 c 1,63,-1
 199 419 l 1,64,-1
 397 340 l 1,65,66
 437 239 437 239 489.5 188.5 c 128,-1,67
 542 138 542 138 615 125 c 1,68,-1
 615 616 l 1,69,70
 556 644 556 644 498.5 671 c 128,-1,71
 441 698 441 698 389 726 c 128,-1,72
 337 754 337 754 292.5 785.5 c 128,-1,73
 248 817 248 817 215.5 856 c 128,-1,74
 183 895 183 895 164.5 943 c 128,-1,75
 146 991 146 991 146 1051 c 0,76,77
 146 1133 146 1133 179 1199 c 128,-1,78
 212 1265 212 1265 273 1314 c 128,-1,79
 334 1363 334 1363 420.5 1393 c 128,-1,80
 507 1423 507 1423 615 1434 c 1,81,-1
 615 1536 l 1,82,-1
 650 1566 l 1,83,84
 693 1566 693 1566 713 1553.5 c 128,-1,85
 733 1541 733 1541 737 1506 c 1,19,-1
EndSplineSet
EndChar

StartChar: percent
Encoding: 37 37 8
Width: 1663
Flags: W
LayerCount: 2
Fore
SplineSet
1264 -25 m 0,0,1
 1190 -25 1190 -25 1131 1 c 128,-1,2
 1072 27 1072 27 1030.5 76 c 128,-1,3
 989 125 989 125 966.5 195 c 128,-1,4
 944 265 944 265 944 353 c 0,5,6
 944 443 944 443 965.5 513.5 c 128,-1,7
 987 584 987 584 1028.5 632.5 c 128,-1,8
 1070 681 1070 681 1129.5 706.5 c 128,-1,9
 1189 732 1189 732 1264 732 c 256,10,11
 1339 732 1339 732 1398 706 c 128,-1,12
 1457 680 1457 680 1498 631.5 c 128,-1,13
 1539 583 1539 583 1560.5 512.5 c 128,-1,14
 1582 442 1582 442 1582 353 c 256,15,16
 1582 264 1582 264 1559.5 194 c 128,-1,17
 1537 124 1537 124 1495 75.5 c 128,-1,18
 1453 27 1453 27 1394.5 1 c 128,-1,19
 1336 -25 1336 -25 1264 -25 c 0,0,1
1264 630 m 0,20,21
 1185 630 1185 630 1153.5 558.5 c 128,-1,22
 1122 487 1122 487 1122 353 c 0,23,24
 1122 288 1122 288 1129 237 c 128,-1,25
 1136 186 1136 186 1153 151 c 128,-1,26
 1170 116 1170 116 1198 97.5 c 128,-1,27
 1226 79 1226 79 1268 79 c 0,28,29
 1308 79 1308 79 1335 99.5 c 128,-1,30
 1362 120 1362 120 1378 156.5 c 128,-1,31
 1394 193 1394 193 1400.5 243.5 c 128,-1,32
 1407 294 1407 294 1407 353 c 0,33,34
 1407 420 1407 420 1399.5 471.5 c 128,-1,35
 1392 523 1392 523 1375.5 558 c 128,-1,36
 1359 593 1359 593 1331.5 611.5 c 128,-1,37
 1304 630 1304 630 1264 630 c 0,20,21
715 1057 m 0,38,39
 715 970 715 970 693.5 900.5 c 128,-1,40
 672 831 672 831 631.5 782 c 128,-1,41
 591 733 591 733 533.5 706.5 c 128,-1,42
 476 680 476 680 404 680 c 0,43,44
 329 680 329 680 269 705.5 c 128,-1,45
 209 731 209 731 167.5 780 c 128,-1,46
 126 829 126 829 103.5 899.5 c 128,-1,47
 81 970 81 970 81 1059 c 0,48,49
 81 1152 81 1152 103.5 1222 c 128,-1,50
 126 1292 126 1292 168 1339.5 c 128,-1,51
 210 1387 210 1387 268.5 1411 c 128,-1,52
 327 1435 327 1435 399 1435 c 0,53,54
 470 1435 470 1435 528.5 1410.5 c 128,-1,55
 587 1386 587 1386 628.5 1338 c 128,-1,56
 670 1290 670 1290 692.5 1219.5 c 128,-1,57
 715 1149 715 1149 715 1057 c 0,38,39
399 1333 m 0,58,59
 318 1333 318 1333 286 1261 c 128,-1,60
 254 1189 254 1189 254 1057 c 0,61,62
 254 991 254 991 261.5 940 c 128,-1,63
 269 889 269 889 286 854 c 128,-1,64
 303 819 303 819 330.5 800.5 c 128,-1,65
 358 782 358 782 399 782 c 0,66,67
 477 782 477 782 508.5 854.5 c 128,-1,68
 540 927 540 927 540 1057 c 0,69,70
 540 1203 540 1203 505.5 1268 c 128,-1,71
 471 1333 471 1333 399 1333 c 0,58,59
1332 1373 m 1,72,-1
 472 -34 l 1,73,-1
 405 -7 l 2,74,75
 380 3 380 3 363 13 c 128,-1,76
 346 23 346 23 332 32 c 1,77,78
 543 390 543 390 761.5 743 c 128,-1,79
 980 1096 980 1096 1196 1450 c 1,80,81
 1223 1439 1223 1439 1249 1429 c 128,-1,82
 1275 1419 1275 1419 1285 1403 c 1,83,84
 1297 1395 1297 1395 1309 1388 c 128,-1,85
 1321 1381 1321 1381 1332 1373 c 1,72,-1
EndSplineSet
EndChar

StartChar: ampersand
Encoding: 38 38 9
Width: 1515
Flags: W
LayerCount: 2
Fore
SplineSet
674 812 m 2,0,-1
 1439 812 l 1,1,-1
 1439 508 l 1,2,3
 1415 508 1415 508 1391.5 508.5 c 128,-1,4
 1368 509 1368 509 1345 509 c 1,5,6
 1337 559 1337 559 1323 590 c 128,-1,7
 1309 621 1309 621 1287.5 638.5 c 128,-1,8
 1266 656 1266 656 1234.5 662 c 128,-1,9
 1203 668 1203 668 1160 668 c 1,10,11
 1164 609 1164 609 1168.5 544.5 c 128,-1,12
 1173 480 1173 480 1173 417 c 0,13,14
 1173 198 1173 198 1043 84 c 128,-1,15
 913 -30 913 -30 648 -30 c 0,16,17
 511 -30 511 -30 406 -6 c 128,-1,18
 301 18 301 18 229.5 68 c 128,-1,19
 158 118 158 118 121.5 194.5 c 128,-1,20
 85 271 85 271 85 375 c 0,21,22
 85 438 85 438 103.5 494.5 c 128,-1,23
 122 551 122 551 160 599 c 128,-1,24
 198 647 198 647 254.5 683.5 c 128,-1,25
 311 720 311 720 388 742 c 1,26,-1
 388 745 l 1,27,28
 261 780 261 780 192.5 858 c 128,-1,29
 124 936 124 936 124 1056 c 0,30,31
 124 1139 124 1139 157.5 1205.5 c 128,-1,32
 191 1272 191 1272 258 1318.5 c 128,-1,33
 325 1365 325 1365 425.5 1390 c 128,-1,34
 526 1415 526 1415 660 1415 c 0,35,36
 777 1415 777 1415 888.5 1392.5 c 128,-1,37
 1000 1370 1000 1370 1102 1339 c 1,38,-1
 1090 1023 l 1,39,-1
 905 1023 l 1,40,41
 873 1152 873 1152 817.5 1216 c 128,-1,42
 762 1280 762 1280 661 1280 c 0,43,44
 603 1280 603 1280 558.5 1262 c 128,-1,45
 514 1244 514 1244 483.5 1214 c 128,-1,46
 453 1184 453 1184 437.5 1143.5 c 128,-1,47
 422 1103 422 1103 422 1058 c 0,48,49
 422 1004 422 1004 437 959 c 128,-1,50
 452 914 452 914 482.5 881 c 128,-1,51
 513 848 513 848 560.5 830 c 128,-1,52
 608 812 608 812 674 812 c 2,0,-1
900 668 m 1,53,-1
 646 668 l 2,54,55
 590 668 590 668 544.5 648.5 c 128,-1,56
 499 629 499 629 467 591 c 128,-1,57
 435 553 435 553 417 498 c 128,-1,58
 399 443 399 443 399 371 c 0,59,60
 399 313 399 313 414 266 c 128,-1,61
 429 219 429 219 461 186 c 128,-1,62
 493 153 493 153 544 135 c 128,-1,63
 595 117 595 117 667 117 c 0,64,65
 729 117 729 117 774.5 138.5 c 128,-1,66
 820 160 820 160 849.5 200 c 128,-1,67
 879 240 879 240 893.5 296.5 c 128,-1,68
 908 353 908 353 908 423 c 1,69,70
 909 465 909 465 907.5 501 c 128,-1,71
 906 537 906 537 904 572 c 2,72,-1
 900 668 l 1,53,-1
EndSplineSet
EndChar

StartChar: quotesingle
Encoding: 39 39 10
Width: 519
Flags: W
LayerCount: 2
Fore
SplineSet
390 1337 m 1,0,1
 375 1188 375 1188 365 1089 c 128,-1,2
 355 990 355 990 350 939 c 1,3,4
 330 929 330 929 308 922.5 c 128,-1,5
 286 916 286 916 260 916 c 256,6,7
 234 916 234 916 216.5 924 c 128,-1,8
 199 932 199 932 188 945.5 c 128,-1,9
 177 959 177 959 171 977.5 c 128,-1,10
 165 996 165 996 162 1017 c 0,11,12
 151 1115 151 1115 141.5 1209 c 128,-1,13
 132 1303 132 1303 127 1404 c 1,14,15
 144 1428 144 1428 183 1441 c 128,-1,16
 222 1454 222 1454 271 1454 c 0,17,18
 350 1454 350 1454 370 1403 c 1,19,20
 379 1389 379 1389 384.5 1375 c 128,-1,21
 390 1361 390 1361 390 1344 c 2,22,-1
 390 1337 l 1,0,1
EndSplineSet
EndChar

StartChar: parenleft
Encoding: 40 40 11
Width: 675
Flags: W
LayerCount: 2
Fore
SplineSet
117 656 m 0,0,1
 117 770 117 770 136 882.5 c 128,-1,2
 155 995 155 995 190.5 1100 c 128,-1,3
 226 1205 226 1205 276 1300 c 128,-1,4
 326 1395 326 1395 388 1475 c 1,5,6
 411 1489 411 1489 435.5 1500 c 128,-1,7
 460 1511 460 1511 500 1511 c 0,8,9
 535 1511 535 1511 549 1504 c 1,10,11
 549 1501 549 1501 548 1500 c 1,12,-1
 609 1474 l 1,13,14
 505 1303 505 1303 455 1095.5 c 128,-1,15
 405 888 405 888 405 656 c 0,16,17
 405 423 405 423 455 214 c 128,-1,18
 505 5 505 5 609 -166 c 1,19,20
 586 -178 586 -178 566 -185 c 128,-1,21
 546 -192 546 -192 528 -192 c 0,22,23
 508 -192 508 -192 490 -183 c 1,24,25
 494 -182 494 -182 497 -181.5 c 128,-1,26
 500 -181 500 -181 503 -181 c 1,27,28
 496 -186 496 -186 462 -186 c 1,29,30
 405 -158 405 -158 357.5 -107 c 128,-1,31
 310 -56 310 -56 271.5 11 c 128,-1,32
 233 78 233 78 204 157 c 128,-1,33
 175 236 175 236 155.5 320 c 128,-1,34
 136 404 136 404 126.5 490 c 128,-1,35
 117 576 117 576 117 656 c 0,0,1
EndSplineSet
EndChar

StartChar: parenright
Encoding: 41 41 12
Width: 675
Flags: W
LayerCount: 2
Fore
SplineSet
558 662 m 0,0,1
 558 531 558 531 534.5 403 c 128,-1,2
 511 275 511 275 470 163.5 c 128,-1,3
 429 52 429 52 374 -36.5 c 128,-1,4
 319 -125 319 -125 257 -178 c 1,5,6
 234 -193 234 -193 208.5 -197 c 128,-1,7
 183 -201 183 -201 162 -201 c 0,8,9
 138 -201 138 -201 130 -197 c 1,10,11
 132 -198 132 -198 134 -198 c 256,12,13
 136 -198 136 -198 137 -197 c 1,14,-1
 66 -166 l 1,15,16
 115 -84 115 -84 153 11.5 c 128,-1,17
 191 107 191 107 216.5 212 c 128,-1,18
 242 317 242 317 255 429.5 c 128,-1,19
 268 542 268 542 268 658 c 0,20,21
 268 894 268 894 218 1101 c 128,-1,22
 168 1308 168 1308 66 1474 c 1,23,-1
 127 1501 l 2,24,25
 138 1506 138 1506 156 1507.5 c 128,-1,26
 174 1509 174 1509 194 1509 c 0,27,28
 223 1509 223 1509 241.5 1499 c 128,-1,29
 260 1489 260 1489 282 1467 c 1,30,31
 342 1398 342 1398 394 1307.5 c 128,-1,32
 446 1217 446 1217 479 1123 c 1,33,-1
 478 1123 l 1,34,35
 558 898 558 898 558 662 c 0,0,1
EndSplineSet
EndChar

StartChar: asterisk
Encoding: 42 42 13
Width: 918
Flags: W
LayerCount: 2
Fore
SplineSet
456 665 m 1,0,1
 420 671 420 671 392 680 c 128,-1,2
 364 689 364 689 343.5 698 c 128,-1,3
 323 707 323 707 308.5 714 c 128,-1,4
 294 721 294 721 284 724 c 1,5,6
 302 763 302 763 316.5 796.5 c 128,-1,7
 331 830 331 830 344 861.5 c 128,-1,8
 357 893 357 893 369 925.5 c 128,-1,9
 381 958 381 958 393 994 c 1,10,-1
 125 859 l 1,11,12
 113 897 113 897 99 936.5 c 128,-1,13
 85 976 85 976 78 1014 c 1,14,15
 95 1020 95 1020 115 1025.5 c 128,-1,16
 135 1031 135 1031 157 1036 c 2,17,-1
 369 1080 l 1,18,-1
 116 1259 l 1,19,20
 147 1289 147 1289 178 1321 c 128,-1,21
 209 1353 209 1353 241 1372 c 1,22,23
 255 1356 255 1356 268.5 1340.5 c 128,-1,24
 282 1325 282 1325 293 1309 c 1,25,-1
 429 1139 l 1,26,-1
 459 1440 l 1,27,-1
 632 1399 l 1,28,29
 626 1382 626 1382 612.5 1349.5 c 128,-1,30
 599 1317 599 1317 582.5 1278 c 128,-1,31
 566 1239 566 1239 549.5 1199 c 128,-1,32
 533 1159 533 1159 520 1126 c 1,33,-1
 790 1252 l 1,34,-1
 822 1160 l 1,35,36
 829 1130 829 1130 834 1104 c 1,37,38
 822 1098 822 1098 807 1093 c 128,-1,39
 792 1088 792 1088 775 1085 c 2,40,-1
 548 1041 l 1,41,-1
 795 838 l 1,42,-1
 715 768 l 2,43,44
 701 756 701 756 688.5 748 c 128,-1,45
 676 740 676 740 663 732 c 1,46,47
 649 746 649 746 636.5 763 c 128,-1,48
 624 780 624 780 611 799 c 2,49,-1
 483 982 l 1,50,-1
 456 665 l 1,0,1
EndSplineSet
EndChar

StartChar: plus
Encoding: 43 43 14
Width: 1269
Flags: W
LayerCount: 2
Fore
SplineSet
730 1031 m 1,0,-1
 730 674 l 1,1,-1
 1136 674 l 1,2,-1
 1136 596 l 1,3,4
 1134 568 1134 568 1128 551 c 128,-1,5
 1122 534 1122 534 1109.5 524.5 c 128,-1,6
 1097 515 1097 515 1076 512 c 128,-1,7
 1055 509 1055 509 1025 509 c 2,8,-1
 730 509 l 1,9,-1
 730 89 l 1,10,-1
 660 89 l 2,11,12
 624 89 624 89 600.5 92 c 128,-1,13
 577 95 577 95 563 105 c 128,-1,14
 549 115 549 115 543 134.5 c 128,-1,15
 537 154 537 154 537 187 c 2,16,-1
 537 509 l 1,17,-1
 133 509 l 1,18,-1
 133 588 l 2,19,20
 133 617 133 617 141 634 c 128,-1,21
 149 651 149 651 164 660 c 128,-1,22
 179 669 179 669 200 671.5 c 128,-1,23
 221 674 221 674 247 674 c 2,24,-1
 307 674 l 1,25,-1
 537 674 l 1,26,-1
 537 1092 l 1,27,-1
 584 1092 l 2,28,29
 649 1092 649 1092 683 1081 c 128,-1,30
 717 1070 717 1070 730 1031 c 1,0,-1
EndSplineSet
EndChar

StartChar: comma
Encoding: 44 44 15
Width: 578
Flags: W
LayerCount: 2
Fore
SplineSet
151 -345 m 1,0,1
 124 -334 124 -334 108 -316 c 128,-1,2
 92 -298 92 -298 76 -275 c 1,3,4
 124 -219 124 -219 158.5 -146 c 128,-1,5
 193 -73 193 -73 209 14 c 1,6,7
 159 21 159 21 127.5 55 c 128,-1,8
 96 89 96 89 96 140 c 1,9,10
 97 182 97 182 112.5 212.5 c 128,-1,11
 128 243 128 243 152 262.5 c 128,-1,12
 176 282 176 282 206.5 291.5 c 128,-1,13
 237 301 237 301 269 301 c 0,14,15
 363 301 363 301 406 256 c 128,-1,16
 449 211 449 211 449 133 c 0,17,18
 449 -14 449 -14 370 -130.5 c 128,-1,19
 291 -247 291 -247 151 -345 c 1,0,1
EndSplineSet
EndChar

StartChar: hyphen
Encoding: 45 45 16
Width: 765
Flags: W
LayerCount: 2
Fore
SplineSet
653 496 m 1,0,-1
 51 496 l 1,1,-1
 51 576 l 2,2,3
 51 600 51 600 56.5 614.5 c 128,-1,4
 62 629 62 629 74 636.5 c 128,-1,5
 86 644 86 644 103.5 646.5 c 128,-1,6
 121 649 121 649 145 649 c 2,7,-1
 714 649 l 1,8,-1
 714 586 l 2,9,10
 714 548 714 548 699 524.5 c 128,-1,11
 684 501 684 501 653 496 c 1,0,-1
EndSplineSet
EndChar

StartChar: period
Encoding: 46 46 17
Width: 642
Flags: W
LayerCount: 2
Fore
SplineSet
322 -28 m 256,0,1
 282 -28 282 -28 250.5 -15.5 c 128,-1,2
 219 -3 219 -3 197.5 19 c 128,-1,3
 176 41 176 41 165 71 c 128,-1,4
 154 101 154 101 154 135 c 256,5,6
 154 169 154 169 165.5 199 c 128,-1,7
 177 229 177 229 199 251 c 128,-1,8
 221 273 221 273 251.5 286 c 128,-1,9
 282 299 282 299 321 299 c 0,10,11
 359 299 359 299 390 285.5 c 128,-1,12
 421 272 421 272 442.5 249.5 c 128,-1,13
 464 227 464 227 475.5 197.5 c 128,-1,14
 487 168 487 168 487 135 c 0,15,16
 487 101 487 101 476 71.5 c 128,-1,17
 465 42 465 42 444 20 c 128,-1,18
 423 -2 423 -2 392.5 -15 c 128,-1,19
 362 -28 362 -28 322 -28 c 256,0,1
EndSplineSet
EndChar

StartChar: slash
Encoding: 47 47 18
Width: 878
Flags: W
LayerCount: 2
Fore
SplineSet
664 1426 m 1,0,1
 688 1448 688 1448 719 1456.5 c 128,-1,2
 750 1465 750 1465 783 1465 c 0,3,4
 806 1465 806 1465 830.5 1461.5 c 128,-1,5
 855 1458 855 1458 878 1453 c 1,6,7
 867 1427 867 1427 856.5 1401.5 c 128,-1,8
 846 1376 846 1376 835 1350 c 2,9,-1
 251 31 l 2,10,11
 224 -31 224 -31 192 -84 c 1,12,13
 173 -92 173 -92 143 -92 c 2,14,-1
 83 -92 l 2,15,16
 28 -92 28 -92 0 -77 c 1,17,-1
 43 24 l 1,18,19
 199 376 199 376 353 725 c 128,-1,20
 507 1074 507 1074 664 1426 c 1,0,1
EndSplineSet
EndChar

StartChar: zero
Encoding: 48 48 19
Width: 1315
Flags: W
LayerCount: 2
Fore
SplineSet
657 -30 m 0,0,1
 516 -30 516 -30 408.5 21.5 c 128,-1,2
 301 73 301 73 228.5 168.5 c 128,-1,3
 156 264 156 264 118.5 400.5 c 128,-1,4
 81 537 81 537 81 707 c 0,5,6
 81 879 81 879 118.5 1014.5 c 128,-1,7
 156 1150 156 1150 229 1244 c 128,-1,8
 302 1338 302 1338 409.5 1387 c 128,-1,9
 517 1436 517 1436 657 1436 c 0,10,11
 798 1436 798 1436 906 1386.5 c 128,-1,12
 1014 1337 1014 1337 1087 1243 c 128,-1,13
 1160 1149 1160 1149 1197 1013.5 c 128,-1,14
 1234 878 1234 878 1234 707 c 0,15,16
 1234 535 1234 535 1195.5 398.5 c 128,-1,17
 1157 262 1157 262 1083.5 166.5 c 128,-1,18
 1010 71 1010 71 902.5 20.5 c 128,-1,19
 795 -30 795 -30 657 -30 c 0,0,1
914 707 m 0,20,21
 914 991 914 991 854 1136.5 c 128,-1,22
 794 1282 794 1282 657 1282 c 0,23,24
 592 1282 592 1282 544 1248.5 c 128,-1,25
 496 1215 496 1215 464 1144.5 c 128,-1,26
 432 1074 432 1074 416.5 965.5 c 128,-1,27
 401 857 401 857 401 707 c 0,28,29
 401 411 401 411 463.5 268 c 128,-1,30
 526 125 526 125 657 125 c 0,31,32
 792 125 792 125 853 273.5 c 128,-1,33
 914 422 914 422 914 707 c 0,20,21
EndSplineSet
EndChar

StartChar: one
Encoding: 49 49 20
Width: 993
Flags: W
LayerCount: 2
Fore
SplineSet
657 1364 m 1,0,-1
 657 255 l 2,1,2
 657 220 657 220 659 194 c 128,-1,3
 661 168 661 168 666 147 c 1,4,5
 686 144 686 144 706.5 143 c 128,-1,6
 727 142 727 142 750 142 c 2,7,-1
 857 142 l 1,8,-1
 857 -15 l 1,9,10
 759 -7 759 -7 673 -3.5 c 128,-1,11
 587 0 587 0 509 0 c 0,12,13
 423 0 423 0 333 -4 c 128,-1,14
 243 -8 243 -8 143 -15 c 1,15,-1
 143 142 l 1,16,-1
 248 142 l 2,17,18
 271 142 271 142 292 142.5 c 128,-1,19
 313 143 313 143 332 147 c 1,20,21
 337 165 337 165 340 191.5 c 128,-1,22
 343 218 343 218 343 254 c 2,23,-1
 343 1137 l 2,24,25
 343 1165 343 1165 343 1191.5 c 128,-1,26
 343 1218 343 1218 341 1243 c 1,27,28
 324 1251 324 1251 306 1254.5 c 128,-1,29
 288 1258 288 1258 264 1258 c 0,30,31
 250 1258 250 1258 234 1255 c 1,32,-1
 130 1246 l 1,33,-1
 121 1350 l 1,34,35
 173 1365 173 1365 227 1379 c 128,-1,36
 281 1393 281 1393 335 1404 c 128,-1,37
 389 1415 389 1415 441.5 1422 c 128,-1,38
 494 1429 494 1429 541 1429 c 0,39,40
 590 1429 590 1429 621 1416.5 c 128,-1,41
 652 1404 652 1404 657 1364 c 1,0,-1
EndSplineSet
EndChar

StartChar: two
Encoding: 50 50 21
Width: 1276
Flags: W
LayerCount: 2
Fore
SplineSet
617 1292 m 0,0,1
 570 1292 570 1292 523.5 1272.5 c 128,-1,2
 477 1253 477 1253 437 1216.5 c 128,-1,3
 397 1180 397 1180 366.5 1127.5 c 128,-1,4
 336 1075 336 1075 322 1008 c 1,5,-1
 110 1159 l 1,6,7
 116 1223 116 1223 159 1274.5 c 128,-1,8
 202 1326 202 1326 270.5 1362 c 128,-1,9
 339 1398 339 1398 428 1417 c 128,-1,10
 517 1436 517 1436 616 1436 c 0,11,12
 730 1436 730 1436 821 1410.5 c 128,-1,13
 912 1385 912 1385 976 1334.5 c 128,-1,14
 1040 1284 1040 1284 1074.5 1209.5 c 128,-1,15
 1109 1135 1109 1135 1109 1037 c 0,16,17
 1109 983 1109 983 1095 928.5 c 128,-1,18
 1081 874 1081 874 1048.5 816 c 128,-1,19
 1016 758 1016 758 963 693 c 128,-1,20
 910 628 910 628 833 553 c 128,-1,21
 756 478 756 478 652 390.5 c 128,-1,22
 548 303 548 303 413 199 c 1,23,24
 496 199 496 199 556 199 c 128,-1,25
 616 199 616 199 662 199 c 128,-1,26
 708 199 708 199 745 198.5 c 128,-1,27
 782 198 782 198 819 198 c 1,28,29
 843 207 843 207 871 221 c 128,-1,30
 899 235 899 235 928 258.5 c 128,-1,31
 957 282 957 282 984.5 317.5 c 128,-1,32
 1012 353 1012 353 1035 406 c 1,33,34
 1067 404 1067 404 1096.5 399 c 128,-1,35
 1126 394 1126 394 1153 392 c 1,36,37
 1152 280 1152 280 1149.5 189 c 128,-1,38
 1147 98 1147 98 1140 20 c 1,39,40
 1110 14 1110 14 1075 10 c 128,-1,41
 1040 6 1040 6 995.5 3.5 c 128,-1,42
 951 1 951 1 895 0.5 c 128,-1,43
 839 0 839 0 768 0 c 2,44,-1
 203 0 l 2,45,46
 174 0 174 0 153.5 4.5 c 128,-1,47
 133 9 133 9 120 19 c 128,-1,48
 107 29 107 29 100.5 45 c 128,-1,49
 94 61 94 61 91 85 c 1,50,51
 91 101 91 101 93.5 119 c 128,-1,52
 96 137 96 137 100 158 c 1,53,54
 184 239 184 239 258.5 311 c 128,-1,55
 333 383 333 383 400 448.5 c 128,-1,56
 467 514 467 514 526.5 574.5 c 128,-1,57
 586 635 586 635 641 692 c 1,58,59
 684 740 684 740 716 784.5 c 128,-1,60
 748 829 748 829 768 873.5 c 128,-1,61
 788 918 788 918 798 963.5 c 128,-1,62
 808 1009 808 1009 808 1060 c 0,63,64
 808 1172 808 1172 760 1232 c 128,-1,65
 712 1292 712 1292 617 1292 c 0,0,1
EndSplineSet
EndChar

StartChar: three
Encoding: 51 51 22
Width: 1223
Flags: W
LayerCount: 2
Fore
SplineSet
806 1086 m 0,0,1
 806 1135 806 1135 788 1171.5 c 128,-1,2
 770 1208 770 1208 739 1232.5 c 128,-1,3
 708 1257 708 1257 667.5 1269.5 c 128,-1,4
 627 1282 627 1282 582 1282 c 0,5,6
 534 1282 534 1282 486 1266 c 128,-1,7
 438 1250 438 1250 397.5 1218.5 c 128,-1,8
 357 1187 357 1187 327 1140 c 128,-1,9
 297 1093 297 1093 284 1032 c 1,10,-1
 93 1169 l 1,11,12
 117 1236 117 1236 162.5 1286 c 128,-1,13
 208 1336 208 1336 270 1369 c 128,-1,14
 332 1402 332 1402 409 1418.5 c 128,-1,15
 486 1435 486 1435 574 1435 c 0,16,17
 671 1435 671 1435 760 1413.5 c 128,-1,18
 849 1392 849 1392 917 1347.5 c 128,-1,19
 985 1303 985 1303 1025.5 1236 c 128,-1,20
 1066 1169 1066 1169 1066 1079 c 0,21,22
 1066 1019 1066 1019 1042.5 967 c 128,-1,23
 1019 915 1019 915 975.5 873.5 c 128,-1,24
 932 832 932 832 870 801.5 c 128,-1,25
 808 771 808 771 730 754 c 1,26,27
 821 742 821 742 893 712 c 128,-1,28
 965 682 965 682 1014.5 634.5 c 128,-1,29
 1064 587 1064 587 1090 522 c 128,-1,30
 1116 457 1116 457 1116 375 c 0,31,32
 1116 280 1116 280 1078 204 c 128,-1,33
 1040 128 1040 128 971 75 c 128,-1,34
 902 22 902 22 804.5 -6.5 c 128,-1,35
 707 -35 707 -35 588 -35 c 0,36,37
 513 -35 513 -35 442.5 -23 c 128,-1,38
 372 -11 372 -11 309.5 10.5 c 128,-1,39
 247 32 247 32 196 61 c 128,-1,40
 145 90 145 90 109 125 c 1,41,42
 110 152 110 152 111 181 c 128,-1,43
 112 210 112 210 114 243.5 c 128,-1,44
 116 277 116 277 119.5 318 c 128,-1,45
 123 359 123 359 129 410 c 1,46,-1
 284 391 l 1,47,48
 291 314 291 314 317 261.5 c 128,-1,49
 343 209 343 209 380.5 177 c 128,-1,50
 418 145 418 145 464.5 130.5 c 128,-1,51
 511 116 511 116 560 116 c 0,52,53
 621 116 621 116 668.5 136 c 128,-1,54
 716 156 716 156 748.5 191.5 c 128,-1,55
 781 227 781 227 798 276.5 c 128,-1,56
 815 326 815 326 815 385 c 0,57,58
 815 525 815 525 722 590.5 c 128,-1,59
 629 656 629 656 459 656 c 2,60,-1
 365 656 l 1,61,62
 366 691 366 691 367.5 728 c 128,-1,63
 369 765 369 765 375 794 c 1,64,-1
 459 799 l 2,65,66
 514 802 514 802 575 822.5 c 128,-1,67
 636 843 636 843 687.5 879.5 c 128,-1,68
 739 916 739 916 772.5 968 c 128,-1,69
 806 1020 806 1020 806 1086 c 0,0,1
EndSplineSet
EndChar

StartChar: four
Encoding: 52 52 23
Width: 1244
Flags: W
LayerCount: 2
Fore
SplineSet
219 516 m 1,0,-1
 644 516 l 1,1,-1
 644 1063 l 1,2,-1
 644 1132 l 1,3,-1
 250 566 l 1,4,-1
 219 516 l 1,0,-1
942 368 m 1,5,-1
 942 254 l 2,6,7
 942 219 942 219 944 193 c 128,-1,8
 946 167 946 167 951 146 c 1,9,10
 971 143 971 143 991.5 142 c 128,-1,11
 1012 141 1012 141 1035 141 c 2,12,-1
 1142 141 l 1,13,-1
 1142 -15 l 1,14,15
 1048 -7 1048 -7 965.5 -3.5 c 128,-1,16
 883 0 883 0 808 0 c 0,17,18
 727 0 727 0 637.5 -4 c 128,-1,19
 548 -8 548 -8 444 -15 c 1,20,-1
 444 141 l 1,21,-1
 549 141 l 2,22,23
 572 141 572 141 593 141.5 c 128,-1,24
 614 142 614 142 633 146 c 1,25,26
 644 184 644 184 644 253 c 2,27,-1
 644 368 l 1,28,-1
 95 368 l 1,29,30
 63 413 63 413 47 452 c 128,-1,31
 31 491 31 491 31 532 c 1,32,33
 43 555 43 555 57 575 c 128,-1,34
 71 595 71 595 87 618 c 0,35,36
 197 777 197 777 283.5 901.5 c 128,-1,37
 370 1026 370 1026 437.5 1122 c 128,-1,38
 505 1218 505 1218 556 1289 c 128,-1,39
 607 1360 607 1360 646 1413 c 1,40,-1
 776 1413 l 1,41,-1
 827 1413 l 2,42,43
 856 1413 856 1413 877.5 1410 c 128,-1,44
 899 1407 899 1407 913.5 1397.5 c 128,-1,45
 928 1388 928 1388 935 1371 c 128,-1,46
 942 1354 942 1354 942 1326 c 2,47,-1
 942 516 l 1,48,-1
 1210 516 l 1,49,-1
 1210 446 l 2,50,51
 1210 418 1210 418 1201.5 402 c 128,-1,52
 1193 386 1193 386 1176 378.5 c 128,-1,53
 1159 371 1159 371 1133.5 369.5 c 128,-1,54
 1108 368 1108 368 1074 368 c 2,55,-1
 942 368 l 1,5,-1
EndSplineSet
EndChar

StartChar: five
Encoding: 53 53 24
Width: 1236
Flags: W
LayerCount: 2
Fore
SplineSet
437 1253 m 1,0,-1
 433 848 l 1,1,2
 498 875 498 875 556 886.5 c 128,-1,3
 614 898 614 898 673 898 c 0,4,5
 770 898 770 898 851 865.5 c 128,-1,6
 932 833 932 833 991 774.5 c 128,-1,7
 1050 716 1050 716 1083 635.5 c 128,-1,8
 1116 555 1116 555 1116 458 c 0,9,10
 1116 338 1116 338 1075.5 246.5 c 128,-1,11
 1035 155 1035 155 963 93.5 c 128,-1,12
 891 32 891 32 793 1 c 128,-1,13
 695 -30 695 -30 580 -30 c 0,14,15
 507 -30 507 -30 443 -21 c 128,-1,16
 379 -12 379 -12 323.5 4 c 128,-1,17
 268 20 268 20 220.5 40.5 c 128,-1,18
 173 61 173 61 134 84 c 1,19,-1
 129 418 l 1,20,-1
 300 402 l 1,21,22
 309 348 309 348 319.5 291.5 c 128,-1,23
 330 235 330 235 342 174 c 1,24,25
 391 152 391 152 439 138.5 c 128,-1,26
 487 125 487 125 548 125 c 0,27,28
 618 125 618 125 667.5 149 c 128,-1,29
 717 173 717 173 749 215.5 c 128,-1,30
 781 258 781 258 796 315 c 128,-1,31
 811 372 811 372 811 438 c 0,32,33
 811 505 811 505 796.5 559.5 c 128,-1,34
 782 614 782 614 750.5 651.5 c 128,-1,35
 719 689 719 689 670 709.5 c 128,-1,36
 621 730 621 730 553 730 c 0,37,38
 494 730 494 730 432.5 712.5 c 128,-1,39
 371 695 371 695 307 648 c 1,40,41
 285 654 285 654 253.5 661.5 c 128,-1,42
 222 669 222 669 163 680 c 1,43,44
 165 850 165 850 166 1017 c 128,-1,45
 167 1184 167 1184 169 1354 c 1,46,47
 188 1376 188 1376 215 1388 c 128,-1,48
 242 1400 242 1400 274.5 1405.5 c 128,-1,49
 307 1411 307 1411 343.5 1412 c 128,-1,50
 380 1413 380 1413 419 1413 c 0,51,52
 505 1413 505 1413 580.5 1412.5 c 128,-1,53
 656 1412 656 1412 728 1414.5 c 128,-1,54
 800 1417 800 1417 873 1423 c 128,-1,55
 946 1429 946 1429 1027 1442 c 1,56,-1
 1035 1293 l 1,57,58
 1020 1273 1020 1273 998 1259.5 c 128,-1,59
 976 1246 976 1246 945.5 1238 c 128,-1,60
 915 1230 915 1230 875.5 1226.5 c 128,-1,61
 836 1223 836 1223 785 1223 c 0,62,63
 707 1223 707 1223 622 1230 c 128,-1,64
 537 1237 537 1237 437 1253 c 1,0,-1
EndSplineSet
EndChar

StartChar: six
Encoding: 54 54 25
Width: 1257
Flags: W
LayerCount: 2
Fore
SplineSet
422 756 m 1,0,1
 502 818 502 818 582.5 847.5 c 128,-1,2
 663 877 663 877 751 877 c 0,3,4
 845 877 845 877 923 846 c 128,-1,5
 1001 815 1001 815 1056.5 757 c 128,-1,6
 1112 699 1112 699 1142.5 617.5 c 128,-1,7
 1173 536 1173 536 1173 434 c 256,8,9
 1173 332 1173 332 1135 246.5 c 128,-1,10
 1097 161 1097 161 1027.5 99.5 c 128,-1,11
 958 38 958 38 860 4 c 128,-1,12
 762 -30 762 -30 642 -30 c 0,13,14
 374 -30 374 -30 241.5 135 c 128,-1,15
 109 300 109 300 109 641 c 0,16,17
 109 1029 109 1029 258.5 1232.5 c 128,-1,18
 408 1436 408 1436 719 1436 c 0,19,20
 776 1436 776 1436 831 1431 c 128,-1,21
 886 1426 886 1426 935.5 1416 c 128,-1,22
 985 1406 985 1406 1025 1392 c 128,-1,23
 1065 1378 1065 1378 1092 1359 c 1,24,-1
 1085 1018 l 1,25,-1
 911 1018 l 1,26,-1
 879 1246 l 1,27,28
 825 1265 825 1265 782 1273.5 c 128,-1,29
 739 1282 739 1282 704 1282 c 0,30,31
 637 1282 637 1282 587 1252 c 128,-1,32
 537 1222 537 1222 503.5 1168.5 c 128,-1,33
 470 1115 470 1115 452 1042.5 c 128,-1,34
 434 970 434 970 431 886 c 1,35,36
 428 857 428 857 426 825.5 c 128,-1,37
 424 794 424 794 422 756 c 1,0,1
427 497 m 1,38,39
 427 411 427 411 441.5 341 c 128,-1,40
 456 271 456 271 484.5 221 c 128,-1,41
 513 171 513 171 555 143.5 c 128,-1,42
 597 116 597 116 652 116 c 0,43,44
 699 116 699 116 738.5 136.5 c 128,-1,45
 778 157 778 157 806 197 c 128,-1,46
 834 237 834 237 849.5 295.5 c 128,-1,47
 865 354 865 354 865 431 c 0,48,49
 865 495 865 495 854.5 547.5 c 128,-1,50
 844 600 844 600 822 638 c 128,-1,51
 800 676 800 676 766 697 c 128,-1,52
 732 718 732 718 686 720 c 0,53,54
 669 720 669 720 647.5 710.5 c 128,-1,55
 626 701 626 701 602 687 c 1,56,57
 571 681 571 681 540 660.5 c 128,-1,58
 509 640 509 640 484.5 613 c 128,-1,59
 460 586 460 586 444 555 c 128,-1,60
 428 524 428 524 427 497 c 1,38,39
EndSplineSet
EndChar

StartChar: seven
Encoding: 55 55 26
Width: 1236
Flags: W
LayerCount: 2
Fore
SplineSet
151 1001 m 1,0,-1
 101 1365 l 1,1,2
 162 1382 162 1382 222 1392 c 128,-1,3
 282 1402 282 1402 346.5 1406.5 c 128,-1,4
 411 1411 411 1411 482.5 1412 c 128,-1,5
 554 1413 554 1413 638 1413 c 2,6,-1
 1126 1413 l 1,7,8
 1143 1389 1143 1389 1147.5 1351 c 128,-1,9
 1152 1313 1152 1313 1152 1249 c 1,10,-1
 701 187 l 1,11,12
 678 138 678 138 656 101 c 128,-1,13
 634 64 634 64 607 39 c 128,-1,14
 580 14 580 14 545 1.5 c 128,-1,15
 510 -11 510 -11 462 -11 c 0,16,17
 405 -11 405 -11 370 0 c 128,-1,18
 335 11 335 11 316 39 c 1,19,20
 319 47 319 47 323.5 59 c 128,-1,21
 328 71 328 71 335 85 c 2,22,-1
 897 1253 l 1,23,-1
 493 1253 l 2,24,25
 448 1253 448 1253 408 1249.5 c 128,-1,26
 368 1246 368 1246 333 1238 c 1,27,28
 329 1212 329 1212 327 1190.5 c 128,-1,29
 325 1169 325 1169 323 1150 c 2,30,-1
 313 1001 l 1,31,-1
 151 1001 l 1,0,-1
EndSplineSet
EndChar

StartChar: eight
Encoding: 56 56 27
Width: 1207
Flags: W
LayerCount: 2
Fore
SplineSet
788 1069 m 0,0,1
 788 1118 788 1118 774.5 1157.5 c 128,-1,2
 761 1197 761 1197 735.5 1225 c 128,-1,3
 710 1253 710 1253 673.5 1268 c 128,-1,4
 637 1283 637 1283 592 1283 c 0,5,6
 500 1283 500 1283 449 1226 c 128,-1,7
 398 1169 398 1169 398 1069 c 0,8,9
 398 973 398 973 459 907 c 128,-1,10
 520 841 520 841 628 803 c 1,11,12
 788 867 788 867 788 1069 c 0,0,1
583 626 m 0,13,14
 572 630 572 630 560.5 634.5 c 128,-1,15
 549 639 549 639 538 643 c 1,16,17
 458 598 458 598 415.5 526.5 c 128,-1,18
 373 455 373 455 373 359 c 0,19,20
 373 303 373 303 389 259.5 c 128,-1,21
 405 216 405 216 433.5 186 c 128,-1,22
 462 156 462 156 502.5 140.5 c 128,-1,23
 543 125 543 125 592 125 c 0,24,25
 649 125 649 125 691.5 142 c 128,-1,26
 734 159 734 159 762.5 189 c 128,-1,27
 791 219 791 219 805 259 c 128,-1,28
 819 299 819 299 819 344 c 0,29,30
 819 446 819 446 756.5 517 c 128,-1,31
 694 588 694 588 583 626 c 0,13,14
1081 1078 m 0,32,33
 1081 1023 1081 1023 1062.5 976 c 128,-1,34
 1044 929 1044 929 1011 887 c 128,-1,35
 978 845 978 845 932 806 c 128,-1,36
 886 767 886 767 831 727 c 1,37,38
 887 703 887 703 940.5 669.5 c 128,-1,39
 994 636 994 636 1035.5 591.5 c 128,-1,40
 1077 547 1077 547 1102.5 492 c 128,-1,41
 1128 437 1128 437 1128 370 c 0,42,43
 1128 265 1128 265 1086.5 189.5 c 128,-1,44
 1045 114 1045 114 972.5 65 c 128,-1,45
 900 16 900 16 802 -7 c 128,-1,46
 704 -30 704 -30 592 -30 c 0,47,48
 484 -30 484 -30 390 -6.5 c 128,-1,49
 296 17 296 17 226.5 62.5 c 128,-1,50
 157 108 157 108 117.5 175 c 128,-1,51
 78 242 78 242 78 328 c 0,52,53
 78 450 78 450 144 550 c 128,-1,54
 210 650 210 650 357 722 c 1,55,56
 232 785 232 785 165.5 870 c 128,-1,57
 99 955 99 955 99 1081 c 0,58,59
 99 1163 99 1163 136.5 1228.5 c 128,-1,60
 174 1294 174 1294 240 1340 c 128,-1,61
 306 1386 306 1386 396.5 1411 c 128,-1,62
 487 1436 487 1436 592 1436 c 0,63,64
 692 1436 692 1436 781 1412.5 c 128,-1,65
 870 1389 870 1389 936.5 1343.5 c 128,-1,66
 1003 1298 1003 1298 1042 1231 c 128,-1,67
 1081 1164 1081 1164 1081 1078 c 0,32,33
EndSplineSet
EndChar

StartChar: nine
Encoding: 57 57 28
Width: 1256
Flags: W
LayerCount: 2
Fore
SplineSet
835 650 m 1,0,1
 754 592 754 592 674 562.5 c 128,-1,2
 594 533 594 533 507 533 c 0,3,4
 413 533 413 533 336 564.5 c 128,-1,5
 259 596 259 596 204 654 c 128,-1,6
 149 712 149 712 119 794 c 128,-1,7
 89 876 89 876 89 977 c 256,8,9
 89 1078 89 1078 126.5 1162.5 c 128,-1,10
 164 1247 164 1247 233 1307.5 c 128,-1,11
 302 1368 302 1368 399 1402 c 128,-1,12
 496 1436 496 1436 615 1436 c 0,13,14
 883 1436 883 1436 1015 1274.5 c 128,-1,15
 1147 1113 1147 1113 1147 781 c 0,16,17
 1147 583 1147 583 1112 431.5 c 128,-1,18
 1077 280 1077 280 1004.5 177.5 c 128,-1,19
 932 75 932 75 822 22.5 c 128,-1,20
 712 -30 712 -30 562 -30 c 0,21,22
 502 -30 502 -30 443 -24 c 128,-1,23
 384 -18 384 -18 331.5 -6.5 c 128,-1,24
 279 5 279 5 236.5 22.5 c 128,-1,25
 194 40 194 40 167 63 c 1,26,-1
 167 399 l 1,27,-1
 344 399 l 1,28,-1
 382 160 l 1,29,30
 479 125 479 125 553 125 c 0,31,32
 619 125 619 125 668.5 155.5 c 128,-1,33
 718 186 718 186 752 239.5 c 128,-1,34
 786 293 786 293 804 366 c 128,-1,35
 822 439 822 439 826 524 c 1,36,37
 830 552 830 552 831.5 582.5 c 128,-1,38
 833 613 833 613 835 650 c 1,0,1
830 894 m 1,39,40
 830 1083 830 1083 775.5 1182.5 c 128,-1,41
 721 1282 721 1282 604 1282 c 0,42,43
 558 1282 558 1282 520 1262 c 128,-1,44
 482 1242 482 1242 454.5 1204 c 128,-1,45
 427 1166 427 1166 412 1109.5 c 128,-1,46
 397 1053 397 1053 397 980 c 0,47,48
 397 918 397 918 406.5 865 c 128,-1,49
 416 812 416 812 436.5 773.5 c 128,-1,50
 457 735 457 735 489 713.5 c 128,-1,51
 521 692 521 692 565 692 c 0,52,53
 586 692 586 692 617.5 696.5 c 128,-1,54
 649 701 649 701 681 711 c 128,-1,55
 713 721 713 721 740 736.5 c 128,-1,56
 767 752 767 752 779 775 c 1,57,58
 802 801 802 801 815 834.5 c 128,-1,59
 828 868 828 868 830 894 c 1,39,40
EndSplineSet
EndChar

StartChar: colon
Encoding: 58 58 29
Width: 648
Flags: W
LayerCount: 2
Fore
SplineSet
157 870 m 0,0,1
 157 906 157 906 169.5 936 c 128,-1,2
 182 966 182 966 205 987 c 128,-1,3
 228 1008 228 1008 259 1019.5 c 128,-1,4
 290 1031 290 1031 328 1031 c 0,5,6
 365 1031 365 1031 395.5 1018.5 c 128,-1,7
 426 1006 426 1006 448 984.5 c 128,-1,8
 470 963 470 963 482 934.5 c 128,-1,9
 494 906 494 906 494 874 c 0,10,11
 494 833 494 833 481.5 802 c 128,-1,12
 469 771 469 771 447 749.5 c 128,-1,13
 425 728 425 728 395 717 c 128,-1,14
 365 706 365 706 330 706 c 0,15,16
 245 706 245 706 201 751 c 128,-1,17
 157 796 157 796 157 870 c 0,0,1
323 298 m 256,18,19
 359 298 359 298 390 284.5 c 128,-1,20
 421 271 421 271 443 248.5 c 128,-1,21
 465 226 465 226 477.5 196 c 128,-1,22
 490 166 490 166 490 133 c 0,23,24
 490 93 490 93 477 63 c 128,-1,25
 464 33 464 33 442 12.5 c 128,-1,26
 420 -8 420 -8 390 -18 c 128,-1,27
 360 -28 360 -28 327 -28 c 0,28,29
 285 -28 285 -28 253 -16 c 128,-1,30
 221 -4 221 -4 199 17.5 c 128,-1,31
 177 39 177 39 166 68.5 c 128,-1,32
 155 98 155 98 155 132 c 0,33,34
 155 172 155 172 167.5 203 c 128,-1,35
 180 234 180 234 202.5 255 c 128,-1,36
 225 276 225 276 256 287 c 128,-1,37
 287 298 287 298 323 298 c 256,18,19
EndSplineSet
EndChar

StartChar: semicolon
Encoding: 59 59 30
Width: 575
Flags: W
LayerCount: 2
Fore
SplineSet
76 -327 m 1,0,1
 81 -314 81 -314 86.5 -301 c 128,-1,2
 92 -288 92 -288 97 -274 c 1,3,4
 130 -233 130 -233 155.5 -181.5 c 128,-1,5
 181 -130 181 -130 199 -73 c 1,6,7
 199 -68 199 -68 198 -64 c 1,8,9
 201 -53 201 -53 204 -43 c 128,-1,10
 207 -33 207 -33 209 -22 c 1,11,12
 172 -15 172 -15 148 9 c 128,-1,13
 124 33 124 33 119 71 c 1,14,15
 111 81 111 81 105.5 94.5 c 128,-1,16
 100 108 100 108 100 126 c 0,17,18
 100 157 100 157 114.5 182.5 c 128,-1,19
 129 208 129 208 152.5 226.5 c 128,-1,20
 176 245 176 245 206.5 255 c 128,-1,21
 237 265 237 265 270 265 c 0,22,23
 318 265 318 265 352 252.5 c 128,-1,24
 386 240 386 240 407.5 216.5 c 128,-1,25
 429 193 429 193 438.5 160.5 c 128,-1,26
 448 128 448 128 448 88 c 0,27,28
 448 19 448 19 427.5 -45.5 c 128,-1,29
 407 -110 407 -110 369 -169.5 c 128,-1,30
 331 -229 331 -229 277 -282 c 128,-1,31
 223 -335 223 -335 156 -380 c 1,32,33
 144 -371 144 -371 133 -365.5 c 128,-1,34
 122 -360 122 -360 112 -354.5 c 128,-1,35
 102 -349 102 -349 93 -342.5 c 128,-1,36
 84 -336 84 -336 76 -327 c 1,0,1
256 1029 m 1,37,38
 266 1031 266 1031 275 1031 c 0,39,40
 312 1031 312 1031 342.5 1018.5 c 128,-1,41
 373 1006 373 1006 395 984.5 c 128,-1,42
 417 963 417 963 429.5 934.5 c 128,-1,43
 442 906 442 906 442 874 c 0,44,45
 442 833 442 833 429.5 802 c 128,-1,46
 417 771 417 771 395 749.5 c 128,-1,47
 373 728 373 728 342.5 717 c 128,-1,48
 312 706 312 706 277 706 c 0,49,50
 192 706 192 706 148.5 751 c 128,-1,51
 105 796 105 796 105 870 c 0,52,53
 105 939 105 939 146 981.5 c 128,-1,54
 187 1024 187 1024 256 1029 c 1,37,38
EndSplineSet
EndChar

StartChar: less
Encoding: 60 60 31
Width: 1444
Flags: W
LayerCount: 2
Fore
SplineSet
160 626 m 1,0,-1
 1013 1017 l 1,1,-1
 1119 1062 l 2,2,3
 1175 1085 1175 1085 1223 1102 c 1,4,5
 1253 1078 1253 1078 1267.5 1063 c 128,-1,6
 1282 1048 1282 1048 1289 1033.5 c 128,-1,7
 1296 1019 1296 1019 1299.5 1001.5 c 128,-1,8
 1303 984 1303 984 1311 956 c 1,9,-1
 442 559 l 1,10,-1
 442 557 l 1,11,-1
 817 386 l 2,12,13
 958 321 958 321 1080.5 265 c 128,-1,14
 1203 209 1203 209 1310 162 c 1,15,16
 1302 133 1302 133 1299 115.5 c 128,-1,17
 1296 98 1296 98 1289.5 83.5 c 128,-1,18
 1283 69 1283 69 1268 53.5 c 128,-1,19
 1253 38 1253 38 1222 13 c 1,20,21
 1187 25 1187 25 1155.5 38 c 128,-1,22
 1124 51 1124 51 1096 64 c 0,23,24
 909 149 909 149 670 257.5 c 128,-1,25
 431 366 431 366 133 503 c 1,26,-1
 133 562 l 2,27,28
 133 572 133 572 174 590 c 1,29,30
 166 587 166 587 158.5 584.5 c 128,-1,31
 151 582 151 582 143 579 c 1,32,-1
 143 592 l 2,33,34
 143 601 143 601 146 610 c 128,-1,35
 149 619 149 619 160 626 c 1,0,-1
EndSplineSet
EndChar

StartChar: equal
Encoding: 61 61 32
Width: 1347
Flags: W
LayerCount: 2
Fore
SplineSet
1131 317 m 1,0,-1
 131 317 l 1,1,-1
 131 395 l 2,2,3
 131 425 131 425 137 442 c 128,-1,4
 143 459 143 459 158 467.5 c 128,-1,5
 173 476 173 476 198 478.5 c 128,-1,6
 223 481 223 481 261 481 c 2,7,-1
 1216 481 l 1,8,-1
 1216 405 l 2,9,10
 1216 370 1216 370 1196 350.5 c 128,-1,11
 1176 331 1176 331 1131 317 c 1,0,-1
1132 700 m 1,12,-1
 131 700 l 1,13,-1
 131 779 l 2,14,15
 131 810 131 810 140 827.5 c 128,-1,16
 149 845 149 845 165.5 853.5 c 128,-1,17
 182 862 182 862 205.5 864 c 128,-1,18
 229 866 229 866 257 866 c 2,19,-1
 1216 866 l 1,20,-1
 1216 788 l 2,21,22
 1216 750 1216 750 1193 731 c 128,-1,23
 1170 712 1170 712 1132 700 c 1,12,-1
EndSplineSet
EndChar

StartChar: greater
Encoding: 62 62 33
Width: 1443
Flags: W
LayerCount: 2
Fore
SplineSet
961 546 m 1,0,-1
 133 924 l 1,1,-1
 144 963 l 1,2,3
 170 1020 170 1020 212 1030 c 1,4,5
 224 1037 224 1037 247 1050.5 c 128,-1,6
 270 1064 270 1064 304 1084 c 1,7,-1
 1342 610 l 1,8,-1
 1361 579 l 2,9,10
 1365 573 1365 573 1368.5 563.5 c 128,-1,11
 1372 554 1372 554 1372 548 c 2,12,-1
 1372 494 l 1,13,-1
 403 52 l 1,14,-1
 406 52 l 1,15,16
 385 42 385 42 263 4 c 1,17,18
 156 76 156 76 150 100 c 2,19,-1
 134 165 l 1,20,-1
 961 546 l 1,0,-1
1342 610 m 1,21,22
 1339 613 1339 613 1338 617 c 1,23,-1
 1342 610 l 1,21,22
EndSplineSet
EndChar

StartChar: question
Encoding: 63 63 34
Width: 1055
Flags: W
LayerCount: 2
Fore
SplineSet
623 383 m 1,0,1
 600 380 600 380 583.5 378.5 c 128,-1,2
 567 377 567 377 552 376 c 128,-1,3
 537 375 537 375 520.5 374.5 c 128,-1,4
 504 374 504 374 480 374 c 1,5,6
 455 388 455 388 427 409 c 128,-1,7
 399 430 399 430 376 456 c 128,-1,8
 353 482 353 482 337.5 511.5 c 128,-1,9
 322 541 322 541 322 572 c 0,10,11
 322 611 322 611 338 644.5 c 128,-1,12
 354 678 354 678 378 707 c 128,-1,13
 402 736 402 736 430.5 762.5 c 128,-1,14
 459 789 459 789 483 813 c 0,15,16
 518 848 518 848 545 881.5 c 128,-1,17
 572 915 572 915 590.5 949.5 c 128,-1,18
 609 984 609 984 618.5 1020 c 128,-1,19
 628 1056 628 1056 628 1097 c 0,20,21
 628 1142 628 1142 616 1176 c 128,-1,22
 604 1210 604 1210 583 1233.5 c 128,-1,23
 562 1257 562 1257 533.5 1269 c 128,-1,24
 505 1281 505 1281 472 1281 c 0,25,26
 429 1281 429 1281 381 1273 c 128,-1,27
 333 1265 333 1265 273 1249 c 1,28,29
 272 1229 272 1229 271 1207 c 0,30,31
 270 1188 270 1188 269.5 1163 c 128,-1,32
 269 1138 269 1138 269 1112 c 1,33,-1
 101 1112 l 1,34,-1
 101 1361 l 1,35,36
 163 1381 163 1381 230 1398 c 0,37,38
 287 1412 287 1412 356 1424 c 128,-1,39
 425 1436 425 1436 494 1436 c 0,40,41
 595 1436 595 1436 680 1413.5 c 128,-1,42
 765 1391 765 1391 826.5 1346.5 c 128,-1,43
 888 1302 888 1302 922.5 1237 c 128,-1,44
 957 1172 957 1172 957 1088 c 0,45,46
 957 1028 957 1028 934.5 976.5 c 128,-1,47
 912 925 912 925 873 877.5 c 128,-1,48
 834 830 834 830 782 783.5 c 128,-1,49
 730 737 730 737 671 688 c 0,50,51
 657 677 657 677 647 664 c 128,-1,52
 637 651 637 651 629.5 631.5 c 128,-1,53
 622 612 622 612 618.5 584.5 c 128,-1,54
 615 557 615 557 615 517 c 0,55,56
 615 485 615 485 616.5 449.5 c 128,-1,57
 618 414 618 414 623 383 c 1,0,1
500 258 m 0,58,59
 536 258 536 258 564 244.5 c 128,-1,60
 592 231 592 231 611.5 209 c 128,-1,61
 631 187 631 187 641 159 c 128,-1,62
 651 131 651 131 651 103 c 0,63,64
 651 77 651 77 642.5 52.5 c 128,-1,65
 634 28 634 28 616 9.5 c 128,-1,66
 598 -9 598 -9 570 -20.5 c 128,-1,67
 542 -32 542 -32 504 -32 c 0,68,69
 463 -32 463 -32 433 -19.5 c 128,-1,70
 403 -7 403 -7 383.5 13 c 128,-1,71
 364 33 364 33 354.5 58.5 c 128,-1,72
 345 84 345 84 345 111 c 256,73,74
 345 138 345 138 355 164.5 c 128,-1,75
 365 191 365 191 384.5 212 c 128,-1,76
 404 233 404 233 433 245.5 c 128,-1,77
 462 258 462 258 500 258 c 0,58,59
EndSplineSet
EndChar

StartChar: at
Encoding: 64 64 35
Width: 1822
Flags: W
LayerCount: 2
Fore
SplineSet
746 532 m 0,0,1
 746 491 746 491 755.5 456 c 128,-1,2
 765 421 765 421 782.5 395.5 c 128,-1,3
 800 370 800 370 825.5 355 c 128,-1,4
 851 340 851 340 883 340 c 0,5,6
 931 340 931 340 968 366.5 c 128,-1,7
 1005 393 1005 393 1032.5 437 c 128,-1,8
 1060 481 1060 481 1080 538.5 c 128,-1,9
 1100 596 1100 596 1113.5 658 c 128,-1,10
 1127 720 1127 720 1137 782.5 c 128,-1,11
 1147 845 1147 845 1154 899 c 1,12,13
 1146 941 1146 941 1119 965.5 c 128,-1,14
 1092 990 1092 990 1043 990 c 0,15,16
 1008 990 1008 990 972.5 973 c 128,-1,17
 937 956 937 956 904 925 c 128,-1,18
 871 894 871 894 842.5 851.5 c 128,-1,19
 814 809 814 809 792.5 758 c 128,-1,20
 771 707 771 707 758.5 649.5 c 128,-1,21
 746 592 746 592 746 532 c 0,0,1
1491 90 m 1,22,-1
 1536 5 l 1,23,24
 1406 -79 1406 -79 1262 -124 c 128,-1,25
 1118 -169 1118 -169 972 -169 c 0,26,27
 781 -169 781 -169 624 -106 c 128,-1,28
 467 -43 467 -43 355 66 c 128,-1,29
 243 175 243 175 181 319.5 c 128,-1,30
 119 464 119 464 119 628 c 0,31,32
 119 749 119 749 149.5 858 c 128,-1,33
 180 967 180 967 236.5 1059.5 c 128,-1,34
 293 1152 293 1152 371.5 1226 c 128,-1,35
 450 1300 450 1300 546 1352 c 128,-1,36
 642 1404 642 1404 752.5 1432 c 128,-1,37
 863 1460 863 1460 983 1460 c 0,38,39
 1145 1460 1145 1460 1281.5 1409.5 c 128,-1,40
 1418 1359 1418 1359 1517 1267.5 c 128,-1,41
 1616 1176 1616 1176 1671.5 1047.5 c 128,-1,42
 1727 919 1727 919 1727 763 c 0,43,44
 1727 691 1727 691 1712.5 623 c 128,-1,45
 1698 555 1698 555 1671 494.5 c 128,-1,46
 1644 434 1644 434 1606.5 383.5 c 128,-1,47
 1569 333 1569 333 1523 296.5 c 128,-1,48
 1477 260 1477 260 1424.5 239.5 c 128,-1,49
 1372 219 1372 219 1316 219 c 0,50,51
 1271 219 1271 219 1235 231 c 128,-1,52
 1199 243 1199 243 1171.5 265 c 128,-1,53
 1144 287 1144 287 1124.5 317 c 128,-1,54
 1105 347 1105 347 1093 382 c 1,55,56
 1070 350 1070 350 1038 329.5 c 128,-1,57
 1006 309 1006 309 964 309 c 1,58,59
 942 269 942 269 907 244 c 128,-1,60
 872 219 872 219 825 219 c 0,61,62
 766 219 766 219 715.5 239.5 c 128,-1,63
 665 260 665 260 628 299.5 c 128,-1,64
 591 339 591 339 570 397.5 c 128,-1,65
 549 456 549 456 549 532 c 0,66,67
 549 653 549 653 588.5 756 c 128,-1,68
 628 859 628 859 695 934 c 128,-1,69
 762 1009 762 1009 850.5 1051.5 c 128,-1,70
 939 1094 939 1094 1038 1094 c 0,71,72
 1087 1094 1087 1094 1125.5 1077.5 c 128,-1,73
 1164 1061 1164 1061 1190 1026 c 1,74,-1
 1207 1096 l 1,75,76
 1264 1090 1264 1090 1300.5 1072 c 128,-1,77
 1337 1054 1337 1054 1358 1028 c 1,78,79
 1347 986 1347 986 1336.5 941 c 128,-1,80
 1326 896 1326 896 1313.5 841 c 128,-1,81
 1301 786 1301 786 1286 717 c 128,-1,82
 1271 648 1271 648 1251 559 c 0,83,84
 1244 529 1244 529 1241 504 c 128,-1,85
 1238 479 1238 479 1238 451 c 0,86,87
 1238 391 1238 391 1261 362.5 c 128,-1,88
 1284 334 1284 334 1337 334 c 0,89,90
 1384 334 1384 334 1430.5 368 c 128,-1,91
 1477 402 1477 402 1514 460.5 c 128,-1,92
 1551 519 1551 519 1574 598 c 128,-1,93
 1597 677 1597 677 1597 768 c 0,94,95
 1597 889 1597 889 1552.5 994 c 128,-1,96
 1508 1099 1508 1099 1427 1176 c 128,-1,97
 1346 1253 1346 1253 1232.5 1297 c 128,-1,98
 1119 1341 1119 1341 981 1341 c 0,99,100
 845 1341 845 1341 723.5 1291.5 c 128,-1,101
 602 1242 602 1242 510.5 1149 c 128,-1,102
 419 1056 419 1056 365.5 922.5 c 128,-1,103
 312 789 312 789 312 621 c 0,104,105
 312 469 312 469 364 344.5 c 128,-1,106
 416 220 416 220 507 131 c 128,-1,107
 598 42 598 42 721 -7 c 128,-1,108
 844 -56 844 -56 987 -56 c 0,109,110
 1253 -56 1253 -56 1491 90 c 1,22,-1
EndSplineSet
EndChar

StartChar: A
Encoding: 65 65 36
Width: 1623
Flags: W
LayerCount: 2
Fore
SplineSet
875 1411 m 1,0,1
 929 1384 929 1384 970 1350 c 128,-1,2
 1011 1316 1011 1316 1031 1263 c 0,3,4
 1095 1090 1095 1090 1149.5 945 c 128,-1,5
 1204 800 1204 800 1249.5 677 c 128,-1,6
 1295 554 1295 554 1333 452 c 128,-1,7
 1371 350 1371 350 1404 263 c 0,8,9
 1415 233 1415 233 1423 212.5 c 128,-1,10
 1431 192 1431 192 1437 178 c 128,-1,11
 1443 164 1443 164 1447.5 155.5 c 128,-1,12
 1452 147 1452 147 1456 141 c 1,13,14
 1466 139 1466 139 1477 137 c 128,-1,15
 1488 135 1488 135 1504 133.5 c 128,-1,16
 1520 132 1520 132 1542 130.5 c 128,-1,17
 1564 129 1564 129 1596 127 c 1,18,-1
 1623 -13 l 1,19,20
 1517 -4 1517 -4 1438 -2 c 128,-1,21
 1359 0 1359 0 1307 0 c 0,22,23
 1288 0 1288 0 1255.5 -0.5 c 128,-1,24
 1223 -1 1223 -1 1182 -2.5 c 128,-1,25
 1141 -4 1141 -4 1094.5 -6.5 c 128,-1,26
 1048 -9 1048 -9 1001 -13 c 1,27,-1
 991 120 l 1,28,29
 1010 120 1010 120 1028 122 c 128,-1,30
 1046 124 1046 124 1060.5 127 c 128,-1,31
 1075 130 1075 130 1084 135.5 c 128,-1,32
 1093 141 1093 141 1093 149 c 1,33,34
 1088 179 1088 179 1078.5 212.5 c 128,-1,35
 1069 246 1069 246 1056 281 c 2,36,-1
 1010 407 l 1,37,-1
 549 407 l 1,38,-1
 511 286 l 2,39,40
 497 244 497 244 490 214 c 128,-1,41
 483 184 483 184 483 159 c 0,42,43
 483 147 483 147 495 140 c 128,-1,44
 507 133 507 133 523.5 129.5 c 128,-1,45
 540 126 540 126 558.5 124.5 c 128,-1,46
 577 123 577 123 591 122 c 1,47,-1
 574 -13 l 1,48,49
 519 -5 519 -5 455 -2.5 c 128,-1,50
 391 0 391 0 317 0 c 0,51,52
 219 0 219 0 143.5 -2.5 c 128,-1,53
 68 -5 68 -5 4 -13 c 1,54,-1
 37 124 l 1,55,-1
 74 126 l 1,56,57
 108 126 108 126 131.5 135 c 128,-1,58
 155 144 155 144 171 160.5 c 128,-1,59
 187 177 187 177 198.5 200.5 c 128,-1,60
 210 224 210 224 221 253 c 0,61,62
 264 370 264 370 319.5 513 c 128,-1,63
 375 656 375 656 435 810 c 128,-1,64
 495 964 495 964 557 1120 c 128,-1,65
 619 1276 619 1276 675 1419 c 1,66,-1
 782 1419 l 2,67,68
 813 1419 813 1419 834 1417 c 128,-1,69
 855 1415 855 1415 875 1411 c 1,0,1
781 1144 m 1,70,-1
 774 1144 l 1,71,-1
 581 534 l 1,72,-1
 970 534 l 1,73,74
 949 601 949 601 925.5 676.5 c 128,-1,75
 902 752 902 752 878 831 c 128,-1,76
 854 910 854 910 829.5 989.5 c 128,-1,77
 805 1069 805 1069 781 1144 c 1,70,-1
EndSplineSet
EndChar

StartChar: B
Encoding: 66 66 37
Width: 1484
Flags: W
LayerCount: 2
Fore
SplineSet
287 267 m 2,0,-1
 287 1124 l 2,1,2
 287 1202 287 1202 275 1250 c 1,3,4
 254 1251 254 1251 231.5 1251.5 c 128,-1,5
 209 1252 209 1252 185 1252 c 0,6,7
 156 1252 156 1252 126.5 1251.5 c 128,-1,8
 97 1251 97 1251 68 1250 c 1,9,-1
 68 1389 l 1,10,11
 225 1405 225 1405 402 1413 c 128,-1,12
 579 1421 579 1421 788 1421 c 0,13,14
 1349 1421 1349 1421 1349 1039 c 0,15,16
 1349 987 1349 987 1330 938 c 128,-1,17
 1311 889 1311 889 1275.5 847.5 c 128,-1,18
 1240 806 1240 806 1189 775 c 128,-1,19
 1138 744 1138 744 1074 727 c 1,20,21
 1384 664 1384 664 1384 388 c 0,22,23
 1384 294 1384 294 1354.5 228.5 c 128,-1,24
 1325 163 1325 163 1272.5 119.5 c 128,-1,25
 1220 76 1220 76 1148.5 51 c 128,-1,26
 1077 26 1077 26 992.5 13.5 c 128,-1,27
 908 1 908 1 814.5 -2 c 128,-1,28
 721 -5 721 -5 626 -5 c 0,29,30
 480 -5 480 -5 346.5 -3.5 c 128,-1,31
 213 -2 213 -2 85 -2 c 1,32,-1
 85 146 l 1,33,-1
 165 146 l 2,34,35
 189 146 189 146 211 146.5 c 128,-1,36
 233 147 233 147 253 150 c 1,37,38
 276 161 276 161 281.5 193 c 128,-1,39
 287 225 287 225 287 267 c 2,0,-1
1028 1033 m 0,40,41
 1028 1152 1028 1152 961.5 1211 c 128,-1,42
 895 1270 895 1270 744 1270 c 0,43,44
 709 1270 709 1270 685.5 1269.5 c 128,-1,45
 662 1269 662 1269 646.5 1268 c 128,-1,46
 631 1267 631 1267 622.5 1266 c 128,-1,47
 614 1265 614 1265 609 1265 c 1,48,-1
 609 789 l 1,49,50
 632 788 632 788 655 787 c 128,-1,51
 678 786 678 786 702 786 c 0,52,53
 777 786 777 786 837.5 800.5 c 128,-1,54
 898 815 898 815 940.5 845.5 c 128,-1,55
 983 876 983 876 1005.5 922.5 c 128,-1,56
 1028 969 1028 969 1028 1033 c 0,40,41
609 644 m 1,57,-1
 609 146 l 1,58,59
 706 143 706 143 794 143 c 0,60,61
 931 143 931 143 994.5 205 c 128,-1,62
 1058 267 1058 267 1058 381 c 0,63,64
 1058 460 1058 460 1035 511.5 c 128,-1,65
 1012 563 1012 563 964 593 c 128,-1,66
 916 623 916 623 842.5 634.5 c 128,-1,67
 769 646 769 646 668 646 c 0,68,69
 652 646 652 646 637 645.5 c 128,-1,70
 622 645 622 645 609 644 c 1,57,-1
EndSplineSet
EndChar

StartChar: C
Encoding: 67 67 38
Width: 1446
Flags: W
LayerCount: 2
Fore
SplineSet
1351 263 m 1,0,-1
 1370 96 l 1,1,2
 1259 31 1259 31 1128.5 -2.5 c 128,-1,3
 998 -36 998 -36 842 -36 c 0,4,5
 679 -36 679 -36 545 9.5 c 128,-1,6
 411 55 411 55 315.5 144.5 c 128,-1,7
 220 234 220 234 167.5 366.5 c 128,-1,8
 115 499 115 499 115 673 c 0,9,10
 115 857 115 857 165.5 999.5 c 128,-1,11
 216 1142 216 1142 312 1239 c 128,-1,12
 408 1336 408 1336 547.5 1386 c 128,-1,13
 687 1436 687 1436 865 1436 c 0,14,15
 938 1436 938 1436 1007 1427 c 128,-1,16
 1076 1418 1076 1418 1138.5 1402 c 128,-1,17
 1201 1386 1201 1386 1254 1364.5 c 128,-1,18
 1307 1343 1307 1343 1348 1319 c 1,19,-1
 1325 1009 l 1,20,-1
 1135 1009 l 1,21,22
 1123 1060 1123 1060 1101.5 1110 c 128,-1,23
 1080 1160 1080 1160 1047 1199.5 c 128,-1,24
 1014 1239 1014 1239 968 1264 c 128,-1,25
 922 1289 922 1289 861 1289 c 0,26,27
 758 1289 758 1289 682.5 1248.5 c 128,-1,28
 607 1208 607 1208 557 1133 c 128,-1,29
 507 1058 507 1058 482.5 952 c 128,-1,30
 458 846 458 846 458 715 c 0,31,32
 458 421 458 421 564 274 c 128,-1,33
 670 127 670 127 863 127 c 0,34,35
 928 127 928 127 989 137 c 128,-1,36
 1050 147 1050 147 1110 165 c 128,-1,37
 1170 183 1170 183 1229.5 208 c 128,-1,38
 1289 233 1289 233 1351 263 c 1,0,-1
EndSplineSet
EndChar

StartChar: D
Encoding: 68 68 39
Width: 1663
Flags: W
LayerCount: 2
Fore
SplineSet
599 1262 m 1,0,-1
 599 148 l 1,1,2
 609 146 609 146 618.5 146 c 128,-1,3
 628 146 628 146 638 146 c 0,4,5
 787 146 787 146 894.5 174 c 128,-1,6
 1002 202 1002 202 1071 267.5 c 128,-1,7
 1140 333 1140 333 1173 439.5 c 128,-1,8
 1206 546 1206 546 1206 703 c 0,9,10
 1206 848 1206 848 1183 954 c 128,-1,11
 1160 1060 1160 1060 1108.5 1129 c 128,-1,12
 1057 1198 1057 1198 973 1231.5 c 128,-1,13
 889 1265 889 1265 768 1265 c 0,14,15
 728 1265 728 1265 686.5 1263.5 c 128,-1,16
 645 1262 645 1262 599 1262 c 1,0,-1
594 0 m 0,17,18
 463 0 463 0 336 -2.5 c 128,-1,19
 209 -5 209 -5 79 -7 c 1,20,-1
 79 139 l 1,21,-1
 155 140 l 2,22,23
 179 140 179 140 202 141.5 c 128,-1,24
 225 143 225 143 247 148 c 1,25,26
 269 161 269 161 275 192 c 128,-1,27
 281 223 281 223 281 267 c 2,28,-1
 281 1120 l 2,29,30
 281 1160 281 1160 277.5 1191.5 c 128,-1,31
 274 1223 274 1223 269 1249 c 1,32,33
 246 1253 246 1253 220.5 1253.5 c 128,-1,34
 195 1254 195 1254 168 1254 c 2,35,-1
 68 1254 l 1,36,-1
 68 1392 l 1,37,38
 221 1406 221 1406 401 1413.5 c 128,-1,39
 581 1421 581 1421 800 1421 c 0,40,41
 971 1421 971 1421 1109 1383.5 c 128,-1,42
 1247 1346 1247 1346 1344.5 1260.5 c 128,-1,43
 1442 1175 1442 1175 1495 1037 c 128,-1,44
 1548 899 1548 899 1548 697 c 0,45,46
 1548 550 1548 550 1515.5 441.5 c 128,-1,47
 1483 333 1483 333 1423.5 255.5 c 128,-1,48
 1364 178 1364 178 1278.5 128.5 c 128,-1,49
 1193 79 1193 79 1087 50.5 c 128,-1,50
 981 22 981 22 856.5 11 c 128,-1,51
 732 0 732 0 594 0 c 0,17,18
EndSplineSet
EndChar

StartChar: E
Encoding: 69 69 40
Width: 1409
Flags: W
LayerCount: 2
Fore
SplineSet
664 1413 m 2,0,-1
 1267 1413 l 1,1,-1
 1292 1284 l 2,2,3
 1301 1235 1301 1235 1309 1187 c 128,-1,4
 1317 1139 1317 1139 1322 1107 c 1,5,-1
 1138 1090 l 1,6,7
 1132 1126 1132 1126 1124.5 1162 c 128,-1,8
 1117 1198 1117 1198 1103 1235 c 1,9,10
 1054 1248 1054 1248 997 1253.5 c 128,-1,11
 940 1259 940 1259 867 1259 c 0,12,13
 848 1259 848 1259 824.5 1259 c 128,-1,14
 801 1259 801 1259 770 1258.5 c 128,-1,15
 739 1258 739 1258 698 1257 c 128,-1,16
 657 1256 657 1256 603 1255 c 1,17,-1
 603 788 l 1,18,-1
 835 788 l 2,19,20
 867 788 867 788 886.5 793 c 128,-1,21
 906 798 906 798 918.5 811.5 c 128,-1,22
 931 825 931 825 939.5 849 c 128,-1,23
 948 873 948 873 958 910 c 1,24,-1
 1058 910 l 1,25,26
 1058 810 1058 810 1056 710.5 c 128,-1,27
 1054 611 1054 611 1051 517 c 1,28,29
 1042 516 1042 516 1033 516 c 128,-1,30
 1024 516 1024 516 1015 516 c 0,31,32
 998 516 998 516 980.5 516.5 c 128,-1,33
 963 517 963 517 946 517 c 1,34,35
 935 557 935 557 925.5 583 c 128,-1,36
 916 609 916 609 904.5 624 c 128,-1,37
 893 639 893 639 879 644.5 c 128,-1,38
 865 650 865 650 846 650 c 2,39,-1
 603 650 l 1,40,-1
 603 146 l 1,41,-1
 974 146 l 2,42,43
 1021 146 1021 146 1056.5 152.5 c 128,-1,44
 1092 159 1092 159 1109 170 c 1,45,46
 1117 192 1117 192 1124 233 c 128,-1,47
 1131 274 1131 274 1139 343 c 1,48,49
 1183 342 1183 342 1231.5 341.5 c 128,-1,50
 1280 341 1280 341 1333 341 c 1,51,-1
 1330 214 l 2,52,53
 1328 164 1328 164 1325.5 112.5 c 128,-1,54
 1323 61 1323 61 1320 18 c 1,55,56
 1276 11 1276 11 1232.5 6 c 128,-1,57
 1189 1 1189 1 1141 -2 c 128,-1,58
 1093 -5 1093 -5 1039.5 -6.5 c 128,-1,59
 986 -8 986 -8 923 -8 c 0,60,61
 846 -8 846 -8 778 -7 c 128,-1,62
 710 -6 710 -6 647 -4.5 c 128,-1,63
 584 -3 584 -3 525.5 -1.5 c 128,-1,64
 467 0 467 0 410 0 c 0,65,66
 316 0 316 0 235.5 -1 c 128,-1,67
 155 -2 155 -2 74 -7 c 1,68,-1
 74 146 l 1,69,-1
 186 146 l 2,70,71
 210 146 210 146 231.5 146.5 c 128,-1,72
 253 147 253 147 273 150 c 1,73,74
 278 170 278 170 281 194.5 c 128,-1,75
 284 219 284 219 284 251 c 2,76,-1
 284 1144 l 2,77,78
 284 1178 284 1178 280.5 1203 c 128,-1,79
 277 1228 277 1228 272 1248 c 1,80,81
 253 1252 253 1252 232 1252.5 c 128,-1,82
 211 1253 211 1253 187 1253 c 2,83,-1
 68 1253 l 1,84,-1
 68 1386 l 1,85,86
 208 1401 208 1401 358.5 1407 c 128,-1,87
 509 1413 509 1413 664 1413 c 2,0,-1
EndSplineSet
EndChar

StartChar: F
Encoding: 70 70 41
Width: 1329
Flags: W
LayerCount: 2
Fore
SplineSet
593 1255 m 1,0,-1
 593 791 l 1,1,-1
 811 791 l 2,2,3
 845 791 845 791 865 796 c 128,-1,4
 885 801 885 801 898 814 c 128,-1,5
 911 827 911 827 919.5 850.5 c 128,-1,6
 928 874 928 874 939 910 c 1,7,-1
 1038 910 l 1,8,9
 1038 810 1038 810 1036.5 710.5 c 128,-1,10
 1035 611 1035 611 1032 517 c 1,11,12
 1027 517 1027 517 1021.5 516.5 c 128,-1,13
 1016 516 1016 516 1010 516 c 0,14,15
 997 516 997 516 978 516.5 c 128,-1,16
 959 517 959 517 927 517 c 1,17,18
 916 557 916 557 906 582 c 128,-1,19
 896 607 896 607 884.5 621.5 c 128,-1,20
 873 636 873 636 859 641.5 c 128,-1,21
 845 647 845 647 826 647 c 2,22,-1
 593 647 l 1,23,-1
 593 259 l 2,24,25
 593 224 593 224 595.5 197.5 c 128,-1,26
 598 171 598 171 603 150 c 1,27,28
 621 147 621 147 640.5 146.5 c 128,-1,29
 660 146 660 146 682 146 c 2,30,-1
 779 146 l 1,31,-1
 779 -13 l 1,32,33
 683 -8 683 -8 600 -4 c 128,-1,34
 517 0 517 0 439 0 c 0,35,36
 354 0 354 0 266 -4 c 128,-1,37
 178 -8 178 -8 78 -13 c 1,38,-1
 78 146 l 1,39,-1
 181 146 l 2,40,41
 204 146 204 146 224 146.5 c 128,-1,42
 244 147 244 147 263 150 c 1,43,44
 268 168 268 168 271 194.5 c 128,-1,45
 274 221 274 221 274 257 c 0,46,47
 274 480 274 480 273.5 701.5 c 128,-1,48
 273 923 273 923 273 1146 c 0,49,50
 273 1179 273 1179 270.5 1205 c 128,-1,51
 268 1231 268 1231 263 1248 c 1,52,53
 244 1252 244 1252 224.5 1252.5 c 128,-1,54
 205 1253 205 1253 182 1253 c 2,55,-1
 68 1253 l 1,56,-1
 68 1387 l 1,57,58
 157 1395 157 1395 236.5 1400 c 128,-1,59
 316 1405 316 1405 396.5 1407.5 c 128,-1,60
 477 1410 477 1410 564 1411.5 c 128,-1,61
 651 1413 651 1413 754.5 1413 c 128,-1,62
 858 1413 858 1413 983 1413 c 128,-1,63
 1108 1413 1108 1413 1265 1413 c 1,64,-1
 1286 1280 l 2,65,66
 1294 1229 1294 1229 1300.5 1180 c 128,-1,67
 1307 1131 1307 1131 1310 1097 c 1,68,-1
 1127 1085 l 1,69,70
 1125 1109 1125 1109 1115 1149 c 128,-1,71
 1105 1189 1105 1189 1088 1239 c 1,72,73
 1063 1246 1063 1246 1039.5 1250 c 128,-1,74
 1016 1254 1016 1254 991.5 1256 c 128,-1,75
 967 1258 967 1258 939 1258.5 c 128,-1,76
 911 1259 911 1259 877 1259 c 0,77,78
 855 1259 855 1259 829.5 1259 c 128,-1,79
 804 1259 804 1259 770.5 1258.5 c 128,-1,80
 737 1258 737 1258 693.5 1257 c 128,-1,81
 650 1256 650 1256 593 1255 c 1,0,-1
EndSplineSet
EndChar

StartChar: G
Encoding: 71 71 42
Width: 1495
Flags: W
LayerCount: 2
Fore
SplineSet
929 1436 m 0,0,1
 999 1436 999 1436 1068 1426 c 128,-1,2
 1137 1416 1137 1416 1198 1400 c 128,-1,3
 1259 1384 1259 1384 1308 1363.5 c 128,-1,4
 1357 1343 1357 1343 1387 1321 c 1,5,-1
 1362 1005 l 1,6,7
 1315 1005 1315 1005 1269.5 1005.5 c 128,-1,8
 1224 1006 1224 1006 1177 1006 c 1,9,10
 1160 1075 1160 1075 1136.5 1128.5 c 128,-1,11
 1113 1182 1113 1182 1079 1218 c 128,-1,12
 1045 1254 1045 1254 998.5 1272.5 c 128,-1,13
 952 1291 952 1291 889 1291 c 0,14,15
 781 1291 781 1291 700 1251.5 c 128,-1,16
 619 1212 619 1212 565 1135.5 c 128,-1,17
 511 1059 511 1059 484 948 c 128,-1,18
 457 837 457 837 457 694 c 0,19,20
 457 571 457 571 483.5 468.5 c 128,-1,21
 510 366 510 366 561.5 291.5 c 128,-1,22
 613 217 613 217 690.5 176 c 128,-1,23
 768 135 768 135 870 135 c 0,24,25
 1008 135 1008 135 1100 173 c 1,26,-1
 1100 394 l 2,27,28
 1100 429 1100 429 1097.5 457.5 c 128,-1,29
 1095 486 1095 486 1089 506 c 1,30,31
 1065 511 1065 511 1038 512.5 c 128,-1,32
 1011 514 1011 514 982 514 c 2,33,-1
 870 514 l 1,34,-1
 870 637 l 1,35,36
 915 642 915 642 966 645.5 c 128,-1,37
 1017 649 1017 649 1077.5 651.5 c 128,-1,38
 1138 654 1138 654 1209 655.5 c 128,-1,39
 1280 657 1280 657 1366 657 c 0,40,41
 1378 657 1378 657 1390 656.5 c 128,-1,42
 1402 656 1402 656 1416 656 c 1,43,-1
 1414 563 l 1,44,45
 1412 533 1412 533 1412 503.5 c 128,-1,46
 1412 474 1412 474 1412 452 c 2,47,-1
 1412 118 l 1,48,49
 1306 49 1306 49 1170 9.5 c 128,-1,50
 1034 -30 1034 -30 868 -30 c 0,51,52
 703 -30 703 -30 564.5 13.5 c 128,-1,53
 426 57 426 57 326.5 145 c 128,-1,54
 227 233 227 233 171 365 c 128,-1,55
 115 497 115 497 115 673 c 0,56,57
 115 868 115 868 172.5 1011.5 c 128,-1,58
 230 1155 230 1155 336.5 1249.5 c 128,-1,59
 443 1344 443 1344 593 1390 c 128,-1,60
 743 1436 743 1436 929 1436 c 0,0,1
EndSplineSet
EndChar

StartChar: H
Encoding: 72 72 43
Width: 1733
Flags: W
LayerCount: 2
Fore
SplineSet
1148 257 m 2,0,-1
 1148 651 l 1,1,-1
 585 651 l 1,2,-1
 585 259 l 2,3,4
 585 224 585 224 587.5 197.5 c 128,-1,5
 590 171 590 171 595 150 c 1,6,7
 614 147 614 147 633 146.5 c 128,-1,8
 652 146 652 146 674 146 c 2,9,-1
 771 146 l 1,10,-1
 771 -13 l 1,11,12
 680 -5 680 -5 600.5 -2.5 c 128,-1,13
 521 0 521 0 447 0 c 0,14,15
 358 0 358 0 265.5 -2.5 c 128,-1,16
 173 -5 173 -5 70 -13 c 1,17,-1
 70 146 l 1,18,-1
 173 146 l 2,19,20
 196 146 196 146 216 146.5 c 128,-1,21
 236 147 236 147 255 150 c 1,22,23
 266 189 266 189 266 257 c 2,24,-1
 264 1153 l 2,25,26
 264 1188 264 1188 261 1214 c 128,-1,27
 258 1240 258 1240 253 1260 c 1,28,29
 235 1264 235 1264 214.5 1264.5 c 128,-1,30
 194 1265 194 1265 171 1265 c 2,31,-1
 68 1265 l 1,32,-1
 68 1400 l 1,33,34
 154 1410 154 1410 237.5 1414.5 c 128,-1,35
 321 1419 321 1419 411 1419 c 0,36,37
 520 1419 520 1419 611 1416 c 128,-1,38
 702 1413 702 1413 771 1403 c 1,39,-1
 771 1265 l 1,40,-1
 672 1265 l 2,41,42
 651 1265 651 1265 631.5 1264.5 c 128,-1,43
 612 1264 612 1264 593 1260 c 1,44,45
 584 1221 584 1221 584 1161 c 2,46,-1
 585 808 l 1,47,-1
 1148 808 l 1,48,-1
 1147 1153 l 2,49,50
 1146 1188 1146 1188 1143.5 1214 c 128,-1,51
 1141 1240 1141 1240 1136 1260 c 1,52,53
 1119 1264 1119 1264 1099 1264.5 c 128,-1,54
 1079 1265 1079 1265 1058 1265 c 2,55,-1
 960 1265 l 1,56,-1
 960 1400 l 1,57,58
 1047 1410 1047 1410 1130.5 1414.5 c 128,-1,59
 1214 1419 1214 1419 1303 1419 c 0,60,61
 1413 1419 1413 1419 1503.5 1416 c 128,-1,62
 1594 1413 1594 1413 1664 1403 c 1,63,-1
 1664 1265 l 1,64,-1
 1558 1265 l 2,65,66
 1535 1265 1535 1265 1515 1264.5 c 128,-1,67
 1495 1264 1495 1264 1476 1260 c 1,68,69
 1471 1240 1471 1240 1468.5 1214 c 128,-1,70
 1466 1188 1466 1188 1466 1153 c 2,71,-1
 1467 259 l 2,72,73
 1467 224 1467 224 1469.5 197.5 c 128,-1,74
 1472 171 1472 171 1477 150 c 1,75,76
 1496 147 1496 147 1516 146.5 c 128,-1,77
 1536 146 1536 146 1559 146 c 2,78,-1
 1663 146 l 1,79,-1
 1663 -13 l 1,80,81
 1577 -5 1577 -5 1502 -2.5 c 128,-1,82
 1427 0 1427 0 1357 0 c 2,83,-1
 1292 0 l 2,84,85
 1215 0 1215 0 1134 -2.5 c 128,-1,86
 1053 -5 1053 -5 962 -13 c 1,87,-1
 962 146 l 1,88,-1
 1058 146 l 2,89,90
 1080 146 1080 146 1100 146.5 c 128,-1,91
 1120 147 1120 147 1137 150 c 1,92,93
 1143 168 1143 168 1145.5 194.5 c 128,-1,94
 1148 221 1148 221 1148 257 c 2,0,-1
EndSplineSet
EndChar

StartChar: I
Encoding: 73 73 44
Width: 857
Flags: W
LayerCount: 2
Fore
SplineSet
68 -13 m 1,0,-1
 68 146 l 1,1,-1
 174 146 l 2,2,3
 197 146 197 146 217.5 146.5 c 128,-1,4
 238 147 238 147 258 150 c 1,5,6
 269 189 269 189 269 257 c 2,7,-1
 269 1122 l 2,8,9
 269 1172 269 1172 267 1204 c 128,-1,10
 265 1236 265 1236 258 1260 c 1,11,12
 239 1264 239 1264 218.5 1264.5 c 128,-1,13
 198 1265 198 1265 175 1265 c 2,14,-1
 68 1265 l 1,15,-1
 68 1400 l 1,16,17
 156 1410 156 1410 241.5 1414.5 c 128,-1,18
 327 1419 327 1419 418 1419 c 0,19,20
 532 1419 532 1419 624.5 1416 c 128,-1,21
 717 1413 717 1413 789 1403 c 1,22,-1
 789 1265 l 1,23,-1
 682 1265 l 2,24,25
 659 1265 659 1265 638.5 1264.5 c 128,-1,26
 618 1264 618 1264 598 1260 c 1,27,28
 593 1240 593 1240 590.5 1215.5 c 128,-1,29
 588 1191 588 1191 588 1156 c 2,30,-1
 588 259 l 2,31,32
 588 224 588 224 590.5 197.5 c 128,-1,33
 593 171 593 171 598 150 c 1,34,35
 618 147 618 147 638.5 146.5 c 128,-1,36
 659 146 659 146 682 146 c 2,37,-1
 788 146 l 1,38,-1
 788 -13 l 1,39,40
 694 -5 694 -5 611 -2.5 c 128,-1,41
 528 0 528 0 453 0 c 0,42,43
 362 0 362 0 268 -2.5 c 128,-1,44
 174 -5 174 -5 68 -13 c 1,0,-1
EndSplineSet
EndChar

StartChar: J
Encoding: 74 74 45
Width: 986
Flags: W
LayerCount: 2
Fore
SplineSet
790 1153 m 2,0,-1
 790 341 l 2,1,2
 790 220 790 220 762 128 c 128,-1,3
 734 36 734 36 681 -26.5 c 128,-1,4
 628 -89 628 -89 551 -120.5 c 128,-1,5
 474 -152 474 -152 376 -152 c 0,6,7
 337 -152 337 -152 290 -148 c 128,-1,8
 243 -144 243 -144 196 -136 c 128,-1,9
 149 -128 149 -128 106.5 -116 c 128,-1,10
 64 -104 64 -104 34 -88 c 1,11,12
 33 -77 33 -77 36 -34 c 128,-1,13
 39 9 39 9 46 94 c 2,14,-1
 58 253 l 1,15,-1
 248 250 l 1,16,17
 251 215 251 215 255.5 178.5 c 128,-1,18
 260 142 260 142 264.5 109 c 128,-1,19
 269 76 269 76 272.5 49.5 c 128,-1,20
 276 23 276 23 277 9 c 1,21,22
 280 8 280 8 289.5 6 c 128,-1,23
 299 4 299 4 311 1.5 c 128,-1,24
 323 -1 323 -1 337 -2.5 c 128,-1,25
 351 -4 351 -4 364 -4 c 0,26,27
 400 -4 400 -4 422.5 9 c 128,-1,28
 445 22 445 22 458 45 c 128,-1,29
 471 68 471 68 476 100 c 128,-1,30
 481 132 481 132 481 171 c 0,31,32
 481 223 481 223 475.5 281 c 128,-1,33
 470 339 470 339 470 405 c 2,34,-1
 470 1154 l 2,35,36
 470 1222 470 1222 459 1260 c 1,37,38
 437 1265 437 1265 412 1265.5 c 128,-1,39
 387 1266 387 1266 360 1266 c 2,40,-1
 269 1266 l 1,41,-1
 269 1401 l 1,42,43
 373 1412 373 1412 469.5 1415.5 c 128,-1,44
 566 1419 566 1419 666 1419 c 0,45,46
 763 1419 763 1419 844.5 1415.5 c 128,-1,47
 926 1412 926 1412 991 1404 c 1,48,-1
 991 1266 l 1,49,-1
 898 1266 l 2,50,51
 872 1266 872 1266 847 1265.5 c 128,-1,52
 822 1265 822 1265 800 1260 c 1,53,54
 790 1224 790 1224 790 1153 c 2,0,-1
EndSplineSet
EndChar

StartChar: K
Encoding: 75 75 46
Width: 1644
Flags: W
LayerCount: 2
Fore
SplineSet
935 800 m 1,0,-1
 1320 303 l 2,1,2
 1337 281 1337 281 1348.5 265 c 128,-1,3
 1360 249 1360 249 1373 233 c 128,-1,4
 1386 217 1386 217 1404 197.5 c 128,-1,5
 1422 178 1422 178 1452 150 c 1,6,7
 1472 147 1472 147 1492.5 146.5 c 128,-1,8
 1513 146 1513 146 1535 146 c 2,9,-1
 1602 146 l 1,10,-1
 1638 -13 l 1,11,12
 1559 -7 1559 -7 1496 -3.5 c 128,-1,13
 1433 0 1433 0 1382 0 c 2,14,-1
 1325 0 l 2,15,16
 1225 0 1225 0 1126 -2.5 c 128,-1,17
 1027 -5 1027 -5 921 -13 c 1,18,-1
 916 146 l 1,19,-1
 944 146 l 2,20,21
 964 146 964 146 981.5 146.5 c 128,-1,22
 999 147 999 147 1013 150 c 1,23,24
 1004 173 1004 173 991.5 196 c 128,-1,25
 979 219 979 219 952 257 c 2,26,-1
 670 652 l 1,27,28
 659 664 659 664 652 676 c 128,-1,29
 645 688 645 688 638 699 c 2,30,-1
 617 731 l 1,31,-1
 643 761 l 1,32,33
 649 770 649 770 662 783 c 2,34,-1
 987 1125 l 2,35,36
 1032 1173 1032 1173 1063.5 1208.5 c 128,-1,37
 1095 1244 1095 1244 1097 1260 c 1,38,39
 1077 1264 1077 1264 1055 1264.5 c 128,-1,40
 1033 1265 1033 1265 1008 1265 c 2,41,-1
 934 1265 l 1,42,-1
 935 1400 l 1,43,44
 1044 1411 1044 1411 1141 1415 c 128,-1,45
 1238 1419 1238 1419 1336 1419 c 0,46,47
 1430 1419 1430 1419 1504 1415 c 128,-1,48
 1578 1411 1578 1411 1633 1403 c 1,49,-1
 1587 1265 l 1,50,-1
 1502 1265 l 2,51,52
 1475 1265 1475 1265 1451.5 1264.5 c 128,-1,53
 1428 1264 1428 1264 1402 1260 c 1,54,55
 1380 1242 1380 1242 1352 1216 c 128,-1,56
 1324 1190 1324 1190 1287 1153 c 2,57,-1
 1032 898 l 2,58,59
 1019 885 1019 885 1005 871 c 128,-1,60
 991 857 991 857 977.5 844 c 128,-1,61
 964 831 964 831 953 819.5 c 128,-1,62
 942 808 942 808 935 800 c 1,0,-1
588 1153 m 2,63,-1
 588 257 l 2,64,65
 588 224 588 224 591 197.5 c 128,-1,66
 594 171 594 171 599 150 c 1,67,68
 618 147 618 147 639 146.5 c 128,-1,69
 660 146 660 146 683 146 c 2,70,-1
 789 146 l 1,71,-1
 789 -13 l 1,72,73
 692 -5 692 -5 605 -2.5 c 128,-1,74
 518 0 518 0 435 0 c 0,75,76
 349 0 349 0 259 -2.5 c 128,-1,77
 169 -5 169 -5 69 -13 c 1,78,-1
 69 146 l 1,79,-1
 175 146 l 2,80,81
 198 146 198 146 218.5 146.5 c 128,-1,82
 239 147 239 147 258 150 c 1,83,84
 264 168 264 168 266.5 194.5 c 128,-1,85
 269 221 269 221 269 257 c 2,86,-1
 269 1153 l 2,87,88
 269 1188 269 1188 266 1214 c 128,-1,89
 263 1240 263 1240 258 1260 c 1,90,91
 239 1264 239 1264 218.5 1264.5 c 128,-1,92
 198 1265 198 1265 175 1265 c 2,93,-1
 68 1265 l 1,94,-1
 68 1400 l 1,95,96
 156 1410 156 1410 241.5 1414.5 c 128,-1,97
 327 1419 327 1419 418 1419 c 0,98,99
 532 1419 532 1419 624.5 1416 c 128,-1,100
 717 1413 717 1413 789 1403 c 1,101,-1
 789 1265 l 1,102,-1
 682 1265 l 2,103,104
 659 1265 659 1265 638.5 1264.5 c 128,-1,105
 618 1264 618 1264 598 1260 c 1,106,107
 593 1240 593 1240 590.5 1214 c 128,-1,108
 588 1188 588 1188 588 1153 c 2,63,-1
EndSplineSet
EndChar

StartChar: L
Encoding: 76 76 47
Width: 1286
Flags: W
LayerCount: 2
Fore
SplineSet
623 0 m 0,0,1
 435 0 435 0 305 -2.5 c 128,-1,2
 175 -5 175 -5 100 -13 c 1,3,-1
 98 146 l 1,4,-1
 175 146 l 2,5,6
 198 146 198 146 218.5 146.5 c 128,-1,7
 239 147 239 147 259 150 c 1,8,9
 264 184 264 184 266.5 218.5 c 128,-1,10
 269 253 269 253 269 290 c 2,11,-1
 269 1156 l 2,12,13
 269 1189 269 1189 266 1214.5 c 128,-1,14
 263 1240 263 1240 258 1260 c 1,15,16
 239 1264 239 1264 218.5 1264.5 c 128,-1,17
 198 1265 198 1265 175 1265 c 2,18,-1
 68 1265 l 1,19,-1
 68 1400 l 1,20,21
 156 1410 156 1410 241.5 1414.5 c 128,-1,22
 327 1419 327 1419 418 1419 c 0,23,24
 532 1419 532 1419 625.5 1416 c 128,-1,25
 719 1413 719 1413 791 1403 c 1,26,-1
 791 1265 l 1,27,-1
 683 1265 l 2,28,29
 660 1265 660 1265 639.5 1264.5 c 128,-1,30
 619 1264 619 1264 599 1260 c 1,31,32
 589 1223 589 1223 589 1156 c 2,33,-1
 589 146 l 1,34,-1
 884 146 l 2,35,36
 939 146 939 146 977.5 161.5 c 128,-1,37
 1016 177 1016 177 1044 208 c 128,-1,38
 1072 239 1072 239 1092 286 c 128,-1,39
 1112 333 1112 333 1129 396 c 1,40,-1
 1286 375 l 1,41,-1
 1247 0 l 1,42,43
 1160 -3 1160 -3 1076.5 -5 c 128,-1,44
 993 -7 993 -7 910 -7 c 0,45,46
 822 -7 822 -7 749.5 -3.5 c 128,-1,47
 677 0 677 0 623 0 c 0,0,1
EndSplineSet
EndChar

StartChar: M
Encoding: 77 77 48
Width: 2201
Flags: W
LayerCount: 2
Fore
SplineSet
1613 184 m 1,0,1
 1613 207 1613 207 1609.5 262 c 128,-1,2
 1606 317 1606 317 1600.5 390 c 128,-1,3
 1595 463 1595 463 1588.5 546.5 c 128,-1,4
 1582 630 1582 630 1575.5 711.5 c 128,-1,5
 1569 793 1569 793 1562.5 864.5 c 128,-1,6
 1556 936 1556 936 1552 984 c 1,7,8
 1540 942 1540 942 1515 865 c 128,-1,9
 1490 788 1490 788 1458.5 693.5 c 128,-1,10
 1427 599 1427 599 1392 495.5 c 128,-1,11
 1357 392 1357 392 1324.5 296.5 c 128,-1,12
 1292 201 1292 201 1264.5 123 c 128,-1,13
 1237 45 1237 45 1222 1 c 1,14,-1
 947 1 l 1,15,16
 919 78 919 78 886 171.5 c 128,-1,17
 853 265 853 265 819 362.5 c 128,-1,18
 785 460 785 460 752 556.5 c 128,-1,19
 719 653 719 653 690.5 735.5 c 128,-1,20
 662 818 662 818 640 882 c 128,-1,21
 618 946 618 946 607 980 c 1,22,23
 605 957 605 957 601 913.5 c 128,-1,24
 597 870 597 870 592.5 813.5 c 128,-1,25
 588 757 588 757 583 692 c 128,-1,26
 578 627 578 627 573 561.5 c 128,-1,27
 568 496 568 496 563.5 434.5 c 128,-1,28
 559 373 559 373 555 324 c 128,-1,29
 551 275 551 275 549 242.5 c 128,-1,30
 547 210 547 210 546 203 c 1,31,-1
 546 194 l 2,32,33
 546 164 546 164 555 155 c 1,34,35
 572 150 572 150 594 148 c 128,-1,36
 616 146 616 146 644 146 c 2,37,-1
 731 146 l 1,38,-1
 716 -13 l 1,39,40
 625 -5 625 -5 550.5 -2.5 c 128,-1,41
 476 0 476 0 411 0 c 0,42,43
 326 0 326 0 242.5 -3 c 128,-1,44
 159 -6 159 -6 68 -15 c 1,45,-1
 88 146 l 1,46,-1
 184 146 l 2,47,48
 210 146 210 146 235 146.5 c 128,-1,49
 260 147 260 147 283 150 c 1,50,51
 291 173 291 173 298.5 199 c 128,-1,52
 306 225 306 225 311 256 c 1,53,54
 318 319 318 319 326 395.5 c 128,-1,55
 334 472 334 472 342 554 c 128,-1,56
 350 636 350 636 357.5 720.5 c 128,-1,57
 365 805 365 805 372 883.5 c 128,-1,58
 379 962 379 962 385.5 1031.5 c 128,-1,59
 392 1101 392 1101 397 1155 c 0,60,61
 399 1171 399 1171 398.5 1182.5 c 128,-1,62
 398 1194 398 1194 398 1204 c 0,63,64
 398 1221 398 1221 396 1234 c 128,-1,65
 394 1247 394 1247 392 1257 c 1,66,67
 372 1262 372 1262 351 1263.5 c 128,-1,68
 330 1265 330 1265 303 1265 c 2,69,-1
 184 1265 l 1,70,-1
 184 1403 l 1,71,72
 223 1407 223 1407 262 1410 c 128,-1,73
 301 1413 301 1413 342 1414.5 c 128,-1,74
 383 1416 383 1416 428 1417 c 128,-1,75
 473 1418 473 1418 523 1418 c 0,76,77
 676 1418 676 1418 766 1400 c 1,78,79
 783 1357 783 1357 805.5 1294 c 128,-1,80
 828 1231 828 1231 853.5 1156.5 c 128,-1,81
 879 1082 879 1082 906.5 1000.5 c 128,-1,82
 934 919 934 919 961 839 c 128,-1,83
 988 759 988 759 1012.5 685 c 128,-1,84
 1037 611 1037 611 1057.5 551 c 128,-1,85
 1078 491 1078 491 1092 449.5 c 128,-1,86
 1106 408 1106 408 1112 393 c 1,87,88
 1153 516 1153 516 1192 632 c 128,-1,89
 1231 748 1231 748 1267 852 c 128,-1,90
 1303 956 1303 956 1334 1046 c 128,-1,91
 1365 1136 1365 1136 1390.5 1207 c 128,-1,92
 1416 1278 1416 1278 1433.5 1327.5 c 128,-1,93
 1451 1377 1451 1377 1460 1400 c 1,94,95
 1483 1405 1483 1405 1514.5 1408.5 c 128,-1,96
 1546 1412 1546 1412 1581 1414 c 128,-1,97
 1616 1416 1616 1416 1654 1416.5 c 128,-1,98
 1692 1417 1692 1417 1728 1417 c 0,99,100
 1813 1417 1813 1417 1886.5 1413 c 128,-1,101
 1960 1409 1960 1409 2032 1403 c 1,102,-1
 2037 1265 l 1,103,-1
 1962 1265 l 2,104,105
 1930 1265 1930 1265 1899 1263 c 128,-1,106
 1868 1261 1868 1261 1845 1255 c 1,107,108
 1845 1251 1845 1251 1844.5 1247.5 c 128,-1,109
 1844 1244 1844 1244 1844 1240 c 0,110,111
 1844 1223 1844 1223 1845 1204 c 128,-1,112
 1846 1185 1846 1185 1849 1159 c 1,113,114
 1854 1089 1854 1089 1861 1008.5 c 128,-1,115
 1868 928 1868 928 1875.5 843.5 c 128,-1,116
 1883 759 1883 759 1890 674 c 128,-1,117
 1897 589 1897 589 1904 510 c 128,-1,118
 1911 431 1911 431 1917 362.5 c 128,-1,119
 1923 294 1923 294 1928 242 c 0,120,121
 1930 212 1930 212 1936 191 c 128,-1,122
 1942 170 1942 170 1947 152 c 1,123,124
 1973 148 1973 148 2000.5 147 c 128,-1,125
 2028 146 2028 146 2060 146 c 2,126,-1
 2132 146 l 1,127,-1
 2152 -15 l 1,128,129
 2074 -7 2074 -7 1996 -3.5 c 128,-1,130
 1918 0 1918 0 1831 0 c 0,131,132
 1733 0 1733 0 1641.5 -2.5 c 128,-1,133
 1550 -5 1550 -5 1461 -13 c 1,134,-1
 1460 146 l 1,135,-1
 1530 146 l 2,136,137
 1571 146 1571 146 1588 153.5 c 128,-1,138
 1605 161 1605 161 1613 184 c 1,0,1
EndSplineSet
EndChar

StartChar: N
Encoding: 78 78 49
Width: 1708
Flags: W
LayerCount: 2
Fore
SplineSet
290 257 m 0,0,1
 290 483 290 483 289.5 705.5 c 128,-1,2
 289 928 289 928 289 1153 c 0,3,4
 289 1223 289 1223 279 1260 c 1,5,6
 259 1264 259 1264 237 1264.5 c 128,-1,7
 215 1265 215 1265 192 1265 c 2,8,-1
 68 1265 l 1,9,-1
 68 1397 l 1,10,11
 111 1401 111 1401 152.5 1405 c 128,-1,12
 194 1409 194 1409 237 1412 c 128,-1,13
 280 1415 280 1415 326 1416.5 c 128,-1,14
 372 1418 372 1418 425 1418 c 0,15,16
 470 1418 470 1418 513 1415 c 128,-1,17
 556 1412 556 1412 604 1401 c 1,18,19
 675 1293 675 1293 751.5 1175 c 128,-1,20
 828 1057 828 1057 908 933 c 128,-1,21
 988 809 988 809 1070 680.5 c 128,-1,22
 1152 552 1152 552 1233 423 c 1,23,24
 1233 472 1233 472 1232.5 533 c 128,-1,25
 1232 594 1232 594 1231.5 661 c 128,-1,26
 1231 728 1231 728 1230 797.5 c 128,-1,27
 1229 867 1229 867 1228.5 931.5 c 128,-1,28
 1228 996 1228 996 1227 1053.5 c 128,-1,29
 1226 1111 1226 1111 1226 1153 c 0,30,31
 1226 1226 1226 1226 1214 1261 c 1,32,33
 1194 1264 1194 1264 1172.5 1265 c 128,-1,34
 1151 1266 1151 1266 1128 1266 c 2,35,-1
 1010 1266 l 1,36,-1
 1010 1402 l 1,37,38
 1073 1411 1073 1411 1150.5 1415 c 128,-1,39
 1228 1419 1228 1419 1327 1419 c 0,40,41
 1417 1419 1417 1419 1499 1416.5 c 128,-1,42
 1581 1414 1581 1414 1651 1405 c 1,43,-1
 1651 1266 l 1,44,-1
 1565 1266 l 2,45,46
 1539 1266 1539 1266 1515 1265 c 128,-1,47
 1491 1264 1491 1264 1468 1261 c 1,48,49
 1458 1224 1458 1224 1458 1154 c 0,50,51
 1457 1016 1457 1016 1455.5 868.5 c 128,-1,52
 1454 721 1454 721 1452 572 c 128,-1,53
 1450 423 1450 423 1447.5 276 c 128,-1,54
 1445 129 1445 129 1443 -7 c 1,55,-1
 1314 -7 l 2,56,57
 1270 -7 1270 -7 1231 -4.5 c 128,-1,58
 1192 -2 1192 -2 1146 9 c 1,59,-1
 528 984 l 1,60,61
 529 923 529 923 530 841 c 128,-1,62
 531 759 531 759 532 664.5 c 128,-1,63
 533 570 533 570 534 466.5 c 128,-1,64
 535 363 535 363 536 260 c 0,65,66
 536 230 536 230 539 198.5 c 128,-1,67
 542 167 542 167 546 150 c 1,68,69
 565 147 565 147 586.5 146.5 c 128,-1,70
 608 146 608 146 631 146 c 2,71,-1
 742 146 l 1,72,-1
 742 -14 l 1,73,74
 648 -5 648 -5 570.5 -2.5 c 128,-1,75
 493 0 493 0 426 0 c 0,76,77
 345 0 345 0 261 -2.5 c 128,-1,78
 177 -5 177 -5 80 -14 c 1,79,-1
 80 146 l 1,80,-1
 192 146 l 2,81,82
 215 146 215 146 237 146.5 c 128,-1,83
 259 147 259 147 279 150 c 1,84,85
 290 186 290 186 290 257 c 0,0,1
EndSplineSet
EndChar

StartChar: O
Encoding: 79 79 50
Width: 1625
Flags: W
LayerCount: 2
Fore
SplineSet
1510 702 m 256,0,1
 1510 529 1510 529 1461.5 393.5 c 128,-1,2
 1413 258 1413 258 1322 163.5 c 128,-1,3
 1231 69 1231 69 1102 19.5 c 128,-1,4
 973 -30 973 -30 813 -30 c 0,5,6
 650 -30 650 -30 520.5 20.5 c 128,-1,7
 391 71 391 71 300.5 165.5 c 128,-1,8
 210 260 210 260 162 395.5 c 128,-1,9
 114 531 114 531 114 702 c 0,10,11
 114 877 114 877 162.5 1013.5 c 128,-1,12
 211 1150 211 1150 301.5 1244 c 128,-1,13
 392 1338 392 1338 521.5 1387 c 128,-1,14
 651 1436 651 1436 813 1436 c 256,15,16
 975 1436 975 1436 1104 1386.5 c 128,-1,17
 1233 1337 1233 1337 1323.5 1242.5 c 128,-1,18
 1414 1148 1414 1148 1462 1011.5 c 128,-1,19
 1510 875 1510 875 1510 702 c 256,0,1
456 699 m 0,20,21
 456 421 456 421 545 273 c 128,-1,22
 634 125 634 125 813 125 c 0,23,24
 898 125 898 125 964 160 c 128,-1,25
 1030 195 1030 195 1075.5 266.5 c 128,-1,26
 1121 338 1121 338 1144.5 446.5 c 128,-1,27
 1168 555 1168 555 1168 702 c 0,28,29
 1168 991 1168 991 1076 1136.5 c 128,-1,30
 984 1282 984 1282 813 1282 c 0,31,32
 643 1282 643 1282 549.5 1137.5 c 128,-1,33
 456 993 456 993 456 699 c 0,20,21
EndSplineSet
EndChar

StartChar: P
Encoding: 80 80 51
Width: 1393
Flags: W
LayerCount: 2
Fore
SplineSet
289 257 m 2,0,-1
 289 1158 l 2,1,2
 289 1226 289 1226 278 1262 c 1,3,4
 261 1264 261 1264 238.5 1264.5 c 128,-1,5
 216 1265 216 1265 192 1265 c 2,6,-1
 69 1265 l 1,7,-1
 69 1401 l 1,8,9
 200 1414 200 1414 356 1419 c 128,-1,10
 512 1424 512 1424 698 1424 c 0,11,12
 842 1424 842 1424 956.5 1405 c 128,-1,13
 1071 1386 1071 1386 1152 1337.5 c 128,-1,14
 1233 1289 1233 1289 1276.5 1206 c 128,-1,15
 1320 1123 1320 1123 1322 994 c 1,16,17
 1322 893 1322 893 1287 814 c 128,-1,18
 1252 735 1252 735 1179.5 680 c 128,-1,19
 1107 625 1107 625 995.5 596 c 128,-1,20
 884 567 884 567 732 567 c 0,21,22
 704 567 704 567 674 567 c 128,-1,23
 644 567 644 567 609 569 c 1,24,25
 609 478 609 478 608.5 416.5 c 128,-1,26
 608 355 608 355 608 314.5 c 128,-1,27
 608 274 608 274 608 250.5 c 128,-1,28
 608 227 608 227 609 210.5 c 128,-1,29
 610 194 610 194 612.5 181 c 128,-1,30
 615 168 615 168 620 150 c 1,31,32
 639 147 639 147 660.5 146.5 c 128,-1,33
 682 146 682 146 705 146 c 2,34,-1
 815 146 l 1,35,-1
 815 -14 l 1,36,37
 711 -5 711 -5 625.5 -2.5 c 128,-1,38
 540 0 540 0 465 0 c 0,39,40
 377 0 377 0 282.5 -2.5 c 128,-1,41
 188 -5 188 -5 79 -14 c 1,42,-1
 79 146 l 1,43,-1
 191 146 l 2,44,45
 214 146 214 146 236 146.5 c 128,-1,46
 258 147 258 147 278 150 c 1,47,48
 283 167 283 167 286 193 c 128,-1,49
 289 219 289 219 289 257 c 2,0,-1
704 1265 m 2,50,-1
 608 1265 l 1,51,-1
 608 714 l 1,52,53
 617 714 617 714 626.5 713.5 c 128,-1,54
 636 713 636 713 647 713 c 0,55,56
 746 713 746 713 813 729.5 c 128,-1,57
 880 746 880 746 920.5 780 c 128,-1,58
 961 814 961 814 978.5 866 c 128,-1,59
 996 918 996 918 996 990 c 0,60,61
 996 1065 996 1065 979 1117.5 c 128,-1,62
 962 1170 962 1170 926.5 1202.5 c 128,-1,63
 891 1235 891 1235 835.5 1250 c 128,-1,64
 780 1265 780 1265 704 1265 c 2,50,-1
EndSplineSet
EndChar

StartChar: Q
Encoding: 81 81 52
Width: 1678
Flags: W
LayerCount: 2
Fore
SplineSet
455 699 m 0,0,1
 455 413 455 413 544 268.5 c 128,-1,2
 633 124 633 124 810 124 c 0,3,4
 895 124 895 124 961 158.5 c 128,-1,5
 1027 193 1027 193 1072.5 264.5 c 128,-1,6
 1118 336 1118 336 1142 444.5 c 128,-1,7
 1166 553 1166 553 1166 701 c 0,8,9
 1166 991 1166 991 1073 1136.5 c 128,-1,10
 980 1282 980 1282 810 1282 c 0,11,12
 641 1282 641 1282 548 1137 c 128,-1,13
 455 992 455 992 455 699 c 0,0,1
1504 739 m 0,14,15
 1504 613 1504 613 1475 496.5 c 128,-1,16
 1446 380 1446 380 1387.5 283.5 c 128,-1,17
 1329 187 1329 187 1240.5 116 c 128,-1,18
 1152 45 1152 45 1032 11 c 1,19,20
 1053 -8 1053 -8 1079 -20 c 128,-1,21
 1105 -32 1105 -32 1133.5 -39.5 c 128,-1,22
 1162 -47 1162 -47 1191.5 -50 c 128,-1,23
 1221 -53 1221 -53 1249 -53 c 0,24,25
 1307 -53 1307 -53 1372 -41.5 c 128,-1,26
 1437 -30 1437 -30 1526 -5 c 1,27,-1
 1563 -136 l 1,28,29
 1452 -179 1452 -179 1346.5 -202.5 c 128,-1,30
 1241 -226 1241 -226 1138 -226 c 0,31,32
 1079 -226 1079 -226 1022.5 -218 c 128,-1,33
 966 -210 966 -210 912 -191 c 128,-1,34
 858 -172 858 -172 805.5 -141 c 128,-1,35
 753 -110 753 -110 703 -65 c 1,36,37
 666 -51 666 -51 631 -33.5 c 128,-1,38
 596 -16 596 -16 564 6 c 1,39,40
 458 38 458 38 374.5 99 c 128,-1,41
 291 160 291 160 233 248.5 c 128,-1,42
 175 337 175 337 144.5 452 c 128,-1,43
 114 567 114 567 114 708 c 0,44,45
 114 880 114 880 162.5 1015.5 c 128,-1,46
 211 1151 211 1151 301 1244.5 c 128,-1,47
 391 1338 391 1338 520 1387 c 128,-1,48
 649 1436 649 1436 810 1436 c 0,49,50
 966 1436 966 1436 1094 1388 c 128,-1,51
 1222 1340 1222 1340 1313 1250 c 128,-1,52
 1404 1160 1404 1160 1454 1031 c 128,-1,53
 1504 902 1504 902 1504 739 c 0,14,15
EndSplineSet
EndChar

StartChar: R
Encoding: 82 82 53
Width: 1544
Flags: W
LayerCount: 2
Fore
SplineSet
288 257 m 0,0,1
 288 485 288 485 287.5 710 c 128,-1,2
 287 935 287 935 287 1162 c 0,3,4
 287 1231 287 1231 277 1261 c 1,5,6
 257 1265 257 1265 235 1265 c 128,-1,7
 213 1265 213 1265 191 1265 c 2,8,-1
 68 1265 l 1,9,-1
 68 1403 l 1,10,11
 134 1409 134 1409 213.5 1413 c 128,-1,12
 293 1417 293 1417 375.5 1419.5 c 128,-1,13
 458 1422 458 1422 540.5 1423 c 128,-1,14
 623 1424 623 1424 695 1424 c 0,15,16
 834 1424 834 1424 952 1406.5 c 128,-1,17
 1070 1389 1070 1389 1155.5 1342.5 c 128,-1,18
 1241 1296 1241 1296 1289 1216 c 128,-1,19
 1337 1136 1337 1136 1337 1012 c 0,20,21
 1337 946 1337 946 1315 890.5 c 128,-1,22
 1293 835 1293 835 1252.5 790 c 128,-1,23
 1212 745 1212 745 1154.5 711 c 128,-1,24
 1097 677 1097 677 1026 653 c 1,25,26
 1098 626 1098 626 1149 581.5 c 128,-1,27
 1200 537 1200 537 1237.5 475 c 128,-1,28
 1275 413 1275 413 1302 333.5 c 128,-1,29
 1329 254 1329 254 1353 156 c 1,30,31
 1363 156 1363 156 1381 156.5 c 128,-1,32
 1399 157 1399 157 1421.5 157 c 128,-1,33
 1444 157 1444 157 1468.5 157.5 c 128,-1,34
 1493 158 1493 158 1515 158 c 1,35,-1
 1507 -15 l 1,36,37
 1465 -19 1465 -19 1413 -23.5 c 128,-1,38
 1361 -28 1361 -28 1311 -28 c 0,39,40
 1214 -28 1214 -28 1151 7.5 c 128,-1,41
 1088 43 1088 43 1055 122 c 0,42,43
 1019 207 1019 207 994.5 280 c 128,-1,44
 970 353 970 353 947 412 c 128,-1,45
 924 471 924 471 898.5 514 c 128,-1,46
 873 557 873 557 836 583 c 1,47,48
 783 592 783 592 724 591.5 c 128,-1,49
 665 591 665 591 608 593 c 1,50,-1
 608 259 l 2,51,52
 608 224 608 224 610.5 197.5 c 128,-1,53
 613 171 613 171 618 150 c 1,54,55
 638 147 638 147 660 146.5 c 128,-1,56
 682 146 682 146 705 146 c 2,57,-1
 785 146 l 1,58,-1
 785 -13 l 1,59,60
 697 -5 697 -5 620.5 -2.5 c 128,-1,61
 544 0 544 0 472 0 c 0,62,63
 383 0 383 0 291.5 -2.5 c 128,-1,64
 200 -5 200 -5 97 -13 c 1,65,-1
 97 146 l 1,66,-1
 183 146 l 2,67,68
 209 146 209 146 232 146.5 c 128,-1,69
 255 147 255 147 277 150 c 1,70,71
 282 168 282 168 285 194.5 c 128,-1,72
 288 221 288 221 288 257 c 0,0,1
703 1265 m 2,73,-1
 608 1265 l 1,74,-1
 608 734 l 1,75,76
 623 733 623 733 638.5 733 c 128,-1,77
 654 733 654 733 671 733 c 0,78,79
 759 733 759 733 823 747.5 c 128,-1,80
 887 762 887 762 928.5 794 c 128,-1,81
 970 826 970 826 990 878 c 128,-1,82
 1010 930 1010 930 1010 1004 c 0,83,84
 1010 1077 1010 1077 993 1126.5 c 128,-1,85
 976 1176 976 1176 939 1207 c 128,-1,86
 902 1238 902 1238 843.5 1251.5 c 128,-1,87
 785 1265 785 1265 703 1265 c 2,73,-1
EndSplineSet
EndChar

StartChar: S
Encoding: 83 83 54
Width: 1278
Flags: W
LayerCount: 2
Fore
SplineSet
426 1089 m 0,0,1
 426 1042 426 1042 442 1006.5 c 128,-1,2
 458 971 458 971 486.5 943.5 c 128,-1,3
 515 916 515 916 555.5 893.5 c 128,-1,4
 596 871 596 871 645 852 c 0,5,6
 743 813 743 813 838 770.5 c 128,-1,7
 933 728 933 728 1008 674.5 c 128,-1,8
 1083 621 1083 621 1129 552.5 c 128,-1,9
 1175 484 1175 484 1175 392 c 0,10,11
 1175 293 1175 293 1134.5 214.5 c 128,-1,12
 1094 136 1094 136 1022 82 c 128,-1,13
 950 28 950 28 850 -1 c 128,-1,14
 750 -30 750 -30 632 -30 c 0,15,16
 581 -30 581 -30 525 -24.5 c 128,-1,17
 469 -19 469 -19 413.5 -8 c 128,-1,18
 358 3 358 3 305.5 19.5 c 128,-1,19
 253 36 253 36 208.5 57 c 128,-1,20
 164 78 164 78 130.5 104.5 c 128,-1,21
 97 131 97 131 80 162 c 1,22,23
 83 191 83 191 91 225 c 128,-1,24
 99 259 99 259 109.5 294.5 c 128,-1,25
 120 330 120 330 130.5 365 c 128,-1,26
 141 400 141 400 150 432 c 1,27,-1
 374 371 l 1,28,29
 381 333 381 333 385 302 c 128,-1,30
 389 271 389 271 394 246 c 128,-1,31
 399 221 399 221 406 201.5 c 128,-1,32
 413 182 413 182 427 167 c 1,33,34
 444 152 444 152 470 142.5 c 128,-1,35
 496 133 496 133 525 127.5 c 128,-1,36
 554 122 554 122 583.5 119.5 c 128,-1,37
 613 117 613 117 637 117 c 0,38,39
 684 117 684 117 723.5 134 c 128,-1,40
 763 151 763 151 791.5 180 c 128,-1,41
 820 209 820 209 835.5 249 c 128,-1,42
 851 289 851 289 851 334 c 0,43,44
 851 396 851 396 826 441.5 c 128,-1,45
 801 487 801 487 755.5 523 c 128,-1,46
 710 559 710 559 646 589.5 c 128,-1,47
 582 620 582 620 504 652 c 0,48,49
 409 691 409 691 335 732.5 c 128,-1,50
 261 774 261 774 210.5 822.5 c 128,-1,51
 160 871 160 871 133.5 928 c 128,-1,52
 107 985 107 985 107 1055 c 0,53,54
 107 1139 107 1139 146 1209.5 c 128,-1,55
 185 1280 185 1280 260 1330 c 128,-1,56
 335 1380 335 1380 444 1408 c 128,-1,57
 553 1436 553 1436 694 1436 c 0,58,59
 761 1436 761 1436 819 1426.5 c 128,-1,60
 877 1417 877 1417 928 1401 c 128,-1,61
 979 1385 979 1385 1024.5 1365 c 128,-1,62
 1070 1345 1070 1345 1112 1324 c 1,63,64
 1110 1252 1110 1252 1095 1182.5 c 128,-1,65
 1080 1113 1080 1113 1066 1046 c 1,66,-1
 892 1045 l 1,67,68
 887 1097 887 1097 876 1139.5 c 128,-1,69
 865 1182 865 1182 831 1212 c 0,70,71
 811 1229 811 1229 782.5 1241.5 c 128,-1,72
 754 1254 754 1254 723.5 1262 c 128,-1,73
 693 1270 693 1270 663.5 1273.5 c 128,-1,74
 634 1277 634 1277 613 1277 c 0,75,76
 572 1277 572 1277 537.5 1264.5 c 128,-1,77
 503 1252 503 1252 478.5 1228 c 128,-1,78
 454 1204 454 1204 440 1169 c 128,-1,79
 426 1134 426 1134 426 1089 c 0,0,1
EndSplineSet
EndChar

StartChar: T
Encoding: 84 84 55
Width: 1416
Flags: W
LayerCount: 2
Fore
SplineSet
1376 1041 m 1,0,-1
 1214 1041 l 1,1,2
 1214 1086 1214 1086 1207 1141.5 c 128,-1,3
 1200 1197 1200 1197 1187 1261 c 1,4,5
 1153 1260 1153 1260 1119.5 1260 c 128,-1,6
 1086 1260 1086 1260 1048 1260 c 2,7,-1
 872 1260 l 1,8,-1
 872 259 l 2,9,10
 872 224 872 224 874.5 197.5 c 128,-1,11
 877 171 877 171 883 150 c 1,12,13
 906 147 906 147 930.5 146.5 c 128,-1,14
 955 146 955 146 981 146 c 2,15,-1
 1073 146 l 1,16,-1
 1073 -13 l 1,17,18
 979 -5 979 -5 896 -2.5 c 128,-1,19
 813 0 813 0 736 0 c 0,20,21
 645 0 645 0 551 -2.5 c 128,-1,22
 457 -5 457 -5 351 -13 c 1,23,-1
 351 146 l 1,24,-1
 442 146 l 2,25,26
 469 146 469 146 493.5 146.5 c 128,-1,27
 518 147 518 147 541 150 c 1,28,29
 546 168 546 168 549 194.5 c 128,-1,30
 552 221 552 221 552 257 c 0,31,32
 552 510 552 510 551.5 758.5 c 128,-1,33
 551 1007 551 1007 551 1260 c 1,34,-1
 237 1260 l 1,35,36
 225 1210 225 1210 218 1154.5 c 128,-1,37
 211 1099 211 1099 210 1041 c 1,38,-1
 41 1041 l 1,39,40
 41 1069 41 1069 39.5 1116.5 c 128,-1,41
 38 1164 38 1164 36 1215.5 c 128,-1,42
 34 1267 34 1267 32.5 1316 c 128,-1,43
 31 1365 31 1365 31 1397 c 1,44,45
 57 1408 57 1408 128 1410.5 c 128,-1,46
 199 1413 199 1413 299 1413 c 0,47,48
 318 1413 318 1413 350 1412.5 c 128,-1,49
 382 1412 382 1412 420.5 1411 c 128,-1,50
 459 1410 459 1410 501 1409.5 c 128,-1,51
 543 1409 543 1409 583 1408 c 128,-1,52
 623 1407 623 1407 658 1406.5 c 128,-1,53
 693 1406 693 1406 717 1406 c 0,54,55
 763 1406 763 1406 822.5 1407 c 128,-1,56
 882 1408 882 1408 940.5 1409.5 c 128,-1,57
 999 1411 999 1411 1049.5 1412 c 128,-1,58
 1100 1413 1100 1413 1128 1413 c 0,59,60
 1225 1413 1225 1413 1292 1410.5 c 128,-1,61
 1359 1408 1359 1408 1385 1397 c 1,62,63
 1385 1364 1385 1364 1383.5 1315.5 c 128,-1,64
 1382 1267 1382 1267 1380.5 1215.5 c 128,-1,65
 1379 1164 1379 1164 1377.5 1117 c 128,-1,66
 1376 1070 1376 1070 1376 1041 c 1,0,-1
EndSplineSet
EndChar

StartChar: U
Encoding: 85 85 56
Width: 1659
Flags: W
LayerCount: 2
Fore
SplineSet
1425 1153 m 2,0,-1
 1425 515 l 2,1,2
 1425 375 1425 375 1378.5 272.5 c 128,-1,3
 1332 170 1332 170 1250.5 103 c 128,-1,4
 1169 36 1169 36 1058.5 3 c 128,-1,5
 948 -30 948 -30 821 -30 c 0,6,7
 668 -30 668 -30 557 10.5 c 128,-1,8
 446 51 446 51 374 129 c 128,-1,9
 302 207 302 207 267.5 321 c 128,-1,10
 233 435 233 435 233 582 c 2,11,-1
 233 1153 l 2,12,13
 233 1222 233 1222 222 1260 c 1,14,15
 199 1264 199 1264 174.5 1264.5 c 128,-1,16
 150 1265 150 1265 123 1265 c 2,17,-1
 32 1265 l 1,18,-1
 32 1406 l 1,19,20
 112 1412 112 1412 192 1415.5 c 128,-1,21
 272 1419 272 1419 358 1419 c 0,22,23
 431 1419 431 1419 488.5 1418.5 c 128,-1,24
 546 1418 546 1418 592 1416.5 c 128,-1,25
 638 1415 638 1415 674.5 1412 c 128,-1,26
 711 1409 711 1409 741 1405 c 1,27,-1
 741 1265 l 1,28,-1
 655 1265 l 2,29,30
 630 1265 630 1265 607.5 1264.5 c 128,-1,31
 585 1264 585 1264 564 1260 c 1,32,33
 554 1216 554 1216 554 1153 c 0,34,35
 554 991 554 991 553.5 830 c 128,-1,36
 553 669 553 669 553 507 c 0,37,38
 553 414 553 414 573.5 343 c 128,-1,39
 594 272 594 272 632 223 c 128,-1,40
 670 174 670 174 725.5 149 c 128,-1,41
 781 124 781 124 850 124 c 0,42,43
 932 124 932 124 989.5 155 c 128,-1,44
 1047 186 1047 186 1083 244.5 c 128,-1,45
 1119 303 1119 303 1135.5 387 c 128,-1,46
 1152 471 1152 471 1152 577 c 2,47,-1
 1152 1153 l 2,48,49
 1152 1222 1152 1222 1141 1260 c 1,50,51
 1121 1264 1121 1264 1098.5 1264.5 c 128,-1,52
 1076 1265 1076 1265 1052 1265 c 2,53,-1
 970 1265 l 1,54,-1
 970 1406 l 1,55,56
 1046 1413 1046 1413 1126 1416 c 128,-1,57
 1206 1419 1206 1419 1298 1419 c 0,58,59
 1356 1419 1356 1419 1404 1418.5 c 128,-1,60
 1452 1418 1452 1418 1492 1416.5 c 128,-1,61
 1532 1415 1532 1415 1565 1412 c 128,-1,62
 1598 1409 1598 1409 1627 1405 c 1,63,-1
 1627 1265 l 1,64,-1
 1534 1265 l 2,65,66
 1508 1265 1508 1265 1483 1264.5 c 128,-1,67
 1458 1264 1458 1264 1436 1260 c 1,68,69
 1431 1240 1431 1240 1428 1214 c 128,-1,70
 1425 1188 1425 1188 1425 1153 c 2,0,-1
EndSplineSet
EndChar

StartChar: V
Encoding: 86 86 57
Width: 1687
Flags: W
LayerCount: 2
Fore
SplineSet
905 329 m 1,0,-1
 1186 1153 l 2,1,2
 1197 1184 1197 1184 1202 1210 c 128,-1,3
 1207 1236 1207 1236 1210 1260 c 1,4,5
 1192 1264 1192 1264 1171 1264.5 c 128,-1,6
 1150 1265 1150 1265 1127 1265 c 2,7,-1
 1060 1265 l 1,8,-1
 1085 1405 l 1,9,10
 1173 1416 1173 1416 1256.5 1417 c 128,-1,11
 1340 1418 1340 1418 1425 1418 c 0,12,13
 1497 1418 1497 1418 1562.5 1415.5 c 128,-1,14
 1628 1413 1628 1413 1687 1405 c 1,15,-1
 1663 1265 l 1,16,-1
 1608 1265 l 2,17,18
 1579 1265 1579 1265 1551 1264.5 c 128,-1,19
 1523 1264 1523 1264 1496 1260 c 1,20,21
 1486 1243 1486 1243 1475 1217.5 c 128,-1,22
 1464 1192 1464 1192 1450 1153 c 0,23,24
 1345 845 1345 845 1231.5 548.5 c 128,-1,25
 1118 252 1118 252 1002 -5 c 1,26,-1
 856 -5 l 2,27,28
 787 -5 787 -5 746 7 c 128,-1,29
 705 19 705 19 689 59 c 2,30,-1
 260 1153 l 2,31,32
 246 1189 246 1189 232 1214.5 c 128,-1,33
 218 1240 218 1240 203 1260 c 1,34,35
 182 1264 182 1264 162 1264.5 c 128,-1,36
 142 1265 142 1265 119 1265 c 2,37,-1
 23 1265 l 1,38,-1
 0 1405 l 1,39,40
 42 1409 42 1409 86 1412 c 128,-1,41
 130 1415 130 1415 179.5 1416.5 c 128,-1,42
 229 1418 229 1418 285.5 1418.5 c 128,-1,43
 342 1419 342 1419 408 1419 c 0,44,45
 486 1419 486 1419 554 1415.5 c 128,-1,46
 622 1412 622 1412 679 1405 c 1,47,-1
 708 1265 l 1,48,-1
 640 1265 l 2,49,50
 617 1265 617 1265 596 1264.5 c 128,-1,51
 575 1264 575 1264 557 1260 c 1,52,53
 562 1233 562 1233 572 1207.5 c 128,-1,54
 582 1182 582 1182 592 1156 c 0,55,56
 667 957 667 957 740.5 760 c 128,-1,57
 814 563 814 563 888 365 c 1,58,-1
 905 329 l 1,0,-1
EndSplineSet
EndChar

StartChar: W
Encoding: 87 87 58
Width: 2429
Flags: W
LayerCount: 2
Fore
SplineSet
1952 1197 m 1,0,1
 1960 1213 1960 1213 1960 1227 c 0,2,3
 1960 1251 1960 1251 1933.5 1258 c 128,-1,4
 1907 1265 1907 1265 1870 1265 c 2,5,-1
 1798 1265 l 1,6,-1
 1817 1405 l 1,7,8
 1841 1408 1841 1408 1867 1410.5 c 128,-1,9
 1893 1413 1893 1413 1925.5 1414.5 c 128,-1,10
 1958 1416 1958 1416 1999 1417 c 128,-1,11
 2040 1418 2040 1418 2093 1418 c 0,12,13
 2153 1418 2153 1418 2200.5 1417.5 c 128,-1,14
 2248 1417 2248 1417 2287 1415.5 c 128,-1,15
 2326 1414 2326 1414 2358 1411.5 c 128,-1,16
 2390 1409 2390 1409 2420 1405 c 1,17,-1
 2401 1265 l 1,18,-1
 2331 1265 l 2,19,20
 2305 1265 2305 1265 2281 1264.5 c 128,-1,21
 2257 1264 2257 1264 2234 1260 c 1,22,23
 2228 1247 2228 1247 2218 1216.5 c 128,-1,24
 2208 1186 2208 1186 2195 1144.5 c 128,-1,25
 2182 1103 2182 1103 2167 1054 c 128,-1,26
 2152 1005 2152 1005 2137.5 954.5 c 128,-1,27
 2123 904 2123 904 2109 857 c 128,-1,28
 2095 810 2095 810 2084 772 c 0,29,30
 2017 558 2017 558 1948.5 363 c 128,-1,31
 1880 168 1880 168 1809 -5 c 1,32,-1
 1632 -5 l 2,33,34
 1596 -5 1596 -5 1571.5 -2.5 c 128,-1,35
 1547 0 1547 0 1530 9 c 128,-1,36
 1513 18 1513 18 1502 36.5 c 128,-1,37
 1491 55 1491 55 1482 87 c 1,38,-1
 1231 857 l 1,39,40
 1167 616 1167 616 1101.5 403 c 128,-1,41
 1036 190 1036 190 963 -5 c 1,42,-1
 749 -5 l 2,43,44
 704 -5 704 -5 678.5 8.5 c 128,-1,45
 653 22 653 22 643 59 c 1,46,-1
 269 1153 l 2,47,48
 260 1177 260 1177 252.5 1193 c 128,-1,49
 245 1209 245 1209 238 1221 c 128,-1,50
 231 1233 231 1233 225 1242 c 128,-1,51
 219 1251 219 1251 212 1260 c 1,52,53
 188 1264 188 1264 164 1264.5 c 128,-1,54
 140 1265 140 1265 114 1265 c 2,55,-1
 33 1265 l 1,56,-1
 9 1405 l 1,57,58
 42 1408 42 1408 76.5 1411 c 128,-1,59
 111 1414 111 1414 151.5 1415.5 c 128,-1,60
 192 1417 192 1417 241.5 1418 c 128,-1,61
 291 1419 291 1419 354 1419 c 0,62,63
 415 1419 415 1419 463.5 1418 c 128,-1,64
 512 1417 512 1417 552 1415.5 c 128,-1,65
 592 1414 592 1414 625.5 1411 c 128,-1,66
 659 1408 659 1408 689 1405 c 1,67,-1
 717 1265 l 1,68,-1
 649 1265 l 2,69,70
 626 1265 626 1265 605.5 1264.5 c 128,-1,71
 585 1264 585 1264 567 1260 c 1,72,73
 572 1237 572 1237 581 1212 c 128,-1,74
 590 1187 590 1187 602 1156 c 1,75,-1
 860 329 l 1,76,77
 860 329 860 329 869 360 c 128,-1,78
 878 391 878 391 894 445.5 c 128,-1,79
 910 500 910 500 932 574 c 128,-1,80
 954 648 954 648 978.5 734.5 c 128,-1,81
 1003 821 1003 821 1029 916 c 128,-1,82
 1055 1011 1055 1011 1081 1107 c 0,83,84
 1092 1148 1092 1148 1098 1187.5 c 128,-1,85
 1104 1227 1104 1227 1107.5 1263.5 c 128,-1,86
 1111 1300 1111 1300 1113.5 1332 c 128,-1,87
 1116 1364 1116 1364 1121 1390 c 1,88,-1
 1283 1390 l 2,89,90
 1317 1390 1317 1390 1339.5 1377.5 c 128,-1,91
 1362 1365 1362 1365 1376.5 1344.5 c 128,-1,92
 1391 1324 1391 1324 1400.5 1297 c 128,-1,93
 1410 1270 1410 1270 1420 1240 c 2,94,-1
 1707 326 l 1,95,96
 1775 569 1775 569 1829 761 c 0,97,98
 1852 843 1852 843 1874 921 c 128,-1,99
 1896 999 1896 999 1913.5 1060.5 c 128,-1,100
 1931 1122 1931 1122 1941.5 1159.5 c 128,-1,101
 1952 1197 1952 1197 1952 1197 c 1,0,1
EndSplineSet
EndChar

StartChar: X
Encoding: 88 88 59
Width: 1673
Flags: W
LayerCount: 2
Fore
SplineSet
999 254 m 2,0,-1
 775 558 l 1,1,-1
 566 256 l 2,2,3
 545 225 545 225 534 202.5 c 128,-1,4
 523 180 523 180 519 162 c 1,5,6
 529 153 529 153 545 149.5 c 128,-1,7
 561 146 561 146 584 146 c 2,8,-1
 672 146 l 1,9,-1
 651 -13 l 1,10,11
 563 -5 563 -5 482 -2.5 c 128,-1,12
 401 0 401 0 326 0 c 0,13,14
 257 0 257 0 182.5 -2.5 c 128,-1,15
 108 -5 108 -5 18 -13 c 1,16,17
 21 27 21 27 24 66.5 c 128,-1,18
 27 106 27 106 29 146 c 1,19,-1
 102 146 l 2,20,21
 123 146 123 146 142 146.5 c 128,-1,22
 161 147 161 147 181 150 c 1,23,24
 206 164 206 164 231.5 192 c 128,-1,25
 257 220 257 220 291 261 c 2,26,-1
 646 692 l 1,27,-1
 297 1161 l 2,28,29
 275 1190 275 1190 258 1210 c 128,-1,30
 241 1230 241 1230 224 1242 c 128,-1,31
 207 1254 207 1254 186.5 1259.5 c 128,-1,32
 166 1265 166 1265 137 1265 c 2,33,-1
 62 1265 l 1,34,-1
 27 1405 l 1,35,36
 94 1411 94 1411 171 1415 c 128,-1,37
 248 1419 248 1419 345 1419 c 2,38,-1
 423 1419 l 2,39,40
 527 1419 527 1419 601 1416 c 128,-1,41
 675 1413 675 1413 735 1405 c 1,42,-1
 765 1265 l 1,43,-1
 691 1265 l 2,44,45
 670 1265 670 1265 655 1262.5 c 128,-1,46
 640 1260 640 1260 631 1252 c 1,47,48
 633 1234 633 1234 643.5 1216.5 c 128,-1,49
 654 1199 654 1199 675 1169 c 2,50,-1
 892 851 l 1,51,-1
 1081 1125 l 1,52,53
 1112 1167 1112 1167 1129.5 1196 c 128,-1,54
 1147 1225 1147 1225 1154 1246 c 1,55,56
 1145 1257 1145 1257 1129 1261 c 128,-1,57
 1113 1265 1113 1265 1090 1265 c 2,58,-1
 1003 1265 l 1,59,-1
 1042 1405 l 1,60,61
 1111 1412 1111 1412 1190 1415.5 c 128,-1,62
 1269 1419 1269 1419 1380 1419 c 0,63,64
 1461 1419 1461 1419 1527 1416 c 128,-1,65
 1593 1413 1593 1413 1650 1405 c 1,66,-1
 1616 1265 l 1,67,-1
 1531 1265 l 2,68,69
 1511 1265 1511 1265 1491.5 1264.5 c 128,-1,70
 1472 1264 1472 1264 1452 1260 c 1,71,72
 1429 1244 1429 1244 1403 1218 c 128,-1,73
 1377 1192 1377 1192 1342 1147 c 0,74,75
 1288 1076 1288 1076 1241.5 1016.5 c 128,-1,76
 1195 957 1195 957 1154 905 c 128,-1,77
 1113 853 1113 853 1077.5 807.5 c 128,-1,78
 1042 762 1042 762 1010 721 c 1,79,-1
 1365 280 l 2,80,81
 1395 243 1395 243 1420 210.5 c 128,-1,82
 1445 178 1445 178 1474 157 c 1,83,84
 1491 150 1491 150 1509 148 c 128,-1,85
 1527 146 1527 146 1547 146 c 2,86,-1
 1599 146 l 1,87,-1
 1610 -13 l 1,88,89
 1517 -5 1517 -5 1438.5 -2.5 c 128,-1,90
 1360 0 1360 0 1281 0 c 0,91,92
 1210 0 1210 0 1123.5 -2.5 c 128,-1,93
 1037 -5 1037 -5 931 -13 c 1,94,-1
 913 146 l 1,95,-1
 991 146 l 2,96,97
 1011 146 1011 146 1026.5 148.5 c 128,-1,98
 1042 151 1042 151 1052 159 c 1,99,100
 1047 176 1047 176 1034.5 199 c 128,-1,101
 1022 222 1022 222 999 254 c 2,0,-1
EndSplineSet
EndChar

StartChar: Y
Encoding: 89 89 60
Width: 1582
Flags: W
LayerCount: 2
Fore
SplineSet
1085 1153 m 0,0,1
 1099 1183 1099 1183 1106.5 1208.5 c 128,-1,2
 1114 1234 1114 1234 1119 1260 c 1,3,4
 1103 1264 1103 1264 1084 1264.5 c 128,-1,5
 1065 1265 1065 1265 1043 1265 c 2,6,-1
 956 1265 l 1,7,-1
 985 1405 l 1,8,9
 1054 1413 1054 1413 1129.5 1416 c 128,-1,10
 1205 1419 1205 1419 1293 1419 c 0,11,12
 1345 1419 1345 1419 1387 1418 c 128,-1,13
 1429 1417 1429 1417 1464 1415.5 c 128,-1,14
 1499 1414 1499 1414 1528.5 1411.5 c 128,-1,15
 1558 1409 1558 1409 1585 1405 c 1,16,-1
 1553 1265 l 1,17,-1
 1462 1265 l 2,18,19
 1441 1265 1441 1265 1421.5 1264.5 c 128,-1,20
 1402 1264 1402 1264 1382 1260 c 1,21,22
 1365 1237 1365 1237 1359 1229.5 c 128,-1,23
 1353 1222 1353 1222 1351.5 1219.5 c 128,-1,24
 1350 1217 1350 1217 1350 1216 c 128,-1,25
 1350 1215 1350 1215 1346 1205.5 c 128,-1,26
 1342 1196 1342 1196 1331 1173.5 c 128,-1,27
 1320 1151 1320 1151 1295.5 1107 c 128,-1,28
 1271 1063 1271 1063 1231 992 c 128,-1,29
 1191 921 1191 921 1129 815 c 2,30,-1
 956 515 l 1,31,-1
 956 276 l 2,32,33
 956 234 956 234 958.5 200.5 c 128,-1,34
 961 167 961 167 966 141 c 1,35,36
 986 138 986 138 1006.5 137 c 128,-1,37
 1027 136 1027 136 1050 136 c 2,38,-1
 1157 136 l 1,39,-1
 1157 -13 l 1,40,41
 1063 -5 1063 -5 980 -2.5 c 128,-1,42
 897 0 897 0 820 0 c 0,43,44
 729 0 729 0 635 -2.5 c 128,-1,45
 541 -5 541 -5 436 -13 c 1,46,-1
 436 136 l 1,47,-1
 542 136 l 2,48,49
 565 136 565 136 585 136.5 c 128,-1,50
 605 137 605 137 625 141 c 1,51,52
 635 175 635 175 635 237 c 2,53,-1
 635 490 l 1,54,55
 623 509 623 509 613.5 528 c 128,-1,56
 604 547 604 547 593 566 c 2,57,-1
 244 1153 l 2,58,59
 231 1174 231 1174 222 1191 c 128,-1,60
 213 1208 213 1208 205.5 1221.5 c 128,-1,61
 198 1235 198 1235 191.5 1244.5 c 128,-1,62
 185 1254 185 1254 176 1260 c 1,63,64
 156 1264 156 1264 134.5 1264.5 c 128,-1,65
 113 1265 113 1265 90 1265 c 2,66,-1
 21 1265 l 1,67,-1
 -5 1405 l 1,68,69
 67 1412 67 1412 140.5 1415.5 c 128,-1,70
 214 1419 214 1419 293 1419 c 0,71,72
 363 1419 363 1419 420 1418.5 c 128,-1,73
 477 1418 477 1418 524.5 1416.5 c 128,-1,74
 572 1415 572 1415 611 1412 c 128,-1,75
 650 1409 650 1409 684 1405 c 1,76,-1
 700 1265 l 1,77,-1
 633 1265 l 2,78,79
 610 1265 610 1265 589 1264.5 c 128,-1,80
 568 1264 568 1264 551 1260 c 1,81,82
 559 1228 559 1228 567.5 1208.5 c 128,-1,83
 576 1189 576 1189 587 1169 c 2,84,-1
 854 704 l 1,85,86
 887 763 887 763 921 828.5 c 128,-1,87
 955 894 955 894 986.5 955 c 128,-1,88
 1018 1016 1018 1016 1044 1068 c 128,-1,89
 1070 1120 1070 1120 1085 1153 c 0,0,1
EndSplineSet
EndChar

StartChar: Z
Encoding: 90 90 61
Width: 1320
Flags: W
LayerCount: 2
Fore
SplineSet
100 1390 m 1,0,1
 230 1401 230 1401 366.5 1407 c 128,-1,2
 503 1413 503 1413 654 1413 c 2,3,-1
 1093 1413 l 2,4,5
 1119 1413 1119 1413 1143 1411 c 128,-1,6
 1167 1409 1167 1409 1186 1401 c 128,-1,7
 1205 1393 1205 1393 1216 1378 c 128,-1,8
 1227 1363 1227 1363 1227 1338 c 2,9,-1
 1227 1248 l 1,10,-1
 435 152 l 1,11,-1
 766 152 l 2,12,13
 802 152 802 152 838.5 153.5 c 128,-1,14
 875 155 875 155 911 159 c 1,15,16
 933 179 933 179 952 203 c 128,-1,17
 971 227 971 227 985 259.5 c 128,-1,18
 999 292 999 292 1007.5 336 c 128,-1,19
 1016 380 1016 380 1016 442 c 1,20,21
 1042 442 1042 442 1074 440.5 c 128,-1,22
 1106 439 1106 439 1135 437.5 c 128,-1,23
 1164 436 1164 436 1187.5 435 c 128,-1,24
 1211 434 1211 434 1221 434 c 1,25,26
 1222 417 1222 417 1223.5 378.5 c 128,-1,27
 1225 340 1225 340 1226.5 294.5 c 128,-1,28
 1228 249 1228 249 1229.5 204 c 128,-1,29
 1231 159 1231 159 1232 129 c 0,30,31
 1232 114 1232 114 1229.5 85 c 128,-1,32
 1227 56 1227 56 1222 13 c 1,33,34
 1160 2 1160 2 1090.5 1 c 128,-1,35
 1021 0 1021 0 940 0 c 2,36,-1
 145 0 l 1,37,38
 127 4 127 4 116.5 13 c 128,-1,39
 106 22 106 22 100.5 34.5 c 128,-1,40
 95 47 95 47 93.5 62 c 128,-1,41
 92 77 92 77 92 92 c 2,42,-1
 92 174 l 1,43,-1
 866 1257 l 1,44,-1
 632 1257 l 2,45,46
 603 1257 603 1257 561.5 1254.5 c 128,-1,47
 520 1252 520 1252 477.5 1246 c 128,-1,48
 435 1240 435 1240 398.5 1230 c 128,-1,49
 362 1220 362 1220 344 1205 c 1,50,51
 342 1191 342 1191 341.5 1162 c 128,-1,52
 341 1133 341 1133 341 1100 c 0,53,54
 341 1088 341 1088 341.5 1075.5 c 128,-1,55
 342 1063 342 1063 342 1051 c 1,56,57
 292 1051 292 1051 242.5 1050.5 c 128,-1,58
 193 1050 193 1050 141 1050 c 1,59,60
 139 1077 139 1077 133.5 1120 c 128,-1,61
 128 1163 128 1163 121.5 1211 c 128,-1,62
 115 1259 115 1259 109 1306.5 c 128,-1,63
 103 1354 103 1354 100 1390 c 1,0,1
EndSplineSet
EndChar

StartChar: bracketleft
Encoding: 91 91 62
Width: 741
Flags: W
LayerCount: 2
Fore
SplineSet
467 -92 m 1,0,-1
 667 -92 l 1,1,-1
 667 -144 l 2,2,3
 667 -174 667 -174 653.5 -189 c 128,-1,4
 640 -204 640 -204 621 -211 c 128,-1,5
 602 -218 602 -218 582.5 -218.5 c 128,-1,6
 563 -219 563 -219 550 -219 c 2,7,-1
 205 -219 l 1,8,-1
 205 1521 l 1,9,-1
 517 1521 l 2,10,11
 559 1521 559 1521 588 1518.5 c 128,-1,12
 617 1516 617 1516 634.5 1507.5 c 128,-1,13
 652 1499 652 1499 659.5 1483 c 128,-1,14
 667 1467 667 1467 667 1441 c 2,15,-1
 667 1396 l 1,16,-1
 467 1396 l 1,17,-1
 467 -92 l 1,0,-1
EndSplineSet
EndChar

StartChar: backslash
Encoding: 92 92 63
Width: 961
Flags: W
LayerCount: 2
Fore
SplineSet
299 1413 m 1,0,-1
 961 -19 l 1,1,-1
 779 -19 l 2,2,3
 695 -19 695 -19 670 30 c 1,4,-1
 0 1479 l 1,5,-1
 179 1479 l 2,6,7
 229 1479 229 1479 255.5 1463 c 128,-1,8
 282 1447 282 1447 299 1413 c 1,0,-1
EndSplineSet
EndChar

StartChar: bracketright
Encoding: 93 93 64
Width: 743
Flags: W
LayerCount: 2
Fore
SplineSet
76 -92 m 1,0,-1
 275 -92 l 1,1,-1
 275 1396 l 1,2,-1
 76 1396 l 1,3,-1
 76 1449 l 2,4,5
 76 1475 76 1475 81 1492.5 c 128,-1,6
 86 1510 86 1510 100 1522 c 1,7,-1
 538 1522 l 1,8,-1
 538 -219 l 1,9,-1
 276 -219 l 2,10,11
 246 -219 246 -219 217.5 -218.5 c 128,-1,12
 189 -218 189 -218 163 -215 c 128,-1,13
 137 -212 137 -212 115 -204.5 c 128,-1,14
 93 -197 93 -197 76 -183 c 1,15,-1
 76 -92 l 1,0,-1
EndSplineSet
EndChar

StartChar: asciicircum
Encoding: 94 94 65
Width: 1233
Flags: W
LayerCount: 2
Fore
SplineSet
723 1284 m 1,0,-1
 1102 616 l 2,1,2
 1113 596 1113 596 1120.5 576 c 128,-1,3
 1128 556 1128 556 1128 539 c 0,4,5
 1128 516 1128 516 1113 500 c 128,-1,6
 1098 484 1098 484 1062 478 c 1,7,-1
 930 449 l 1,8,-1
 618 1015 l 1,9,-1
 617 1015 l 1,10,-1
 307 450 l 1,11,-1
 179 480 l 2,12,13
 148 487 148 487 126 495.5 c 128,-1,14
 104 504 104 504 99 528 c 1,15,16
 104 546 104 546 112.5 568 c 128,-1,17
 121 590 121 590 136 616 c 2,18,-1
 518 1295 l 1,19,20
 563 1295 563 1295 589.5 1295 c 128,-1,21
 616 1295 616 1295 631.5 1295.5 c 128,-1,22
 647 1296 647 1296 654 1296 c 128,-1,23
 661 1296 661 1296 666 1296 c 0,24,25
 680 1296 680 1296 694.5 1294 c 128,-1,26
 709 1292 709 1292 723 1284 c 1,0,-1
EndSplineSet
EndChar

StartChar: underscore
Encoding: 95 95 66
Width: 1029
Flags: W
LayerCount: 2
Fore
SplineSet
951 -324 m 1,0,-1
 -10 -324 l 1,1,-1
 -10 -252 l 2,2,3
 -10 -225 -10 -225 0 -209.5 c 128,-1,4
 10 -194 10 -194 27 -186 c 128,-1,5
 44 -178 44 -178 67 -176 c 128,-1,6
 90 -174 90 -174 116 -174 c 0,7,8
 130 -174 130 -174 144.5 -174.5 c 128,-1,9
 159 -175 159 -175 173 -175 c 2,10,-1
 1039 -175 l 1,11,-1
 1039 -244 l 2,12,13
 1039 -281 1039 -281 1014.5 -298 c 128,-1,14
 990 -315 990 -315 951 -324 c 1,0,-1
EndSplineSet
EndChar

StartChar: grave
Encoding: 96 96 67
Width: 1203
Flags: W
LayerCount: 2
Fore
SplineSet
658 1191 m 1,0,-1
 364 1537 l 1,1,-1
 672 1537 l 1,2,-1
 842 1192 l 1,3,4
 796 1192 796 1192 750 1191.5 c 128,-1,5
 704 1191 704 1191 658 1191 c 1,0,-1
EndSplineSet
EndChar

StartChar: a
Encoding: 97 97 68
Width: 1291
Flags: W
LayerCount: 2
Fore
SplineSet
1213 123 m 1,0,-1
 1213 26 l 1,1,2
 1150 7 1150 7 1073.5 -1.5 c 128,-1,3
 997 -10 997 -10 909 -10 c 0,4,5
 879 -10 879 -10 854 -6.5 c 128,-1,6
 829 -3 829 -3 809 6 c 1,7,8
 765 43 765 43 744 109 c 1,9,10
 684 50 684 50 609 13.5 c 128,-1,11
 534 -23 534 -23 438 -23 c 0,12,13
 363 -23 363 -23 300 -4 c 128,-1,14
 237 15 237 15 192 52 c 128,-1,15
 147 89 147 89 122 144 c 128,-1,16
 97 199 97 199 97 272 c 0,17,18
 97 432 97 432 233.5 512.5 c 128,-1,19
 370 593 370 593 649 593 c 2,20,-1
 735 593 l 1,21,-1
 735 645 l 2,22,23
 735 783 735 783 707.5 845 c 128,-1,24
 680 907 680 907 611 907 c 0,25,26
 566 907 566 907 525 891 c 128,-1,27
 484 875 484 875 447 846.5 c 128,-1,28
 410 818 410 818 376.5 779 c 128,-1,29
 343 740 343 740 312 695 c 1,30,-1
 124 815 l 1,31,32
 128 860 128 860 166.5 900 c 128,-1,33
 205 940 205 940 268 970 c 128,-1,34
 331 1000 331 1000 413 1017 c 128,-1,35
 495 1034 495 1034 586 1034 c 0,36,37
 815 1034 815 1034 931 941 c 128,-1,38
 1047 848 1047 848 1047 643 c 0,39,40
 1047 623 1047 623 1047 598.5 c 128,-1,41
 1047 574 1047 574 1046.5 533.5 c 128,-1,42
 1046 493 1046 493 1046 430.5 c 128,-1,43
 1046 368 1046 368 1046 271 c 0,44,45
 1046 218 1046 218 1049.5 182 c 128,-1,46
 1053 146 1053 146 1058 124 c 1,47,48
 1075 123 1075 123 1093.5 123 c 128,-1,49
 1112 123 1112 123 1131 123 c 2,50,-1
 1213 123 l 1,0,-1
727 198 m 1,51,52
 730 259 730 259 732.5 327.5 c 128,-1,53
 735 396 735 396 735 477 c 1,54,-1
 639 477 l 2,55,56
 527 477 527 477 466.5 426 c 128,-1,57
 406 375 406 375 406 281 c 0,58,59
 406 196 406 196 443.5 157.5 c 128,-1,60
 481 119 481 119 542 119 c 0,61,62
 587 119 587 119 634 140.5 c 128,-1,63
 681 162 681 162 727 198 c 1,51,52
EndSplineSet
EndChar

StartChar: b
Encoding: 98 98 69
Width: 1383
Flags: W
LayerCount: 2
Fore
SplineSet
145 8 m 1,0,-1
 151 93 l 1,1,2
 175 108 175 108 188 127.5 c 128,-1,3
 201 147 201 147 208 175.5 c 128,-1,4
 215 204 215 204 216.5 242.5 c 128,-1,5
 218 281 218 281 218 333 c 2,6,-1
 218 1244 l 2,7,8
 218 1299 218 1299 215 1350 c 1,9,10
 195 1353 195 1353 173.5 1355 c 128,-1,11
 152 1357 152 1357 128 1357 c 2,12,-1
 36 1357 l 1,13,-1
 36 1457 l 1,14,15
 109 1475 109 1475 205 1484 c 128,-1,16
 301 1493 301 1493 418 1493 c 0,17,18
 457 1493 457 1493 479.5 1485 c 128,-1,19
 502 1477 502 1477 513.5 1463 c 128,-1,20
 525 1449 525 1449 528 1429 c 128,-1,21
 531 1409 531 1409 531 1384 c 2,22,-1
 531 925 l 1,23,24
 603 982 603 982 681 1008.5 c 128,-1,25
 759 1035 759 1035 843 1035 c 0,26,27
 948 1035 948 1035 1029.5 997 c 128,-1,28
 1111 959 1111 959 1166.5 891.5 c 128,-1,29
 1222 824 1222 824 1250.5 732 c 128,-1,30
 1279 640 1279 640 1279 531 c 0,31,32
 1279 403 1279 403 1241 305 c 128,-1,33
 1203 207 1203 207 1139.5 139.5 c 128,-1,34
 1076 72 1076 72 991.5 34.5 c 128,-1,35
 907 -3 907 -3 814 -9 c 0,36,37
 763 -12 763 -12 715 -12 c 0,38,39
 653 -11 653 -11 590.5 -9 c 128,-1,40
 528 -7 528 -7 459 -4 c 128,-1,41
 390 -1 390 -1 313 2.5 c 128,-1,42
 236 6 236 6 145 8 c 1,0,-1
954 525 m 0,43,44
 954 894 954 894 770 894 c 0,45,46
 660 894 660 894 541 808 c 1,47,48
 535 730 535 730 533 649 c 128,-1,49
 531 568 531 568 531 482 c 0,50,51
 531 394 531 394 532.5 302 c 128,-1,52
 534 210 534 210 538 120 c 1,53,54
 585 115 585 115 634.5 113 c 128,-1,55
 684 111 684 111 727 111 c 0,56,57
 832 111 832 111 893 215.5 c 128,-1,58
 954 320 954 320 954 525 c 0,43,44
EndSplineSet
EndChar

StartChar: c
Encoding: 99 99 70
Width: 1139
Flags: W
LayerCount: 2
Fore
SplineSet
1042 223 m 1,0,-1
 1058 78 l 1,1,2
 982 27 982 27 883.5 2 c 128,-1,3
 785 -23 785 -23 670 -23 c 0,4,5
 545 -23 545 -23 441 11.5 c 128,-1,6
 337 46 337 46 262.5 112.5 c 128,-1,7
 188 179 188 179 146.5 275.5 c 128,-1,8
 105 372 105 372 105 496 c 0,9,10
 105 631 105 631 151.5 732 c 128,-1,11
 198 833 198 833 277 900 c 128,-1,12
 356 967 356 967 461.5 1000.5 c 128,-1,13
 567 1034 567 1034 685 1034 c 0,14,15
 801 1034 801 1034 897.5 1005 c 128,-1,16
 994 976 994 976 1060 921 c 1,17,-1
 1043 721 l 1,18,-1
 875 721 l 1,19,20
 829 812 829 812 779.5 853 c 128,-1,21
 730 894 730 894 665 894 c 0,22,23
 612 894 612 894 568 869.5 c 128,-1,24
 524 845 524 845 491.5 799 c 128,-1,25
 459 753 459 753 441 687 c 128,-1,26
 423 621 423 621 423 539 c 0,27,28
 423 434 423 434 443 355.5 c 128,-1,29
 463 277 463 277 499 225.5 c 128,-1,30
 535 174 535 174 584.5 148.5 c 128,-1,31
 634 123 634 123 694 123 c 0,32,33
 745 123 745 123 790.5 129 c 128,-1,34
 836 135 836 135 878.5 147.5 c 128,-1,35
 921 160 921 160 961 179 c 128,-1,36
 1001 198 1001 198 1042 223 c 1,0,-1
EndSplineSet
EndChar

StartChar: d
Encoding: 100 100 71
Width: 1382
Flags: W
LayerCount: 2
Fore
SplineSet
1168 1396 m 2,0,-1
 1168 257 l 2,1,2
 1168 210 1168 210 1171 178 c 128,-1,3
 1174 146 1174 146 1179 123 c 1,4,-1
 1349 123 l 1,5,-1
 1349 25 l 1,6,7
 1280 8 1280 8 1204 -1.5 c 128,-1,8
 1128 -11 1128 -11 1046 -11 c 0,9,10
 1002 -11 1002 -11 972.5 -6 c 128,-1,11
 943 -1 943 -1 923.5 13 c 128,-1,12
 904 27 904 27 893 52.5 c 128,-1,13
 882 78 882 78 875 119 c 1,14,15
 815 44 815 44 732.5 10.5 c 128,-1,16
 650 -23 650 -23 555 -23 c 0,17,18
 458 -23 458 -23 375.5 13 c 128,-1,19
 293 49 293 49 232.5 116 c 128,-1,20
 172 183 172 183 138 277.5 c 128,-1,21
 104 372 104 372 104 489 c 0,22,23
 104 618 104 618 135.5 719.5 c 128,-1,24
 167 821 167 821 226.5 892 c 128,-1,25
 286 963 286 963 371.5 1000.5 c 128,-1,26
 457 1038 457 1038 565 1038 c 0,27,28
 725 1038 725 1038 856 947 c 1,29,-1
 856 1270 l 2,30,31
 856 1291 856 1291 855 1311 c 128,-1,32
 854 1331 854 1331 852 1350 c 1,33,34
 832 1353 832 1353 811 1355 c 128,-1,35
 790 1357 790 1357 765 1357 c 2,36,-1
 673 1357 l 1,37,-1
 673 1457 l 1,38,39
 751 1476 751 1476 852 1485 c 128,-1,40
 953 1494 953 1494 1087 1494 c 0,41,42
 1115 1494 1115 1494 1131.5 1488.5 c 128,-1,43
 1148 1483 1148 1483 1156 1471 c 128,-1,44
 1164 1459 1164 1459 1166 1440.5 c 128,-1,45
 1168 1422 1168 1422 1168 1396 c 2,0,-1
859 288 m 1,46,47
 859 428 859 428 858 559.5 c 128,-1,48
 857 691 857 691 853 821 c 1,49,50
 808 856 808 856 752 875 c 128,-1,51
 696 894 696 894 650 894 c 0,52,53
 586 894 586 894 543.5 860.5 c 128,-1,54
 501 827 501 827 476 772 c 128,-1,55
 451 717 451 717 441 646 c 128,-1,56
 431 575 431 575 431 500 c 0,57,58
 431 307 431 307 484.5 215 c 128,-1,59
 538 123 538 123 646 123 c 0,60,61
 718 123 718 123 774 166 c 128,-1,62
 830 209 830 209 859 288 c 1,46,47
EndSplineSet
EndChar

StartChar: e
Encoding: 101 101 72
Width: 1211
Flags: W
LayerCount: 2
Fore
SplineSet
1028 224 m 1,0,-1
 1081 132 l 1,1,2
 1012 52 1012 52 909.5 14.5 c 128,-1,3
 807 -23 807 -23 670 -23 c 0,4,5
 541 -23 541 -23 436.5 12.5 c 128,-1,6
 332 48 332 48 258.5 115.5 c 128,-1,7
 185 183 185 183 145 282 c 128,-1,8
 105 381 105 381 105 509 c 0,9,10
 105 628 105 628 145 725 c 128,-1,11
 185 822 185 822 258.5 890.5 c 128,-1,12
 332 959 332 959 436 996.5 c 128,-1,13
 540 1034 540 1034 669 1034 c 0,14,15
 765 1034 765 1034 847 1007 c 128,-1,16
 929 980 929 980 989 929 c 128,-1,17
 1049 878 1049 878 1082.5 804.5 c 128,-1,18
 1116 731 1116 731 1116 638 c 0,19,20
 1116 582 1116 582 1105 548 c 128,-1,21
 1094 514 1094 514 1071 495.5 c 128,-1,22
 1048 477 1048 477 1012 471 c 128,-1,23
 976 465 976 465 927 465 c 2,24,-1
 424 465 l 1,25,26
 441 304 441 304 522.5 219 c 128,-1,27
 604 134 604 134 747 134 c 0,28,29
 819 134 819 134 889 155.5 c 128,-1,30
 959 177 959 177 1028 224 c 1,0,-1
423 597 m 1,31,-1
 816 597 l 1,32,33
 817 602 817 602 817 606 c 128,-1,34
 817 610 817 610 817 615 c 0,35,36
 817 674 817 674 806.5 726 c 128,-1,37
 796 778 796 778 773.5 816.5 c 128,-1,38
 751 855 751 855 716 877.5 c 128,-1,39
 681 900 681 900 632 900 c 0,40,41
 536 900 536 900 485 823.5 c 128,-1,42
 434 747 434 747 423 597 c 1,31,-1
EndSplineSet
EndChar

StartChar: f
Encoding: 102 102 73
Width: 842
Flags: W
LayerCount: 2
Fore
SplineSet
121 -12 m 1,0,-1
 125 95 l 1,1,2
 176 101 176 101 203.5 108 c 128,-1,3
 231 115 231 115 244.5 128.5 c 128,-1,4
 258 142 258 142 260.5 164 c 128,-1,5
 263 186 263 186 263 222 c 2,6,-1
 263 870 l 1,7,-1
 47 870 l 1,8,-1
 47 925 l 2,9,10
 47 952 47 952 59 968 c 128,-1,11
 71 984 71 984 90 993 c 128,-1,12
 109 1002 109 1002 131.5 1005 c 128,-1,13
 154 1008 154 1008 174 1008 c 2,14,-1
 263 1008 l 1,15,-1
 263 1087 l 2,16,17
 263 1196 263 1196 300 1273 c 128,-1,18
 337 1350 337 1350 399 1398.5 c 128,-1,19
 461 1447 461 1447 543 1469 c 128,-1,20
 625 1491 625 1491 715 1491 c 0,21,22
 804 1491 804 1491 871.5 1475 c 128,-1,23
 939 1459 939 1459 990 1434 c 1,24,-1
 990 1210 l 1,25,-1
 828 1210 l 1,26,27
 808 1278 808 1278 780 1315.5 c 128,-1,28
 752 1353 752 1353 725 1357 c 1,29,30
 686 1357 686 1357 658 1348 c 128,-1,31
 630 1339 630 1339 612 1314.5 c 128,-1,32
 594 1290 594 1290 585 1245.5 c 128,-1,33
 576 1201 576 1201 576 1131 c 2,34,-1
 576 1008 l 1,35,-1
 847 1008 l 1,36,-1
 847 946 l 2,37,38
 847 920 847 920 836.5 904.5 c 128,-1,39
 826 889 826 889 808 881.5 c 128,-1,40
 790 874 790 874 766.5 872 c 128,-1,41
 743 870 743 870 716 870 c 2,42,-1
 576 870 l 1,43,-1
 576 269 l 2,44,45
 576 220 576 220 578.5 189.5 c 128,-1,46
 581 159 581 159 595.5 140 c 128,-1,47
 610 121 610 121 641 111.5 c 128,-1,48
 672 102 672 102 730 95 c 1,49,-1
 739 -12 l 1,50,-1
 621 -7 l 2,51,52
 558 -5 558 -5 508 -2.5 c 128,-1,53
 458 0 458 0 416 0 c 0,54,55
 348 0 348 0 276 -3 c 128,-1,56
 204 -6 204 -6 121 -12 c 1,0,-1
EndSplineSet
EndChar

StartChar: g
Encoding: 103 103 74
Width: 1135
Flags: W
LayerCount: 2
Fore
SplineSet
714 657 m 0,0,1
 714 779 714 779 670.5 841 c 128,-1,2
 627 903 627 903 546 903 c 0,3,4
 458 903 458 903 419 842.5 c 128,-1,5
 380 782 380 782 380 657 c 0,6,7
 380 598 380 598 392 555.5 c 128,-1,8
 404 513 404 513 425.5 486 c 128,-1,9
 447 459 447 459 477.5 446 c 128,-1,10
 508 433 508 433 545 433 c 0,11,12
 583 433 583 433 614.5 446 c 128,-1,13
 646 459 646 459 668 486.5 c 128,-1,14
 690 514 690 514 702 556 c 128,-1,15
 714 598 714 598 714 657 c 0,0,1
832 -156 m 0,16,17
 832 -114 832 -114 821.5 -84 c 128,-1,18
 811 -54 811 -54 783.5 -34.5 c 128,-1,19
 756 -15 756 -15 707.5 -6 c 128,-1,20
 659 3 659 3 583 3 c 0,21,22
 556 3 556 3 527.5 2.5 c 128,-1,23
 499 2 499 2 473.5 1 c 128,-1,24
 448 0 448 0 427.5 -0.5 c 128,-1,25
 407 -1 407 -1 396 -1 c 1,26,27
 387 -10 387 -10 372.5 -28 c 128,-1,28
 358 -46 358 -46 344 -68 c 128,-1,29
 330 -90 330 -90 320 -113.5 c 128,-1,30
 310 -137 310 -137 310 -156 c 0,31,32
 310 -188 310 -188 321 -216.5 c 128,-1,33
 332 -245 332 -245 359 -266.5 c 128,-1,34
 386 -288 386 -288 431 -300.5 c 128,-1,35
 476 -313 476 -313 544 -313 c 0,36,37
 627 -313 627 -313 682.5 -301.5 c 128,-1,38
 738 -290 738 -290 771 -269.5 c 128,-1,39
 804 -249 804 -249 818 -220 c 128,-1,40
 832 -191 832 -191 832 -156 c 0,16,17
775 989 m 1,41,-1
 1079 1016 l 1,42,43
 1093 1007 1093 1007 1100.5 994.5 c 128,-1,44
 1108 982 1108 982 1111.5 964.5 c 128,-1,45
 1115 947 1115 947 1115.5 923.5 c 128,-1,46
 1116 900 1116 900 1116 869 c 1,47,48
 1063 869 1063 869 1010.5 868.5 c 128,-1,49
 958 868 958 868 904 868 c 1,50,51
 948 814 948 814 968.5 765.5 c 128,-1,52
 989 717 989 717 989 660 c 0,53,54
 989 580 989 580 961.5 514.5 c 128,-1,55
 934 449 934 449 876 402.5 c 128,-1,56
 818 356 818 356 729.5 331 c 128,-1,57
 641 306 641 306 519 306 c 0,58,59
 497 306 497 306 474 307.5 c 128,-1,60
 451 309 451 309 429.5 311 c 128,-1,61
 408 313 408 313 390 315.5 c 128,-1,62
 372 318 372 318 362 320 c 1,63,64
 358 314 358 314 349.5 290.5 c 128,-1,65
 341 267 341 267 341 238 c 0,66,67
 341 219 341 219 347 207 c 128,-1,68
 353 195 353 195 370.5 187.5 c 128,-1,69
 388 180 388 180 420 177 c 128,-1,70
 452 174 452 174 504 174 c 0,71,72
 576 174 576 174 647 172.5 c 128,-1,73
 718 171 718 171 782 163 c 128,-1,74
 846 155 846 155 901 137.5 c 128,-1,75
 956 120 956 120 996 88 c 128,-1,76
 1036 56 1036 56 1058.5 7.5 c 128,-1,77
 1081 -41 1081 -41 1081 -112 c 0,78,79
 1081 -204 1081 -204 1042 -268 c 128,-1,80
 1003 -332 1003 -332 929.5 -373 c 128,-1,81
 856 -414 856 -414 751 -432.5 c 128,-1,82
 646 -451 646 -451 515 -451 c 0,83,84
 396 -451 396 -451 310 -431.5 c 128,-1,85
 224 -412 224 -412 168.5 -377 c 128,-1,86
 113 -342 113 -342 86.5 -293 c 128,-1,87
 60 -244 60 -244 60 -184 c 0,88,89
 60 -111 60 -111 109 -59 c 128,-1,90
 158 -7 158 -7 263 25 c 1,91,92
 213 41 213 41 186.5 82 c 128,-1,93
 160 123 160 123 160 173 c 0,94,95
 160 241 160 241 188.5 290 c 128,-1,96
 217 339 217 339 275 364 c 1,97,98
 188 407 188 407 144 484.5 c 128,-1,99
 100 562 100 562 100 665 c 0,100,101
 100 753 100 753 132.5 821 c 128,-1,102
 165 889 165 889 224.5 935 c 128,-1,103
 284 981 284 981 367.5 1005 c 128,-1,104
 451 1029 451 1029 552 1029 c 0,105,106
 613 1029 613 1029 669.5 1018 c 128,-1,107
 726 1007 726 1007 775 989 c 1,41,-1
EndSplineSet
EndChar

StartChar: h
Encoding: 104 104 75
Width: 1417
Flags: W
LayerCount: 2
Fore
SplineSet
1356 123 m 1,0,-1
 1362 17 l 1,1,2
 1291 0 1291 0 1212 -8.5 c 128,-1,3
 1133 -17 1133 -17 1055 -17 c 0,4,5
 1016 -17 1016 -17 984 -12 c 128,-1,6
 952 -7 952 -7 929 4 c 128,-1,7
 906 15 906 15 893.5 33.5 c 128,-1,8
 881 52 881 52 881 79 c 0,9,10
 881 118 881 118 882 166 c 128,-1,11
 883 214 883 214 884 267.5 c 128,-1,12
 885 321 885 321 886 377 c 128,-1,13
 887 433 887 433 887 487 c 2,14,-1
 887 509 l 2,15,16
 887 584 887 584 885 651.5 c 128,-1,17
 883 719 883 719 871 769.5 c 128,-1,18
 859 820 859 820 833.5 850 c 128,-1,19
 808 880 808 880 761 880 c 0,20,21
 724 880 724 880 688.5 868.5 c 128,-1,22
 653 857 653 857 622 838 c 128,-1,23
 591 819 591 819 567.5 794 c 128,-1,24
 544 769 544 769 531 743 c 1,25,-1
 531 262 l 2,26,27
 531 218 531 218 532.5 189.5 c 128,-1,28
 534 161 534 161 544 143 c 128,-1,29
 554 125 554 125 576 115 c 128,-1,30
 598 105 598 105 638 98 c 1,31,-1
 647 -12 l 1,32,-1
 608 -10 l 2,33,34
 520 -5 520 -5 460 -2.5 c 128,-1,35
 400 0 400 0 360 0 c 0,36,37
 294 0 294 0 229 -3 c 128,-1,38
 164 -6 164 -6 95 -12 c 1,39,-1
 100 97 l 1,40,41
 142 103 142 103 165.5 110.5 c 128,-1,42
 189 118 189 118 200.5 133 c 128,-1,43
 212 148 212 148 215 174 c 128,-1,44
 218 200 218 200 218 242 c 2,45,-1
 218 1273 l 2,46,47
 218 1295 218 1295 217 1314 c 128,-1,48
 216 1333 216 1333 212 1350 c 1,49,50
 193 1353 193 1353 172 1355 c 128,-1,51
 151 1357 151 1357 127 1357 c 2,52,-1
 36 1357 l 1,53,-1
 36 1457 l 1,54,55
 117 1477 117 1477 214.5 1485.5 c 128,-1,56
 312 1494 312 1494 422 1494 c 0,57,58
 459 1494 459 1494 480.5 1490 c 128,-1,59
 502 1486 502 1486 513.5 1475 c 128,-1,60
 525 1464 525 1464 528 1443.5 c 128,-1,61
 531 1423 531 1423 531 1390 c 2,62,-1
 531 901 l 1,63,64
 606 963 606 963 702.5 998.5 c 128,-1,65
 799 1034 799 1034 901 1034 c 0,66,67
 1056 1034 1056 1034 1127.5 947.5 c 128,-1,68
 1199 861 1199 861 1199 697 c 2,69,-1
 1199 259 l 2,70,71
 1199 214 1199 214 1203 180.5 c 128,-1,72
 1207 147 1207 147 1212 123 c 1,73,-1
 1356 123 l 1,0,-1
EndSplineSet
EndChar

StartChar: i
Encoding: 105 105 76
Width: 728
Flags: W
LayerCount: 2
Fore
SplineSet
683 123 m 1,0,-1
 694 22 l 1,1,2
 551 -12 551 -12 386 -12 c 0,3,4
 349 -12 349 -12 317.5 -7 c 128,-1,5
 286 -2 286 -2 262.5 9 c 128,-1,6
 239 20 239 20 225.5 38.5 c 128,-1,7
 212 57 212 57 212 84 c 0,8,9
 212 103 212 103 213 128 c 128,-1,10
 214 153 214 153 215.5 179 c 128,-1,11
 217 205 217 205 218 231.5 c 128,-1,12
 219 258 219 258 219 282 c 2,13,-1
 219 801 l 2,14,15
 219 819 219 819 218 838 c 128,-1,16
 217 857 217 857 215 874 c 1,17,18
 199 879 199 879 181 880.5 c 128,-1,19
 163 882 163 882 143 882 c 2,20,-1
 38 882 l 1,21,-1
 38 993 l 1,22,23
 68 999 68 999 109.5 1005 c 128,-1,24
 151 1011 151 1011 196 1015 c 128,-1,25
 241 1019 241 1019 287 1021.5 c 128,-1,26
 333 1024 333 1024 372 1024 c 0,27,28
 419 1024 419 1024 455.5 1018.5 c 128,-1,29
 492 1013 492 1013 524 988 c 1,30,31
 527 974 527 974 529 959 c 128,-1,32
 531 944 531 944 531 929 c 2,33,-1
 531 286 l 2,34,35
 531 235 531 235 534.5 194 c 128,-1,36
 538 153 538 153 544 123 c 1,37,-1
 683 123 l 1,0,-1
188 1335 m 0,38,39
 188 1371 188 1371 202.5 1398.5 c 128,-1,40
 217 1426 217 1426 242.5 1444.5 c 128,-1,41
 268 1463 268 1463 301.5 1472.5 c 128,-1,42
 335 1482 335 1482 373 1482 c 0,43,44
 412 1482 412 1482 446 1472 c 128,-1,45
 480 1462 480 1462 505 1443 c 128,-1,46
 530 1424 530 1424 544.5 1396.5 c 128,-1,47
 559 1369 559 1369 559 1335 c 0,48,49
 559 1299 559 1299 543.5 1271.5 c 128,-1,50
 528 1244 528 1244 502.5 1226 c 128,-1,51
 477 1208 477 1208 443 1198.5 c 128,-1,52
 409 1189 409 1189 373 1189 c 0,53,54
 334 1189 334 1189 300.5 1199 c 128,-1,55
 267 1209 267 1209 242 1228 c 128,-1,56
 217 1247 217 1247 202.5 1274 c 128,-1,57
 188 1301 188 1301 188 1335 c 0,38,39
EndSplineSet
EndChar

StartChar: j
Encoding: 106 106 77
Width: 897
Flags: W
LayerCount: 2
Fore
SplineSet
343 1349 m 0,0,1
 343 1385 343 1385 357.5 1413 c 128,-1,2
 372 1441 372 1441 397.5 1459.5 c 128,-1,3
 423 1478 423 1478 456.5 1487.5 c 128,-1,4
 490 1497 490 1497 528 1497 c 0,5,6
 568 1497 568 1497 601.5 1487 c 128,-1,7
 635 1477 635 1477 660 1458 c 128,-1,8
 685 1439 685 1439 699 1411.5 c 128,-1,9
 713 1384 713 1384 713 1349 c 0,10,11
 713 1313 713 1313 697.5 1286 c 128,-1,12
 682 1259 682 1259 656.5 1241 c 128,-1,13
 631 1223 631 1223 597.5 1213.5 c 128,-1,14
 564 1204 564 1204 528 1204 c 0,15,16
 489 1204 489 1204 455 1214 c 128,-1,17
 421 1224 421 1224 396.5 1243 c 128,-1,18
 372 1262 372 1262 357.5 1289 c 128,-1,19
 343 1316 343 1316 343 1349 c 0,0,1
685 968 m 1,20,21
 685 734 685 734 684.5 503.5 c 128,-1,22
 684 273 684 273 684 39 c 0,23,24
 684 -187 684 -187 587 -299.5 c 128,-1,25
 490 -412 490 -412 299 -412 c 0,26,27
 251 -412 251 -412 206.5 -406.5 c 128,-1,28
 162 -401 162 -401 126 -392.5 c 128,-1,29
 90 -384 90 -384 64.5 -373.5 c 128,-1,30
 39 -363 39 -363 29 -354 c 1,31,-1
 61 -66 l 1,32,33
 73 -68 73 -68 92 -70.5 c 128,-1,34
 111 -73 111 -73 132 -76.5 c 128,-1,35
 153 -80 153 -80 174.5 -83 c 128,-1,36
 196 -86 196 -86 215 -89 c 1,37,38
 216 -115 216 -115 218.5 -140.5 c 128,-1,39
 221 -166 221 -166 223 -188.5 c 128,-1,40
 225 -211 225 -211 227.5 -229.5 c 128,-1,41
 230 -248 230 -248 231 -258 c 1,42,43
 233 -259 233 -259 241.5 -261 c 128,-1,44
 250 -263 250 -263 260.5 -264.5 c 128,-1,45
 271 -266 271 -266 282.5 -267.5 c 128,-1,46
 294 -269 294 -269 303 -269 c 0,47,48
 330 -269 330 -269 348.5 -254.5 c 128,-1,49
 367 -240 367 -240 377.5 -213.5 c 128,-1,50
 388 -187 388 -187 392.5 -149 c 128,-1,51
 397 -111 397 -111 397 -63 c 0,52,53
 397 -50 397 -50 396.5 -35 c 128,-1,54
 396 -20 396 -20 393.5 6 c 128,-1,55
 391 32 391 32 387 73.5 c 128,-1,56
 383 115 383 115 377 181 c 0,57,58
 376 188 376 188 375.5 216.5 c 128,-1,59
 375 245 375 245 374.5 285.5 c 128,-1,60
 374 326 374 326 374 375.5 c 128,-1,61
 374 425 374 425 374 475.5 c 128,-1,62
 374 526 374 526 374 573.5 c 128,-1,63
 374 621 374 621 373.5 658 c 128,-1,64
 373 695 373 695 373 717.5 c 128,-1,65
 373 740 373 740 373 740 c 2,66,67
 373 774 373 774 372 808 c 128,-1,68
 371 842 371 842 369 874 c 1,69,70
 349 879 349 879 327.5 880.5 c 128,-1,71
 306 882 306 882 283 882 c 2,72,-1
 191 882 l 1,73,-1
 191 993 l 1,74,75
 221 1000 221 1000 256.5 1005.5 c 128,-1,76
 292 1011 292 1011 331 1015 c 128,-1,77
 370 1019 370 1019 410 1021.5 c 128,-1,78
 450 1024 450 1024 489 1024 c 0,79,80
 565 1024 565 1024 618 1010.5 c 128,-1,81
 671 997 671 997 685 968 c 1,20,21
EndSplineSet
EndChar

StartChar: k
Encoding: 107 107 78
Width: 1344
Flags: W
LayerCount: 2
Fore
SplineSet
94 -12 m 1,0,-1
 98 95 l 1,1,2
 137 101 137 101 160 106.5 c 128,-1,3
 183 112 183 112 195.5 125 c 128,-1,4
 208 138 208 138 212 161 c 128,-1,5
 216 184 216 184 216 223 c 2,6,-1
 216 1265 l 2,7,8
 216 1289 216 1289 215 1309.5 c 128,-1,9
 214 1330 214 1330 211 1349 c 1,10,11
 195 1352 195 1352 177.5 1354.5 c 128,-1,12
 160 1357 160 1357 139 1357 c 2,13,-1
 34 1357 l 1,14,-1
 34 1456 l 1,15,16
 119 1476 119 1476 226.5 1485 c 128,-1,17
 334 1494 334 1494 446 1496 c 1,18,19
 474 1488 474 1488 491 1475.5 c 128,-1,20
 508 1463 508 1463 516 1445 c 128,-1,21
 524 1427 524 1427 526.5 1402 c 128,-1,22
 529 1377 529 1377 529 1343 c 2,23,-1
 529 574 l 1,24,-1
 744 760 l 2,25,26
 783 794 783 794 811 821 c 128,-1,27
 839 848 839 848 839 863 c 0,28,29
 839 888 839 888 776 888 c 1,30,-1
 776 1008 l 1,31,-1
 1305 1008 l 1,32,-1
 1305 882 l 1,33,34
 1254 882 1254 882 1215.5 873.5 c 128,-1,35
 1177 865 1177 865 1145 850 c 128,-1,36
 1113 835 1113 835 1085.5 815 c 128,-1,37
 1058 795 1058 795 1030 772 c 2,38,-1
 807 584 l 1,39,-1
 1105 194 l 2,40,41
 1140 148 1140 148 1183.5 124 c 128,-1,42
 1227 100 1227 100 1294 100 c 0,43,44
 1302 100 1302 100 1309.5 100 c 128,-1,45
 1317 100 1317 100 1325 101 c 1,46,-1
 1343 -13 l 1,47,48
 1280 -6 1280 -6 1209 -3 c 128,-1,49
 1138 0 1138 0 1055 0 c 0,50,51
 979 0 979 0 909.5 -3 c 128,-1,52
 840 -6 840 -6 772 -12 c 1,53,-1
 772 97 l 1,54,55
 789 97 789 97 802 98 c 128,-1,56
 815 99 815 99 822 105 c 1,57,58
 812 122 812 122 800 139 c 128,-1,59
 788 156 788 156 772 178 c 0,60,61
 721 248 721 248 671 319 c 128,-1,62
 621 390 621 390 572 462 c 1,63,-1
 529 432 l 1,64,-1
 529 228 l 2,65,66
 529 192 529 192 532 168.5 c 128,-1,67
 535 145 535 145 546.5 131 c 128,-1,68
 558 117 558 117 581 108.5 c 128,-1,69
 604 100 604 100 643 94 c 1,70,-1
 649 -12 l 1,71,72
 543 -7 543 -7 475 -3.5 c 128,-1,73
 407 0 407 0 365 0 c 0,74,75
 297 0 297 0 231 -3 c 128,-1,76
 165 -6 165 -6 94 -12 c 1,0,-1
EndSplineSet
EndChar

StartChar: l
Encoding: 108 108 79
Width: 727
Flags: W
LayerCount: 2
Fore
SplineSet
211 198 m 1,0,1
 214 261 214 261 214 332 c 2,2,-1
 214 1260 l 2,3,4
 214 1285 214 1285 212.5 1307.5 c 128,-1,5
 211 1330 211 1330 207 1350 c 1,6,7
 188 1353 188 1353 166.5 1355.5 c 128,-1,8
 145 1358 145 1358 121 1358 c 2,9,-1
 31 1358 l 1,10,-1
 31 1458 l 1,11,12
 102 1474 102 1474 187.5 1484 c 128,-1,13
 273 1494 273 1494 368 1494 c 0,14,15
 402 1494 402 1494 426 1492.5 c 128,-1,16
 450 1491 450 1491 468 1486 c 128,-1,17
 486 1481 486 1481 499 1472 c 128,-1,18
 512 1463 512 1463 524 1449 c 1,19,-1
 524 249 l 2,20,21
 524 204 524 204 527.5 173.5 c 128,-1,22
 531 143 531 143 536 122 c 1,23,-1
 697 122 l 1,24,-1
 697 22 l 1,25,26
 625 5 625 5 547 -3 c 128,-1,27
 469 -11 469 -11 381 -11 c 0,28,29
 318 -11 318 -11 271.5 7.5 c 128,-1,30
 225 26 225 26 208 77 c 1,31,32
 208 106 208 106 209.5 134 c 128,-1,33
 211 162 211 162 211 198 c 1,0,1
EndSplineSet
EndChar

StartChar: m
Encoding: 109 109 80
Width: 2054
Flags: W
LayerCount: 2
Fore
SplineSet
1523 278 m 2,0,-1
 1523 633 l 2,1,2
 1523 705 1523 705 1518.5 751.5 c 128,-1,3
 1514 798 1514 798 1502.5 825 c 128,-1,4
 1491 852 1491 852 1471.5 862 c 128,-1,5
 1452 872 1452 872 1422 872 c 0,6,7
 1381 872 1381 872 1345.5 861 c 128,-1,8
 1310 850 1310 850 1280.5 831.5 c 128,-1,9
 1251 813 1251 813 1228 789 c 128,-1,10
 1205 765 1205 765 1190 740 c 1,11,-1
 1190 225 l 2,12,13
 1190 189 1190 189 1193.5 166 c 128,-1,14
 1197 143 1197 143 1210 129 c 128,-1,15
 1223 115 1223 115 1247.5 106.5 c 128,-1,16
 1272 98 1272 98 1314 92 c 1,17,-1
 1319 -12 l 1,18,19
 1278 -9 1278 -9 1237 -7 c 128,-1,20
 1196 -5 1196 -5 1157 -3.5 c 128,-1,21
 1118 -2 1118 -2 1083 -1 c 128,-1,22
 1048 0 1048 0 1020 0 c 0,23,24
 887 0 887 0 779 -12 c 1,25,-1
 779 98 l 1,26,27
 816 104 816 104 836 111.5 c 128,-1,28
 856 119 856 119 865.5 132 c 128,-1,29
 875 145 875 145 876.5 166 c 128,-1,30
 878 187 878 187 878 221 c 2,31,-1
 878 633 l 2,32,33
 878 706 878 706 874 752.5 c 128,-1,34
 870 799 870 799 859.5 825 c 128,-1,35
 849 851 849 851 831 861 c 128,-1,36
 813 871 813 871 785 871 c 0,37,38
 746 871 746 871 708.5 860.5 c 128,-1,39
 671 850 671 850 638.5 832 c 128,-1,40
 606 814 606 814 581 790 c 128,-1,41
 556 766 556 766 543 739 c 1,42,-1
 543 248 l 2,43,44
 543 209 543 209 545 183.5 c 128,-1,45
 547 158 547 158 556 141 c 128,-1,46
 565 124 565 124 584 114 c 128,-1,47
 603 104 603 104 638 98 c 1,48,-1
 642 -12 l 1,49,50
 557 -6 557 -6 482 -3 c 128,-1,51
 407 0 407 0 335 0 c 0,52,53
 276 0 276 0 220 -3.5 c 128,-1,54
 164 -7 164 -7 110 -12 c 1,55,-1
 110 92 l 1,56,57
 153 95 153 95 177.5 103 c 128,-1,58
 202 111 202 111 214 126.5 c 128,-1,59
 226 142 226 142 228.5 165.5 c 128,-1,60
 231 189 231 189 231 224 c 2,61,-1
 231 797 l 2,62,63
 231 817 231 817 230 836.5 c 128,-1,64
 229 856 229 856 227 874 c 1,65,66
 204 879 204 879 179 880.5 c 128,-1,67
 154 882 154 882 127 882 c 2,68,-1
 49 882 l 1,69,-1
 49 991 l 1,70,71
 75 998 75 998 113 1003.5 c 128,-1,72
 151 1009 151 1009 195 1013.5 c 128,-1,73
 239 1018 239 1018 286 1020.5 c 128,-1,74
 333 1023 333 1023 377 1023 c 0,75,76
 410 1023 410 1023 445 1019.5 c 128,-1,77
 480 1016 480 1016 533 1006 c 1,78,79
 533 989 533 989 534 973 c 128,-1,80
 535 957 535 957 535 940 c 0,81,82
 535 930 535 930 534.5 918.5 c 128,-1,83
 534 907 534 907 534 888 c 1,84,85
 619 956 619 956 715.5 994.5 c 128,-1,86
 812 1033 812 1033 921 1033 c 0,87,88
 1109 1033 1109 1033 1171 888 c 1,89,90
 1207 916 1207 916 1247 942.5 c 128,-1,91
 1287 969 1287 969 1332.5 989.5 c 128,-1,92
 1378 1010 1378 1010 1430 1022.5 c 128,-1,93
 1482 1035 1482 1035 1541 1035 c 0,94,95
 1690 1035 1690 1035 1762.5 955.5 c 128,-1,96
 1835 876 1835 876 1835 718 c 2,97,-1
 1835 259 l 2,98,99
 1835 214 1835 214 1839 180.5 c 128,-1,100
 1843 147 1843 147 1848 123 c 1,101,-1
 1987 123 l 1,102,-1
 1998 17 l 1,103,104
 1856 -17 1856 -17 1690 -17 c 0,105,106
 1651 -17 1651 -17 1619 -12 c 128,-1,107
 1587 -7 1587 -7 1564 4 c 128,-1,108
 1541 15 1541 15 1528.5 33.5 c 128,-1,109
 1516 52 1516 52 1516 79 c 0,110,111
 1516 98 1516 98 1517 123 c 128,-1,112
 1518 148 1518 148 1519.5 174 c 128,-1,113
 1521 200 1521 200 1522 227 c 128,-1,114
 1523 254 1523 254 1523 278 c 2,0,-1
EndSplineSet
EndChar

StartChar: n
Encoding: 110 110 81
Width: 1438
Flags: W
LayerCount: 2
Fore
SplineSet
1219 706 m 2,0,-1
 1219 259 l 2,1,2
 1219 214 1219 214 1222.5 180.5 c 128,-1,3
 1226 147 1226 147 1232 123 c 1,4,-1
 1371 123 l 1,5,-1
 1383 17 l 1,6,7
 1240 -17 1240 -17 1074 -17 c 0,8,9
 1036 -17 1036 -17 1004.5 -12 c 128,-1,10
 973 -7 973 -7 950 4.5 c 128,-1,11
 927 16 927 16 914 34 c 128,-1,12
 901 52 901 52 901 79 c 0,13,14
 901 98 901 98 902 123.5 c 128,-1,15
 903 149 903 149 904 176 c 128,-1,16
 905 203 905 203 906 230.5 c 128,-1,17
 907 258 907 258 907 282 c 2,18,-1
 907 650 l 2,19,20
 907 711 907 711 897.5 753.5 c 128,-1,21
 888 796 888 796 870.5 823 c 128,-1,22
 853 850 853 850 828.5 862.5 c 128,-1,23
 804 875 804 875 775 875 c 256,24,25
 746 875 746 875 715 865 c 128,-1,26
 684 855 684 855 653.5 838.5 c 128,-1,27
 623 822 623 822 594.5 800 c 128,-1,28
 566 778 566 778 543 753 c 1,29,-1
 543 238 l 2,30,31
 543 201 543 201 546 177 c 128,-1,32
 549 153 549 153 560 138 c 128,-1,33
 571 123 571 123 592.5 114 c 128,-1,34
 614 105 614 105 650 98 c 1,35,-1
 660 -12 l 1,36,37
 563 -7 563 -7 491.5 -3.5 c 128,-1,38
 420 0 420 0 371 0 c 0,39,40
 233 0 233 0 107 -12 c 1,41,-1
 112 98 l 1,42,43
 154 103 154 103 177.5 110.5 c 128,-1,44
 201 118 201 118 213 133.5 c 128,-1,45
 225 149 225 149 228 175 c 128,-1,46
 231 201 231 201 231 243 c 2,47,-1
 231 801 l 2,48,49
 231 820 231 820 230 838.5 c 128,-1,50
 229 857 229 857 227 874 c 1,51,52
 213 879 213 879 198 880.5 c 128,-1,53
 183 882 183 882 163 882 c 2,54,-1
 49 882 l 1,55,-1
 49 993 l 1,56,57
 76 999 76 999 113.5 1004 c 128,-1,58
 151 1009 151 1009 193 1013.5 c 128,-1,59
 235 1018 235 1018 279 1020.5 c 128,-1,60
 323 1023 323 1023 364 1023 c 0,61,62
 399 1023 399 1023 435.5 1019.5 c 128,-1,63
 472 1016 472 1016 531 1006 c 1,64,-1
 531 889 l 1,65,66
 619 961 619 961 722.5 997 c 128,-1,67
 826 1033 826 1033 922 1033 c 0,68,69
 991 1033 991 1033 1046 1012 c 128,-1,70
 1101 991 1101 991 1139.5 949.5 c 128,-1,71
 1178 908 1178 908 1198.5 847 c 128,-1,72
 1219 786 1219 786 1219 706 c 2,0,-1
EndSplineSet
EndChar

StartChar: o
Encoding: 111 111 82
Width: 1330
Flags: W
LayerCount: 2
Fore
SplineSet
432 505 m 0,0,1
 432 306 432 306 488.5 211 c 128,-1,2
 545 116 545 116 665 116 c 0,3,4
 791 116 791 116 844 214 c 128,-1,5
 897 312 897 312 897 505 c 0,6,7
 897 701 897 701 841 797 c 128,-1,8
 785 893 785 893 665 893 c 0,9,10
 541 893 541 893 486.5 795.5 c 128,-1,11
 432 698 432 698 432 505 c 0,0,1
1225 504 m 0,12,13
 1225 370 1225 370 1179 271 c 128,-1,14
 1133 172 1133 172 1055.5 106.5 c 128,-1,15
 978 41 978 41 877 9 c 128,-1,16
 776 -23 776 -23 666 -23 c 0,17,18
 545 -23 545 -23 442 12.5 c 128,-1,19
 339 48 339 48 264 116 c 128,-1,20
 189 184 189 184 147 281.5 c 128,-1,21
 105 379 105 379 105 504 c 0,22,23
 105 636 105 636 150.5 735 c 128,-1,24
 196 834 196 834 273.5 901 c 128,-1,25
 351 968 351 968 452.5 1001.5 c 128,-1,26
 554 1035 554 1035 666 1035 c 0,27,28
 787 1035 787 1035 889.5 998.5 c 128,-1,29
 992 962 992 962 1066.5 893.5 c 128,-1,30
 1141 825 1141 825 1183 726.5 c 128,-1,31
 1225 628 1225 628 1225 504 c 0,12,13
EndSplineSet
EndChar

StartChar: p
Encoding: 112 112 83
Width: 1375
Flags: W
LayerCount: 2
Fore
SplineSet
511 1007 m 1,0,1
 511 1002 511 1002 511 988 c 128,-1,2
 511 974 511 974 511 959 c 128,-1,3
 511 944 511 944 511.5 931.5 c 128,-1,4
 512 919 512 919 513 917 c 1,5,6
 576 974 576 974 655 1004.5 c 128,-1,7
 734 1035 734 1035 827 1035 c 0,8,9
 931 1035 931 1035 1013.5 999.5 c 128,-1,10
 1096 964 1096 964 1153 897.5 c 128,-1,11
 1210 831 1210 831 1240 735 c 128,-1,12
 1270 639 1270 639 1270 519 c 0,13,14
 1270 387 1270 387 1234 286 c 128,-1,15
 1198 185 1198 185 1134.5 116 c 128,-1,16
 1071 47 1071 47 983.5 12 c 128,-1,17
 896 -23 896 -23 794 -23 c 0,18,19
 713 -23 713 -23 646 -0.5 c 128,-1,20
 579 22 579 22 522 64 c 1,21,22
 522 -29 522 -29 522 -83.5 c 128,-1,23
 522 -138 522 -138 521.5 -168 c 128,-1,24
 521 -198 521 -198 521 -210 c 128,-1,25
 521 -222 521 -222 521 -230 c 0,26,27
 521 -271 521 -271 524 -294 c 128,-1,28
 527 -317 527 -317 538.5 -330 c 128,-1,29
 550 -343 550 -343 573 -350 c 128,-1,30
 596 -357 596 -357 637 -364 c 1,31,-1
 647 -472 l 1,32,33
 601 -466 601 -466 564.5 -462 c 128,-1,34
 528 -458 528 -458 498 -455.5 c 128,-1,35
 468 -453 468 -453 441.5 -452 c 128,-1,36
 415 -451 415 -451 388 -451 c 0,37,38
 322 -451 322 -451 250 -454.5 c 128,-1,39
 178 -458 178 -458 87 -472 c 1,40,-1
 92 -363 l 1,41,42
 136 -356 136 -356 160 -348 c 128,-1,43
 184 -340 184 -340 195 -323 c 128,-1,44
 206 -306 206 -306 208 -276 c 128,-1,45
 210 -246 210 -246 210 -196 c 2,46,-1
 210 786 l 2,47,48
 210 809 210 809 209.5 831 c 128,-1,49
 209 853 209 853 207 874 c 1,50,51
 187 879 187 879 165 880.5 c 128,-1,52
 143 882 143 882 119 882 c 2,53,-1
 27 882 l 1,54,-1
 27 991 l 1,55,56
 53 997 53 997 91.5 1003 c 128,-1,57
 130 1009 130 1009 175 1013.5 c 128,-1,58
 220 1018 220 1018 268 1020.5 c 128,-1,59
 316 1023 316 1023 361 1023 c 0,60,61
 378 1023 378 1023 394 1022.5 c 128,-1,62
 410 1022 410 1022 427.5 1020.5 c 128,-1,63
 445 1019 445 1019 465.5 1015.5 c 128,-1,64
 486 1012 486 1012 511 1007 c 1,0,1
527 787 m 1,65,66
 526 724 526 724 525.5 658.5 c 128,-1,67
 525 593 525 593 525 528 c 0,68,69
 525 449 525 449 527.5 377.5 c 128,-1,70
 530 306 530 306 539 252 c 1,71,72
 572 188 572 188 617.5 155.5 c 128,-1,73
 663 123 663 123 728 123 c 0,74,75
 790 123 790 123 831.5 155 c 128,-1,76
 873 187 873 187 898.5 240.5 c 128,-1,77
 924 294 924 294 934.5 362.5 c 128,-1,78
 945 431 945 431 945 505 c 0,79,80
 945 697 945 697 904.5 792.5 c 128,-1,81
 864 888 864 888 776 888 c 0,82,83
 717 888 717 888 652.5 866 c 128,-1,84
 588 844 588 844 527 787 c 1,65,66
EndSplineSet
EndChar

StartChar: q
Encoding: 113 113 84
Width: 1341
Flags: W
LayerCount: 2
Fore
SplineSet
845 257 m 1,0,1
 845 411 845 411 845.5 550.5 c 128,-1,2
 846 690 846 690 846 828 c 1,3,4
 818 844 818 844 787.5 855.5 c 128,-1,5
 757 867 757 867 727.5 874.5 c 128,-1,6
 698 882 698 882 671 885 c 128,-1,7
 644 888 644 888 624 888 c 0,8,9
 429 888 429 888 429 508 c 0,10,11
 429 418 429 418 441 347 c 128,-1,12
 453 276 453 276 477.5 226 c 128,-1,13
 502 176 502 176 540 149.5 c 128,-1,14
 578 123 578 123 631 123 c 0,15,16
 662 123 662 123 693 134 c 128,-1,17
 724 145 724 145 752.5 163 c 128,-1,18
 781 181 781 181 804.5 205.5 c 128,-1,19
 828 230 828 230 845 257 c 1,0,1
858 1019 m 1,20,21
 874 1020 874 1020 881 1020.5 c 128,-1,22
 888 1021 888 1021 898.5 1021.5 c 128,-1,23
 909 1022 909 1022 930 1022.5 c 128,-1,24
 951 1023 951 1023 996 1023 c 0,25,26
 1030 1023 1030 1023 1068.5 1022.5 c 128,-1,27
 1107 1022 1107 1022 1144.5 1020 c 128,-1,28
 1182 1018 1182 1018 1217 1014.5 c 128,-1,29
 1252 1011 1252 1011 1280 1004 c 1,30,-1
 1280 925 l 1,31,32
 1260 914 1260 914 1239.5 899 c 128,-1,33
 1219 884 1219 884 1202.5 862.5 c 128,-1,34
 1186 841 1186 841 1175 813.5 c 128,-1,35
 1164 786 1164 786 1164 750 c 2,36,-1
 1164 -228 l 2,37,38
 1164 -268 1164 -268 1166 -291.5 c 128,-1,39
 1168 -315 1168 -315 1179 -328.5 c 128,-1,40
 1190 -342 1190 -342 1213.5 -349.5 c 128,-1,41
 1237 -357 1237 -357 1281 -364 c 1,42,-1
 1288 -472 l 1,43,44
 1196 -459 1196 -459 1129 -455 c 128,-1,45
 1062 -451 1062 -451 1009 -451 c 0,46,47
 958 -451 958 -451 888.5 -455.5 c 128,-1,48
 819 -460 819 -460 728 -472 c 1,49,-1
 735 -363 l 1,50,51
 774 -357 774 -357 797 -349.5 c 128,-1,52
 820 -342 820 -342 832.5 -327.5 c 128,-1,53
 845 -313 845 -313 848.5 -288 c 128,-1,54
 852 -263 852 -263 852 -222 c 2,55,-1
 852 64 l 1,56,57
 782 22 782 22 707.5 -0.5 c 128,-1,58
 633 -23 633 -23 553 -23 c 0,59,60
 455 -23 455 -23 372.5 14 c 128,-1,61
 290 51 290 51 230.5 120.5 c 128,-1,62
 171 190 171 190 137.5 289 c 128,-1,63
 104 388 104 388 104 511 c 0,64,65
 104 616 104 616 137 709.5 c 128,-1,66
 170 803 170 803 230 873.5 c 128,-1,67
 290 944 290 944 374.5 985 c 128,-1,68
 459 1026 459 1026 561 1026 c 0,69,70
 594 1026 594 1026 634.5 1019.5 c 128,-1,71
 675 1013 675 1013 716 1002.5 c 128,-1,72
 757 992 757 992 794.5 979.5 c 128,-1,73
 832 967 832 967 858 955 c 1,74,-1
 858 1019 l 1,20,21
EndSplineSet
EndChar

StartChar: r
Encoding: 114 114 85
Width: 1064
Flags: W
LayerCount: 2
Fore
SplineSet
532 1006 m 1,0,-1
 532 819 l 1,1,2
 568 868 568 868 605 908 c 128,-1,3
 642 948 642 948 684.5 976.5 c 128,-1,4
 727 1005 727 1005 776.5 1020 c 128,-1,5
 826 1035 826 1035 885 1035 c 0,6,7
 938 1035 938 1035 972.5 1027 c 128,-1,8
 1007 1019 1007 1019 1033 1009 c 1,9,-1
 1010 712 l 1,10,-1
 864 712 l 1,11,-1
 839 861 l 1,12,13
 828 862 828 862 819 862 c 128,-1,14
 810 862 810 862 802 862 c 0,15,16
 737 862 737 862 689 835 c 128,-1,17
 641 808 641 808 609.5 764 c 128,-1,18
 578 720 578 720 563 665 c 128,-1,19
 548 610 548 610 548 553 c 2,20,-1
 548 265 l 2,21,22
 548 217 548 217 550 187 c 128,-1,23
 552 157 552 157 563.5 138.5 c 128,-1,24
 575 120 575 120 600.5 110 c 128,-1,25
 626 100 626 100 673 93 c 1,26,-1
 683 -12 l 1,27,28
 571 -7 571 -7 497 -3.5 c 128,-1,29
 423 0 423 0 378 0 c 0,30,31
 312 0 312 0 247 -3 c 128,-1,32
 182 -6 182 -6 113 -12 c 1,33,-1
 118 93 l 1,34,35
 162 99 162 99 186 106.5 c 128,-1,36
 210 114 210 114 221.5 126.5 c 128,-1,37
 233 139 233 139 235 158 c 128,-1,38
 237 177 237 177 237 206 c 0,39,40
 237 208 237 208 237 215.5 c 128,-1,41
 237 223 237 223 237 244 c 128,-1,42
 237 265 237 265 236.5 304.5 c 128,-1,43
 236 344 236 344 236 410 c 128,-1,44
 236 476 236 476 236 572.5 c 128,-1,45
 236 669 236 669 236 806 c 0,46,47
 236 823 236 823 235.5 840.5 c 128,-1,48
 235 858 235 858 232 874 c 1,49,50
 218 878 218 878 203 880 c 128,-1,51
 188 882 188 882 169 882 c 2,52,-1
 55 882 l 1,53,-1
 55 991 l 1,54,55
 82 998 82 998 120.5 1003.5 c 128,-1,56
 159 1009 159 1009 203 1013 c 128,-1,57
 247 1017 247 1017 293.5 1019.5 c 128,-1,58
 340 1022 340 1022 384 1022 c 0,59,60
 400 1022 400 1022 415 1021.5 c 128,-1,61
 430 1021 430 1021 447 1019.5 c 128,-1,62
 464 1018 464 1018 484.5 1015 c 128,-1,63
 505 1012 505 1012 532 1006 c 1,0,-1
EndSplineSet
EndChar

StartChar: s
Encoding: 115 115 86
Width: 1053
Flags: W
LayerCount: 2
Fore
SplineSet
126 344 m 1,0,-1
 313 309 l 1,1,-1
 328 148 l 1,2,3
 360 131 360 131 400.5 123 c 128,-1,4
 441 115 441 115 497 115 c 0,5,6
 576 115 576 115 616.5 151.5 c 128,-1,7
 657 188 657 188 657 241 c 0,8,9
 657 270 657 270 641 293.5 c 128,-1,10
 625 317 625 317 599 336 c 128,-1,11
 573 355 573 355 539 370.5 c 128,-1,12
 505 386 505 386 469 399.5 c 128,-1,13
 433 413 433 413 398.5 425 c 128,-1,14
 364 437 364 437 335 450 c 0,15,16
 276 475 276 475 231 503.5 c 128,-1,17
 186 532 186 532 154.5 566 c 128,-1,18
 123 600 123 600 107 642 c 128,-1,19
 91 684 91 684 91 737 c 0,20,21
 91 877 91 877 207 956 c 128,-1,22
 323 1035 323 1035 548 1035 c 0,23,24
 669 1035 669 1035 760.5 1012.5 c 128,-1,25
 852 990 852 990 909 949 c 1,26,27
 903 908 903 908 888.5 842.5 c 128,-1,28
 874 777 874 777 860 708 c 1,29,-1
 698 734 l 1,30,31
 695 774 695 774 692.5 809 c 128,-1,32
 690 844 690 844 687 873 c 1,33,34
 654 889 654 889 615 893.5 c 128,-1,35
 576 898 576 898 528 898 c 0,36,37
 456 898 456 898 418 868.5 c 128,-1,38
 380 839 380 839 380 785 c 0,39,40
 380 743 380 743 410 714.5 c 128,-1,41
 440 686 440 686 485.5 664 c 128,-1,42
 531 642 531 642 584.5 624.5 c 128,-1,43
 638 607 638 607 686 588 c 0,44,45
 830 530 830 530 899 460.5 c 128,-1,46
 968 391 968 391 968 296 c 0,47,48
 968 211 968 211 933 150.5 c 128,-1,49
 898 90 898 90 837.5 51.5 c 128,-1,50
 777 13 777 13 696 -5 c 128,-1,51
 615 -23 615 -23 524 -23 c 0,52,53
 464 -23 464 -23 398 -15 c 128,-1,54
 332 -7 332 -7 271.5 7.5 c 128,-1,55
 211 22 211 22 159.5 41.5 c 128,-1,56
 108 61 108 61 77 85 c 1,57,-1
 126 344 l 1,0,-1
EndSplineSet
EndChar

StartChar: t
Encoding: 116 116 87
Width: 978
Flags: W
LayerCount: 2
Fore
SplineSet
226 1008 m 1,0,-1
 251 1179 l 2,1,2
 255 1203 255 1203 264 1230.5 c 128,-1,3
 273 1258 273 1258 284 1284 c 2,4,-1
 299 1322 l 1,5,-1
 526 1322 l 1,6,-1
 526 1008 l 1,7,-1
 834 1008 l 1,8,-1
 834 956 l 2,9,10
 834 929 834 929 826 913 c 128,-1,11
 818 897 818 897 804 889 c 128,-1,12
 790 881 790 881 770.5 878.5 c 128,-1,13
 751 876 751 876 728 876 c 0,14,15
 715 876 715 876 701 876.5 c 128,-1,16
 687 877 687 877 673 877 c 2,17,-1
 526 877 l 1,18,-1
 526 324 l 2,19,20
 526 222 526 222 549 175 c 128,-1,21
 572 128 572 128 632 128 c 0,22,23
 652 128 652 128 669.5 135.5 c 128,-1,24
 687 143 687 143 701 154 c 128,-1,25
 715 165 715 165 724 177.5 c 128,-1,26
 733 190 733 190 735 199 c 0,27,28
 736 202 736 202 738 214.5 c 128,-1,29
 740 227 740 227 742.5 244.5 c 128,-1,30
 745 262 745 262 748 282.5 c 128,-1,31
 751 303 751 303 753 321 c 1,32,-1
 934 321 l 1,33,-1
 934 70 l 1,34,35
 863 26 863 26 772 5 c 128,-1,36
 681 -16 681 -16 570 -16 c 0,37,38
 400 -16 400 -16 307 61.5 c 128,-1,39
 214 139 214 139 214 306 c 2,40,-1
 214 877 l 1,41,-1
 20 877 l 1,42,-1
 20 940 l 2,43,44
 20 966 20 966 35.5 976.5 c 128,-1,45
 51 987 51 987 78 992 c 0,46,47
 114 998 114 998 152 1001 c 128,-1,48
 190 1004 190 1004 226 1008 c 1,0,-1
EndSplineSet
EndChar

StartChar: u
Encoding: 117 117 88
Width: 1359
Flags: W
LayerCount: 2
Fore
SplineSet
1201 968 m 1,0,-1
 1201 270 l 2,1,2
 1201 218 1201 218 1205 182 c 128,-1,3
 1209 146 1209 146 1214 123 c 1,4,-1
 1371 123 l 1,5,-1
 1371 25 l 1,6,7
 1298 8 1298 8 1220.5 -2 c 128,-1,8
 1143 -12 1143 -12 1058 -12 c 0,9,10
 1012 -12 1012 -12 979.5 -8 c 128,-1,11
 947 -4 947 -4 925.5 9.5 c 128,-1,12
 904 23 904 23 894 47 c 128,-1,13
 884 71 884 71 883 112 c 1,14,15
 846 84 846 84 807.5 59.5 c 128,-1,16
 769 35 769 35 726 16.5 c 128,-1,17
 683 -2 683 -2 633 -12.5 c 128,-1,18
 583 -23 583 -23 523 -23 c 0,19,20
 372 -23 372 -23 294 60 c 128,-1,21
 216 143 216 143 216 298 c 2,22,-1
 216 791 l 2,23,24
 216 815 216 815 214.5 836 c 128,-1,25
 213 857 213 857 211 877 c 1,26,27
 193 880 193 880 173.5 881 c 128,-1,28
 154 882 154 882 133 882 c 2,29,-1
 56 882 l 1,30,-1
 50 993 l 1,31,32
 78 999 78 999 113 1004.5 c 128,-1,33
 148 1010 148 1010 188 1014.5 c 128,-1,34
 228 1019 228 1019 270 1021.5 c 128,-1,35
 312 1024 312 1024 354 1024 c 0,36,37
 429 1024 429 1024 474 1011.5 c 128,-1,38
 519 999 519 999 527 968 c 1,39,40
 527 803 527 803 527.5 641.5 c 128,-1,41
 528 480 528 480 528 315 c 0,42,43
 528 279 528 279 531 245.5 c 128,-1,44
 534 212 534 212 545 185.5 c 128,-1,45
 556 159 556 159 579 143.5 c 128,-1,46
 602 128 602 128 643 128 c 0,47,48
 679 128 679 128 718 138.5 c 128,-1,49
 757 149 757 149 790.5 163 c 128,-1,50
 824 177 824 177 848 191.5 c 128,-1,51
 872 206 872 206 879 215 c 1,52,53
 883 245 883 245 885 281.5 c 128,-1,54
 887 318 887 318 888 357.5 c 128,-1,55
 889 397 889 397 889.5 437 c 128,-1,56
 890 477 890 477 890 514 c 2,57,-1
 890 795 l 2,58,59
 890 842 890 842 883 877 c 1,60,61
 866 880 866 880 847.5 881 c 128,-1,62
 829 882 829 882 809 882 c 2,63,-1
 734 882 l 1,64,-1
 728 993 l 1,65,66
 788 1007 788 1007 868.5 1015.5 c 128,-1,67
 949 1024 949 1024 1032 1024 c 0,68,69
 1063 1024 1063 1024 1091 1021 c 128,-1,70
 1119 1018 1119 1018 1141.5 1011 c 128,-1,71
 1164 1004 1164 1004 1179.5 993.5 c 128,-1,72
 1195 983 1195 983 1201 968 c 1,0,-1
EndSplineSet
EndChar

StartChar: v
Encoding: 118 118 89
Width: 1298
Flags: W
LayerCount: 2
Fore
SplineSet
705 278 m 1,0,1
 759 430 759 430 813 578 c 128,-1,2
 867 726 867 726 912 874 c 1,3,4
 898 879 898 879 882.5 880.5 c 128,-1,5
 867 882 867 882 846 882 c 2,6,-1
 793 882 l 1,7,-1
 809 1003 l 1,8,9
 870 1014 870 1014 933.5 1019 c 128,-1,10
 997 1024 997 1024 1066 1024 c 0,11,12
 1130 1024 1130 1024 1185.5 1019 c 128,-1,13
 1241 1014 1241 1014 1295 1003 c 1,14,-1
 1295 882 l 1,15,-1
 1246 882 l 2,16,17
 1222 882 1222 882 1199.5 880.5 c 128,-1,18
 1177 879 1177 879 1155 874 c 1,19,20
 1140 840 1140 840 1119.5 788.5 c 128,-1,21
 1099 737 1099 737 1075 676 c 128,-1,22
 1051 615 1051 615 1025 547.5 c 128,-1,23
 999 480 999 480 972.5 414 c 128,-1,24
 946 348 946 348 921.5 286.5 c 128,-1,25
 897 225 897 225 876 175 c 2,26,-1
 800 -4 l 1,27,28
 765 -7 765 -7 729 -8 c 128,-1,29
 693 -9 693 -9 655 -9 c 0,30,31
 619 -9 619 -9 587.5 -6.5 c 128,-1,32
 556 -4 556 -4 519 10 c 1,33,-1
 186 801 l 2,34,35
 178 821 178 821 169.5 839 c 128,-1,36
 161 857 161 857 150 874 c 1,37,38
 133 879 133 879 115 880.5 c 128,-1,39
 97 882 97 882 77 882 c 2,40,-1
 23 882 l 1,41,-1
 4 1003 l 1,42,43
 58 1015 58 1015 133.5 1019.5 c 128,-1,44
 209 1024 209 1024 303 1024 c 0,45,46
 333 1024 333 1024 362.5 1023 c 128,-1,47
 392 1022 392 1022 424 1020 c 128,-1,48
 456 1018 456 1018 492 1014 c 128,-1,49
 528 1010 528 1010 571 1003 c 1,50,51
 576 978 576 978 581 947.5 c 128,-1,52
 586 917 586 917 591 882 c 1,53,-1
 544 882 l 2,54,55
 526 882 526 882 511 880.5 c 128,-1,56
 496 879 496 879 484 874 c 1,57,58
 490 852 490 852 498.5 830.5 c 128,-1,59
 507 809 507 809 515 786 c 0,60,61
 576 612 576 612 623.5 487.5 c 128,-1,62
 671 363 671 363 705 278 c 1,0,1
EndSplineSet
EndChar

StartChar: w
Encoding: 119 119 90
Width: 1879
Flags: W
LayerCount: 2
Fore
SplineSet
1344 266 m 1,0,-1
 1483 797 l 2,1,2
 1488 817 1488 817 1491.5 836 c 128,-1,3
 1495 855 1495 855 1501 874 c 1,4,5
 1487 879 1487 879 1473 880.5 c 128,-1,6
 1459 882 1459 882 1439 882 c 2,7,-1
 1386 882 l 1,8,9
 1387 891 1387 891 1389 907 c 128,-1,10
 1391 923 1391 923 1393 941 c 128,-1,11
 1395 959 1395 959 1397 976 c 128,-1,12
 1399 993 1399 993 1401 1003 c 1,13,14
 1459 1014 1459 1014 1520.5 1019 c 128,-1,15
 1582 1024 1582 1024 1648 1024 c 0,16,17
 1712 1024 1712 1024 1768 1019 c 128,-1,18
 1824 1014 1824 1014 1879 1003 c 1,19,20
 1879 973 1879 973 1878.5 942.5 c 128,-1,21
 1878 912 1878 912 1878 882 c 1,22,-1
 1819 882 l 2,23,24
 1797 882 1797 882 1777.5 880.5 c 128,-1,25
 1758 879 1758 879 1740 874 c 1,26,27
 1699 747 1699 747 1658 621 c 128,-1,28
 1617 495 1617 495 1579 380 c 128,-1,29
 1541 265 1541 265 1508 166.5 c 128,-1,30
 1475 68 1475 68 1450 -4 c 1,31,32
 1415 -7 1415 -7 1377.5 -8 c 128,-1,33
 1340 -9 1340 -9 1300 -9 c 0,34,35
 1236 -9 1236 -9 1173 7 c 1,36,37
 1166 17 1166 17 1155 37.5 c 128,-1,38
 1144 58 1144 58 1144 74 c 1,39,-1
 964 614 l 1,40,41
 937 528 937 528 909 441.5 c 128,-1,42
 881 355 881 355 854 274.5 c 128,-1,43
 827 194 827 194 802 123 c 128,-1,44
 777 52 777 52 757 -4 c 1,45,46
 722 -7 722 -7 684 -8 c 128,-1,47
 646 -9 646 -9 606 -9 c 0,48,49
 560 -9 560 -9 528.5 -1.5 c 128,-1,50
 497 6 497 6 468 18 c 1,51,-1
 179 797 l 2,52,53
 164 837 164 837 142 874 c 1,54,55
 125 879 125 879 105.5 880.5 c 128,-1,56
 86 882 86 882 65 882 c 2,57,-1
 6 882 l 1,58,-1
 -2 1003 l 1,59,60
 48 1014 48 1014 120.5 1019 c 128,-1,61
 193 1024 193 1024 283 1024 c 0,62,63
 345 1024 345 1024 410.5 1020.5 c 128,-1,64
 476 1017 476 1017 554 1003 c 1,65,66
 560 978 560 978 564.5 947.5 c 128,-1,67
 569 917 569 917 574 882 c 1,68,-1
 528 882 l 2,69,70
 488 882 488 882 468 874 c 1,71,-1
 656 273 l 1,72,73
 699 411 699 411 734 527 c 128,-1,74
 769 643 769 643 797.5 733 c 128,-1,75
 826 823 826 823 848 885.5 c 128,-1,76
 870 948 870 948 888 980 c 1,77,78
 905 988 905 988 929 991 c 128,-1,79
 953 994 953 994 983 994 c 256,80,81
 1013 994 1013 994 1037 992 c 128,-1,82
 1061 990 1061 990 1079 983 c 128,-1,83
 1097 976 1097 976 1109.5 962.5 c 128,-1,84
 1122 949 1122 949 1130 927 c 2,85,-1
 1344 266 l 1,0,-1
EndSplineSet
EndChar

StartChar: x
Encoding: 120 120 91
Width: 1313
Flags: W
LayerCount: 2
Fore
SplineSet
855 539 m 1,0,-1
 1077 236 l 2,1,2
 1106 197 1106 197 1126 174 c 128,-1,3
 1146 151 1146 151 1166.5 138.5 c 128,-1,4
 1187 126 1187 126 1212 121 c 128,-1,5
 1237 116 1237 116 1276 113 c 1,6,-1
 1296 -12 l 1,7,8
 1242 -7 1242 -7 1163.5 -3.5 c 128,-1,9
 1085 0 1085 0 996 0 c 0,10,11
 924 0 924 0 854 -3 c 128,-1,12
 784 -6 784 -6 726 -12 c 1,13,-1
 710 107 l 1,14,15
 743 111 743 111 763 115.5 c 128,-1,16
 783 120 783 120 792 129 c 1,17,18
 788 141 788 141 776 160.5 c 128,-1,19
 764 180 764 180 745 206 c 2,20,-1
 608 400 l 1,21,-1
 490 238 l 2,22,23
 464 202 464 202 447 176 c 128,-1,24
 430 150 430 150 422 130 c 1,25,26
 435 121 435 121 456.5 116 c 128,-1,27
 478 111 478 111 511 107 c 1,28,29
 508 97 508 97 504.5 81 c 128,-1,30
 501 65 501 65 497 47.5 c 128,-1,31
 493 30 493 30 490 14 c 128,-1,32
 487 -2 487 -2 484 -12 c 1,33,34
 433 -6 433 -6 372.5 -3 c 128,-1,35
 312 0 312 0 246 0 c 0,36,37
 195 0 195 0 134.5 -3.5 c 128,-1,38
 74 -7 74 -7 16 -12 c 1,39,-1
 35 107 l 1,40,41
 72 110 72 110 96 115.5 c 128,-1,42
 120 121 120 121 139.5 130 c 128,-1,43
 159 139 159 139 177.5 152 c 128,-1,44
 196 165 196 165 221 185 c 1,45,-1
 474 494 l 1,46,-1
 265 787 l 2,47,48
 248 810 248 810 230.5 831.5 c 128,-1,49
 213 853 213 853 194 874 c 1,50,51
 177 879 177 879 159 880.5 c 128,-1,52
 141 882 141 882 122 882 c 2,53,-1
 61 882 l 1,54,-1
 47 1003 l 1,55,56
 97 1014 97 1014 166 1019 c 128,-1,57
 235 1024 235 1024 322 1024 c 0,58,59
 390 1024 390 1024 465 1020.5 c 128,-1,60
 540 1017 540 1017 628 1003 c 1,61,62
 634 978 634 978 638.5 947.5 c 128,-1,63
 643 917 643 917 648 882 c 1,64,-1
 603 882 l 2,65,66
 566 882 566 882 549 874 c 1,67,68
 558 858 558 858 570.5 843 c 128,-1,69
 583 828 583 828 595 811 c 2,70,-1
 719 636 l 1,71,72
 760 690 760 690 803.5 751.5 c 128,-1,73
 847 813 847 813 891 874 c 1,74,75
 871 882 871 882 834 882 c 2,76,-1
 784 882 l 1,77,-1
 806 1003 l 1,78,79
 869 1014 869 1014 934.5 1019 c 128,-1,80
 1000 1024 1000 1024 1068 1024 c 0,81,82
 1131 1024 1131 1024 1183 1019 c 128,-1,83
 1235 1014 1235 1014 1287 1003 c 1,84,-1
 1269 882 l 1,85,-1
 1225 882 l 2,86,87
 1200 882 1200 882 1176 880.5 c 128,-1,88
 1152 879 1152 879 1129 874 c 1,89,-1
 1015 733 l 2,90,91
 973 680 973 680 930 628 c 128,-1,92
 887 576 887 576 855 539 c 1,0,-1
EndSplineSet
EndChar

StartChar: y
Encoding: 121 121 92
Width: 1297
Flags: W
LayerCount: 2
Fore
SplineSet
704 278 m 1,0,1
 753 412 753 412 800 542.5 c 128,-1,2
 847 673 847 673 892 802 c 1,3,4
 897 821 897 821 902.5 839 c 128,-1,5
 908 857 908 857 913 874 c 1,6,7
 899 879 899 879 883.5 880.5 c 128,-1,8
 868 882 868 882 848 882 c 2,9,-1
 794 882 l 1,10,-1
 811 1003 l 1,11,12
 872 1014 872 1014 935.5 1019 c 128,-1,13
 999 1024 999 1024 1067 1024 c 0,14,15
 1131 1024 1131 1024 1187 1019 c 128,-1,16
 1243 1014 1243 1014 1297 1003 c 1,17,-1
 1297 882 l 1,18,-1
 1237 882 l 2,19,20
 1214 882 1214 882 1195.5 880.5 c 128,-1,21
 1177 879 1177 879 1158 874 c 1,22,-1
 811 31 l 2,23,24
 760 -93 760 -93 716.5 -181.5 c 128,-1,25
 673 -270 673 -270 619.5 -326 c 128,-1,26
 566 -382 566 -382 492.5 -408.5 c 128,-1,27
 419 -435 419 -435 308 -435 c 0,28,29
 275 -435 275 -435 243 -432.5 c 128,-1,30
 211 -430 211 -430 182.5 -425.5 c 128,-1,31
 154 -421 154 -421 131 -415 c 128,-1,32
 108 -409 108 -409 93 -402 c 1,33,-1
 132 -248 l 1,34,35
 185 -268 185 -268 235 -276.5 c 128,-1,36
 285 -285 285 -285 323 -285 c 0,37,38
 367 -285 367 -285 397.5 -270 c 128,-1,39
 428 -255 428 -255 452 -223.5 c 128,-1,40
 476 -192 476 -192 497 -142.5 c 128,-1,41
 518 -93 518 -93 542 -24 c 1,42,-1
 201 768 l 2,43,44
 189 796 189 796 176.5 822 c 128,-1,45
 164 848 164 848 150 874 c 1,46,47
 112 882 112 882 72 882 c 2,48,-1
 13 882 l 1,49,-1
 4 1003 l 1,50,51
 55 1014 55 1014 126 1018.5 c 128,-1,52
 197 1023 197 1023 285 1023 c 0,53,54
 319 1023 319 1023 350.5 1022.5 c 128,-1,55
 382 1022 382 1022 416 1020 c 128,-1,56
 450 1018 450 1018 487.5 1014 c 128,-1,57
 525 1010 525 1010 571 1003 c 1,58,59
 576 977 576 977 581 947 c 128,-1,60
 586 917 586 917 590 882 c 1,61,-1
 544 882 l 2,62,63
 525 882 525 882 509 880.5 c 128,-1,64
 493 879 493 879 481 874 c 1,65,66
 487 856 487 856 499 823 c 128,-1,67
 511 790 511 790 526.5 747.5 c 128,-1,68
 542 705 542 705 560.5 655.5 c 128,-1,69
 579 606 579 606 598 556 c 2,70,-1
 704 278 l 1,0,1
EndSplineSet
EndChar

StartChar: z
Encoding: 122 122 93
Width: 1079
Flags: W
LayerCount: 2
Fore
SplineSet
392 133 m 1,0,-1
 733 133 l 2,1,2
 758 133 758 133 780.5 136 c 128,-1,3
 803 139 803 139 820 150 c 1,4,5
 836 178 836 178 849.5 218.5 c 128,-1,6
 863 259 863 259 880 318 c 1,7,8
 909 320 909 320 939 321 c 128,-1,9
 969 322 969 322 998 324 c 1,10,-1
 998 130 l 2,11,12
 998 91 998 91 1000.5 60 c 128,-1,13
 1003 29 1003 29 1003 -5 c 1,14,15
 934 -2 934 -2 849 -1 c 128,-1,16
 764 0 764 0 680 0 c 2,17,-1
 269 0 l 2,18,19
 225 0 225 0 191 1 c 128,-1,20
 157 2 157 2 131 4 c 1,21,22
 117 7 117 7 106 12 c 128,-1,23
 95 17 95 17 88 26.5 c 128,-1,24
 81 36 81 36 77.5 51.5 c 128,-1,25
 74 67 74 67 74 90 c 2,26,-1
 74 170 l 1,27,-1
 694 878 l 1,28,-1
 362 878 l 2,29,30
 336 878 336 878 309.5 874.5 c 128,-1,31
 283 871 283 871 266 860 c 1,32,33
 254 830 254 830 245 791 c 128,-1,34
 236 752 236 752 231 702 c 1,35,-1
 227 702 l 1,36,37
 195 700 195 700 162.5 698 c 128,-1,38
 130 696 130 696 98 695 c 1,39,40
 95 761 95 761 94 808.5 c 128,-1,41
 93 856 93 856 93 894 c 0,42,43
 93 927 93 927 93.5 955 c 128,-1,44
 94 983 94 983 94 1012 c 1,45,46
 286 1012 286 1012 486 1010 c 128,-1,47
 686 1008 686 1008 883 1008 c 0,48,49
 916 1008 916 1008 936 1004 c 128,-1,50
 956 1000 956 1000 967.5 989 c 128,-1,51
 979 978 979 978 982.5 957 c 128,-1,52
 986 936 986 936 986 903 c 2,53,-1
 986 817 l 1,54,-1
 392 133 l 1,0,-1
EndSplineSet
EndChar

StartChar: braceleft
Encoding: 123 123 94
Width: 748
Flags: W
LayerCount: 2
Fore
SplineSet
468 1271 m 2,0,-1
 468 883 l 2,1,2
 468 795 468 795 435 736 c 128,-1,3
 402 677 402 677 333 649 c 1,4,5
 399 621 399 621 433.5 564 c 128,-1,6
 468 507 468 507 468 417 c 2,7,-1
 468 28 l 2,8,9
 468 -26 468 -26 472.5 -53 c 128,-1,10
 477 -80 477 -80 485.5 -92 c 128,-1,11
 494 -104 494 -104 507 -106.5 c 128,-1,12
 520 -109 520 -109 538 -113 c 1,13,14
 563 -120 563 -120 594.5 -124 c 128,-1,15
 626 -128 626 -128 665 -132 c 1,16,-1
 665 -156 l 2,17,18
 665 -179 665 -179 645 -202 c 1,19,20
 613 -212 613 -212 581.5 -217 c 128,-1,21
 550 -222 550 -222 516 -222 c 0,22,23
 445 -222 445 -222 388 -211.5 c 128,-1,24
 331 -201 331 -201 291 -173 c 128,-1,25
 251 -145 251 -145 229.5 -96 c 128,-1,26
 208 -47 208 -47 208 29 c 2,27,-1
 208 431 l 2,28,29
 208 512 208 512 177 559 c 128,-1,30
 146 606 146 606 82 630 c 1,31,-1
 82 696 l 1,32,33
 106 710 106 710 129 728 c 128,-1,34
 152 746 152 746 169.5 767.5 c 128,-1,35
 187 789 187 789 197.5 814 c 128,-1,36
 208 839 208 839 208 869 c 2,37,-1
 208 1281 l 2,38,39
 208 1355 208 1355 230 1401.5 c 128,-1,40
 252 1448 252 1448 293.5 1474.5 c 128,-1,41
 335 1501 335 1501 393.5 1511 c 128,-1,42
 452 1521 452 1521 525 1521 c 0,43,44
 553 1521 553 1521 577.5 1519 c 128,-1,45
 602 1517 602 1517 621 1510.5 c 128,-1,46
 640 1504 640 1504 651.5 1491 c 128,-1,47
 663 1478 663 1478 665 1456 c 1,48,-1
 665 1430 l 1,49,50
 606 1427 606 1427 568 1419 c 128,-1,51
 530 1411 530 1411 507.5 1394 c 128,-1,52
 485 1377 485 1377 476.5 1347.5 c 128,-1,53
 468 1318 468 1318 468 1271 c 2,0,-1
EndSplineSet
EndChar

StartChar: bar
Encoding: 124 124 95
Width: 1234
Flags: W
LayerCount: 2
Fore
SplineSet
728 1420 m 1,0,-1
 728 -237 l 1,1,-1
 631 -237 l 2,2,3
 585 -237 585 -237 558 -227 c 128,-1,4
 531 -217 531 -217 517 -194 c 1,5,6
 509 -163 509 -163 506.5 -127 c 128,-1,7
 504 -91 504 -91 504 -49 c 2,8,-1
 504 1507 l 1,9,-1
 601 1507 l 2,10,11
 660 1507 660 1507 691.5 1487.5 c 128,-1,12
 723 1468 723 1468 728 1420 c 1,0,-1
EndSplineSet
EndChar

StartChar: braceright
Encoding: 125 125 96
Width: 744
Flags: W
LayerCount: 2
Fore
SplineSet
222 1521 m 0,0,1
 312 1521 312 1521 373 1507.5 c 128,-1,2
 434 1494 434 1494 471 1459 c 128,-1,3
 508 1424 508 1424 524 1362.5 c 128,-1,4
 540 1301 540 1301 540 1205 c 2,5,-1
 540 900 l 2,6,7
 540 867 540 867 549.5 839 c 128,-1,8
 559 811 559 811 575.5 789 c 128,-1,9
 592 767 592 767 614 750 c 128,-1,10
 636 733 636 733 661 723 c 1,11,-1
 661 630 l 1,12,13
 619 615 619 615 594.5 590.5 c 128,-1,14
 570 566 570 566 557.5 529.5 c 128,-1,15
 545 493 545 493 542 443.5 c 128,-1,16
 539 394 539 394 539 328 c 2,17,-1
 539 142 l 2,18,19
 539 44 539 44 531 -26.5 c 128,-1,20
 523 -97 523 -97 489 -140 c 0,21,22
 468 -166 468 -166 439.5 -182 c 128,-1,23
 411 -198 411 -198 376 -207 c 128,-1,24
 341 -216 341 -216 299 -219 c 128,-1,25
 257 -222 257 -222 210 -222 c 0,26,27
 189 -222 189 -222 166.5 -220.5 c 128,-1,28
 144 -219 144 -219 125 -212.5 c 128,-1,29
 106 -206 106 -206 94 -193.5 c 128,-1,30
 82 -181 82 -181 82 -159 c 2,31,-1
 82 -130 l 1,32,33
 139 -126 139 -126 176.5 -119 c 128,-1,34
 214 -112 214 -112 236 -95.5 c 128,-1,35
 258 -79 258 -79 267 -50 c 128,-1,36
 276 -21 276 -21 276 28 c 0,37,38
 276 61 276 61 276.5 103.5 c 128,-1,39
 277 146 277 146 277 191 c 128,-1,40
 277 236 277 236 277.5 279 c 128,-1,41
 278 322 278 322 278 355 c 0,42,43
 278 411 278 411 284.5 457.5 c 128,-1,44
 291 504 291 504 306.5 541 c 128,-1,45
 322 578 322 578 348 605 c 128,-1,46
 374 632 374 632 414 649 c 1,47,48
 375 664 375 664 348.5 689.5 c 128,-1,49
 322 715 322 715 306 749.5 c 128,-1,50
 290 784 290 784 283 825.5 c 128,-1,51
 276 867 276 867 276 912 c 0,52,53
 276 945 276 945 276.5 990 c 128,-1,54
 277 1035 277 1035 277 1081.5 c 128,-1,55
 277 1128 277 1128 277.5 1172 c 128,-1,56
 278 1216 278 1216 278 1249 c 0,57,58
 278 1308 278 1308 268.5 1342.5 c 128,-1,59
 259 1377 259 1377 236.5 1395 c 128,-1,60
 214 1413 214 1413 176 1419.5 c 128,-1,61
 138 1426 138 1426 82 1431 c 1,62,-1
 82 1456 l 2,63,64
 82 1477 82 1477 92.5 1490 c 128,-1,65
 103 1503 103 1503 121.5 1509.5 c 128,-1,66
 140 1516 140 1516 165.5 1518.5 c 128,-1,67
 191 1521 191 1521 222 1521 c 0,0,1
EndSplineSet
EndChar

StartChar: asciitilde
Encoding: 126 126 97
Width: 1204
Flags: W
LayerCount: 2
Fore
SplineSet
1026 645 m 1,0,1
 1049 615 1049 615 1065.5 589.5 c 128,-1,2
 1082 564 1082 564 1090 543 c 1,3,4
 1078 507 1078 507 1054 479 c 128,-1,5
 1030 451 1030 451 997.5 432.5 c 128,-1,6
 965 414 965 414 926.5 404 c 128,-1,7
 888 394 888 394 847 394 c 0,8,9
 803 394 803 394 764.5 402.5 c 128,-1,10
 726 411 726 411 687 425.5 c 128,-1,11
 648 440 648 440 606 459 c 128,-1,12
 564 478 564 478 513 499 c 0,13,14
 475 515 475 515 439.5 522.5 c 128,-1,15
 404 530 404 530 374 530 c 0,16,17
 319 530 319 530 273 495 c 128,-1,18
 227 460 227 460 189 398 c 1,19,20
 130 459 130 459 113 495 c 1,21,22
 123 533 123 533 150.5 565 c 128,-1,23
 178 597 178 597 215 620.5 c 128,-1,24
 252 644 252 644 293 657.5 c 128,-1,25
 334 671 334 671 370 671 c 0,26,27
 407 671 407 671 443 664 c 128,-1,28
 479 657 479 657 513 646 c 128,-1,29
 547 635 547 635 577 622 c 128,-1,30
 607 609 607 609 633 598 c 0,31,32
 667 583 667 583 693 571.5 c 128,-1,33
 719 560 719 560 741 552.5 c 128,-1,34
 763 545 763 545 782.5 541.5 c 128,-1,35
 802 538 802 538 823 538 c 0,36,37
 861 538 861 538 893 547 c 128,-1,38
 925 556 925 556 950.5 571 c 128,-1,39
 976 586 976 586 995 605.5 c 128,-1,40
 1014 625 1014 625 1026 645 c 1,0,1
EndSplineSet
EndChar

StartChar: cent
Encoding: 162 162 100
Width: 1218
Flags: W
LayerCount: 2
Fore
SplineSet
1058 309 m 1,0,-1
 1107 213 l 1,1,2
 1078 171 1078 171 1039.5 140 c 128,-1,3
 1001 109 1001 109 954.5 87.5 c 128,-1,4
 908 66 908 66 855.5 54 c 128,-1,5
 803 42 803 42 746 38 c 1,6,-1
 746 -179 l 1,7,-1
 712 -179 l 2,8,9
 681 -179 681 -179 663 -175 c 128,-1,10
 645 -171 645 -171 636 -160.5 c 128,-1,11
 627 -150 627 -150 624.5 -133 c 128,-1,12
 622 -116 622 -116 622 -90 c 2,13,-1
 622 39 l 1,14,15
 512 48 512 48 423 86.5 c 128,-1,16
 334 125 334 125 271 190 c 128,-1,17
 208 255 208 255 174 344.5 c 128,-1,18
 140 434 140 434 140 546 c 0,19,20
 140 668 140 668 178 762.5 c 128,-1,21
 216 857 216 857 281.5 924 c 128,-1,22
 347 991 347 991 434.5 1032 c 128,-1,23
 522 1073 522 1073 622 1088 c 1,24,-1
 622 1314 l 1,25,-1
 656 1314 l 2,26,27
 682 1314 682 1314 699.5 1310.5 c 128,-1,28
 717 1307 717 1307 727.5 1298 c 128,-1,29
 738 1289 738 1289 742 1272.5 c 128,-1,30
 746 1256 746 1256 746 1230 c 2,31,-1
 746 1097 l 1,32,-1
 758 1097 l 2,33,34
 760 1097 760 1097 781.5 1095.5 c 128,-1,35
 803 1094 803 1094 835.5 1090.5 c 128,-1,36
 868 1087 868 1087 907 1080 c 128,-1,37
 946 1073 946 1073 984 1061.5 c 128,-1,38
 1022 1050 1022 1050 1055 1034 c 128,-1,39
 1088 1018 1088 1018 1108 995 c 1,40,41
 1107 981 1107 981 1106.5 967 c 128,-1,42
 1106 953 1106 953 1104 939 c 2,43,-1
 1073 784 l 1,44,-1
 891 795 l 1,45,46
 862 856 862 856 828 891 c 128,-1,47
 794 926 794 926 746 940 c 1,48,-1
 746 182 l 1,49,50
 837 183 837 183 910.5 215 c 128,-1,51
 984 247 984 247 1058 309 c 1,0,-1
622 208 m 1,52,-1
 622 944 l 1,53,54
 544 906 544 906 501.5 815.5 c 128,-1,55
 459 725 459 725 459 578 c 256,56,57
 459 431 459 431 502.5 339.5 c 128,-1,58
 546 248 546 248 622 208 c 1,52,-1
EndSplineSet
EndChar

StartChar: sterling
Encoding: 163 163 101
Width: 1246
Flags: W
LayerCount: 2
Fore
SplineSet
306 371 m 0,0,1
 306 440 306 440 303 512.5 c 128,-1,2
 300 585 300 585 292 666 c 1,3,-1
 92 666 l 1,4,-1
 92 727 l 2,5,6
 92 751 92 751 98 765 c 128,-1,7
 104 779 104 779 115 785.5 c 128,-1,8
 126 792 126 792 142.5 793.5 c 128,-1,9
 159 795 159 795 179 795 c 2,10,-1
 275 795 l 1,11,12
 263 878 263 878 255.5 944 c 128,-1,13
 248 1010 248 1010 248 1061 c 0,14,15
 248 1175 248 1175 290.5 1248.5 c 128,-1,16
 333 1322 333 1322 401 1364.5 c 128,-1,17
 469 1407 469 1407 555.5 1424 c 128,-1,18
 642 1441 642 1441 730 1441 c 0,19,20
 790 1441 790 1441 854 1435 c 128,-1,21
 918 1429 918 1429 976.5 1416 c 128,-1,22
 1035 1403 1035 1403 1084 1382.5 c 128,-1,23
 1133 1362 1133 1362 1165 1333 c 1,24,25
 1164 1300 1164 1300 1164 1266.5 c 128,-1,26
 1164 1233 1164 1233 1164 1200 c 0,27,28
 1164 1166 1164 1166 1164 1132.5 c 128,-1,29
 1164 1099 1164 1099 1165 1066 c 1,30,-1
 985 1043 l 1,31,32
 945 1173 945 1173 885.5 1233 c 128,-1,33
 826 1293 826 1293 730 1293 c 0,34,35
 643 1293 643 1293 600 1231.5 c 128,-1,36
 557 1170 557 1170 557 1055 c 0,37,38
 557 1031 557 1031 558.5 998 c 128,-1,39
 560 965 560 965 565 927 c 2,40,-1
 579 795 l 1,41,-1
 903 795 l 1,42,-1
 903 735 l 2,43,44
 903 712 903 712 896 698 c 128,-1,45
 889 684 889 684 876.5 676.5 c 128,-1,46
 864 669 864 669 845.5 667 c 128,-1,47
 827 665 827 665 804 665 c 0,48,49
 796 665 796 665 786 665 c 128,-1,50
 776 665 776 665 754.5 665.5 c 128,-1,51
 733 666 733 666 695 666 c 128,-1,52
 657 666 657 666 594 666 c 1,53,54
 597 621 597 621 599 585 c 128,-1,55
 601 549 601 549 601 518 c 0,56,57
 601 465 601 465 594 417.5 c 128,-1,58
 587 370 587 370 573.5 324.5 c 128,-1,59
 560 279 560 279 539 234 c 128,-1,60
 518 189 518 189 490 142 c 1,61,-1
 661 142 l 2,62,63
 746 142 746 142 804.5 147.5 c 128,-1,64
 863 153 863 153 906 177 c 128,-1,65
 949 201 949 201 981 250 c 128,-1,66
 1013 299 1013 299 1045 385 c 1,67,-1
 1186 357 l 1,68,69
 1186 274 1186 274 1179 190 c 128,-1,70
 1172 106 1172 106 1158 15 c 1,71,72
 1070 5 1070 5 953.5 0.5 c 128,-1,73
 837 -4 837 -4 688 -4 c 0,74,75
 617 -4 617 -4 541 -3.5 c 128,-1,76
 465 -3 465 -3 391 -2.5 c 128,-1,77
 317 -2 317 -2 247.5 -1.5 c 128,-1,78
 178 -1 178 -1 120 0 c 1,79,80
 94 23 94 23 85 51 c 128,-1,81
 76 79 76 79 76 117 c 1,82,83
 133 134 133 134 176 155 c 128,-1,84
 219 176 219 176 248 205.5 c 128,-1,85
 277 235 277 235 291.5 275.5 c 128,-1,86
 306 316 306 316 306 371 c 0,0,1
EndSplineSet
EndChar

StartChar: yen
Encoding: 165 165 102
Width: 1597
Flags: W
LayerCount: 2
Fore
SplineSet
1094 1161 m 0,0,1
 1108 1191 1108 1191 1116 1216.5 c 128,-1,2
 1124 1242 1124 1242 1128 1268 c 1,3,4
 1112 1273 1112 1273 1093.5 1273.5 c 128,-1,5
 1075 1274 1075 1274 1052 1274 c 2,6,-1
 965 1274 l 1,7,-1
 993 1409 l 1,8,9
 1052 1415 1052 1415 1116 1418.5 c 128,-1,10
 1180 1422 1180 1422 1255 1422 c 2,11,-1
 1349 1422 l 2,12,13
 1415 1422 1415 1422 1476 1419 c 128,-1,14
 1537 1416 1537 1416 1593 1408 c 1,15,-1
 1561 1274 l 1,16,-1
 1435 1274 l 2,17,18
 1416 1274 1416 1274 1403.5 1270.5 c 128,-1,19
 1391 1267 1391 1267 1379 1252.5 c 128,-1,20
 1367 1238 1367 1238 1351 1209 c 128,-1,21
 1335 1180 1335 1180 1309 1129 c 0,22,23
 1301 1115 1301 1115 1285 1086 c 128,-1,24
 1269 1057 1269 1057 1248 1019.5 c 128,-1,25
 1227 982 1227 982 1202.5 938 c 128,-1,26
 1178 894 1178 894 1154 851 c 0,27,28
 1097 749 1097 749 1028 629 c 1,29,-1
 1270 629 l 1,30,-1
 1270 576 l 2,31,32
 1270 551 1270 551 1264 537 c 128,-1,33
 1258 523 1258 523 1246.5 516.5 c 128,-1,34
 1235 510 1235 510 1220 508 c 128,-1,35
 1205 506 1205 506 1187 505 c 1,36,-1
 964 505 l 1,37,-1
 964 401 l 1,38,-1
 1270 401 l 1,39,-1
 1270 349 l 2,40,41
 1270 326 1270 326 1264.5 312 c 128,-1,42
 1259 298 1259 298 1248.5 290.5 c 128,-1,43
 1238 283 1238 283 1223 280.5 c 128,-1,44
 1208 278 1208 278 1190 278 c 2,45,-1
 964 278 l 1,46,-1
 964 245 l 2,47,48
 964 210 964 210 966.5 183.5 c 128,-1,49
 969 157 969 157 974 136 c 1,50,51
 997 133 997 133 1021.5 132 c 128,-1,52
 1046 131 1046 131 1072 131 c 2,53,-1
 1165 131 l 1,54,-1
 1165 -15 l 1,55,56
 1072 -8 1072 -8 991 -4 c 128,-1,57
 910 0 910 0 835 0 c 2,58,-1
 787 0 l 2,59,60
 706 0 706 0 621.5 -4 c 128,-1,61
 537 -8 537 -8 443 -15 c 1,62,-1
 443 131 l 1,63,-1
 534 131 l 2,64,65
 560 131 560 131 584.5 131.5 c 128,-1,66
 609 132 609 132 632 136 c 1,67,68
 637 155 637 155 640 178.5 c 128,-1,69
 643 202 643 202 643 233 c 2,70,-1
 643 278 l 1,71,-1
 335 278 l 1,72,-1
 335 349 l 1,73,74
 361 378 361 378 395.5 389.5 c 128,-1,75
 430 401 430 401 486 401 c 2,76,-1
 642 401 l 1,77,-1
 642 476 l 1,78,-1
 639 505 l 1,79,-1
 335 505 l 1,80,-1
 335 576 l 1,81,82
 361 605 361 605 396.5 617 c 128,-1,83
 432 629 432 629 486 629 c 2,84,-1
 568 629 l 1,85,86
 476 783 476 783 398 913.5 c 128,-1,87
 320 1044 320 1044 254 1156 c 0,88,89
 235 1188 235 1188 221.5 1215.5 c 128,-1,90
 208 1243 208 1243 191 1268 c 1,91,92
 172 1273 172 1273 152.5 1273.5 c 128,-1,93
 133 1274 133 1274 112 1274 c 2,94,-1
 26 1274 l 1,95,-1
 2 1409 l 1,96,97
 47 1413 47 1413 91.5 1416 c 128,-1,98
 136 1419 136 1419 181 1420 c 128,-1,99
 226 1421 226 1421 273.5 1421.5 c 128,-1,100
 321 1422 321 1422 373 1422 c 0,101,102
 461 1422 461 1422 543.5 1419 c 128,-1,103
 626 1416 626 1416 692 1408 c 1,104,-1
 705 1274 l 1,105,-1
 627 1274 l 2,106,107
 607 1274 607 1274 588.5 1273.5 c 128,-1,108
 570 1273 570 1273 556 1268 c 1,109,110
 564 1236 564 1236 572 1216.5 c 128,-1,111
 580 1197 580 1197 592 1177 c 2,112,-1
 861 704 l 1,113,114
 894 764 894 764 928.5 830.5 c 128,-1,115
 963 897 963 897 994.5 959.5 c 128,-1,116
 1026 1022 1026 1022 1052.5 1075 c 128,-1,117
 1079 1128 1079 1128 1094 1161 c 0,0,1
EndSplineSet
EndChar

StartChar: section
Encoding: 167 167 103
Width: 1040
Flags: W
LayerCount: 2
Fore
SplineSet
279 957 m 1,0,1
 250 980 250 980 229 1004 c 128,-1,2
 208 1028 208 1028 194 1056 c 128,-1,3
 180 1084 180 1084 173 1117.5 c 128,-1,4
 166 1151 166 1151 166 1193 c 0,5,6
 166 1275 166 1275 198 1333.5 c 128,-1,7
 230 1392 230 1392 284.5 1429.5 c 128,-1,8
 339 1467 339 1467 413 1484 c 128,-1,9
 487 1501 487 1501 571 1501 c 0,10,11
 628 1501 628 1501 681.5 1489.5 c 128,-1,12
 735 1478 735 1478 777 1464 c 0,13,14
 826 1448 826 1448 870 1428 c 1,15,-1
 829 1212 l 1,16,-1
 715 1216 l 1,17,18
 702 1253 702 1253 687 1279.5 c 128,-1,19
 672 1306 672 1306 651 1323 c 128,-1,20
 630 1340 630 1340 600 1348 c 128,-1,21
 570 1356 570 1356 527 1356 c 0,22,23
 451 1356 451 1356 405.5 1324.5 c 128,-1,24
 360 1293 360 1293 360 1227 c 0,25,26
 360 1192 360 1192 373.5 1166.5 c 128,-1,27
 387 1141 387 1141 412.5 1120 c 128,-1,28
 438 1099 438 1099 475 1080.5 c 128,-1,29
 512 1062 512 1062 558 1041 c 0,30,31
 671 990 671 990 744.5 950.5 c 128,-1,32
 818 911 818 911 861 872 c 128,-1,33
 904 833 904 833 921 788 c 128,-1,34
 938 743 938 743 938 682 c 0,35,36
 938 591 938 591 901.5 524.5 c 128,-1,37
 865 458 865 458 799 420 c 1,38,39
 920 332 920 332 920 186 c 0,40,41
 920 102 920 102 889 41.5 c 128,-1,42
 858 -19 858 -19 803.5 -58 c 128,-1,43
 749 -97 749 -97 675 -115 c 128,-1,44
 601 -133 601 -133 516 -133 c 0,45,46
 364 -133 364 -133 206 -60 c 0,47,48
 159 -39 159 -39 137 -15 c 1,49,50
 137 71 137 71 138 130.5 c 128,-1,51
 139 190 139 190 141 228 c 1,52,-1
 260 228 l 1,53,54
 277 175 277 175 299.5 135 c 128,-1,55
 322 95 322 95 354.5 68 c 128,-1,56
 387 41 387 41 431 27.5 c 128,-1,57
 475 14 475 14 535 14 c 0,58,59
 576 14 576 14 610.5 22.5 c 128,-1,60
 645 31 645 31 669.5 48.5 c 128,-1,61
 694 66 694 66 708 92 c 128,-1,62
 722 118 722 118 722 153 c 0,63,64
 722 174 722 174 713 192.5 c 128,-1,65
 704 211 704 211 680.5 230 c 128,-1,66
 657 249 657 249 617 271.5 c 128,-1,67
 577 294 577 294 516 323 c 2,68,-1
 377 389 l 1,69,70
 341 411 341 411 298.5 436 c 128,-1,71
 256 461 256 461 219 497 c 128,-1,72
 182 533 182 533 157.5 584 c 128,-1,73
 133 635 133 635 133 709 c 0,74,75
 133 803 133 803 170 861 c 128,-1,76
 207 919 207 919 279 957 c 1,0,1
424 876 m 1,77,78
 376 848 376 848 350 816 c 128,-1,79
 324 784 324 784 324 736 c 0,80,81
 324 709 324 709 332 689.5 c 128,-1,82
 340 670 340 670 356.5 653.5 c 128,-1,83
 373 637 373 637 398 621.5 c 128,-1,84
 423 606 423 606 458 588 c 0,85,86
 499 566 499 566 527.5 551.5 c 128,-1,87
 556 537 556 537 576 527.5 c 128,-1,88
 596 518 596 518 610.5 511.5 c 128,-1,89
 625 505 625 505 639 499 c 1,90,91
 747 557 747 557 747 643 c 0,92,93
 747 667 747 667 728.5 692 c 128,-1,94
 710 717 710 717 682 740 c 128,-1,95
 654 763 654 763 621.5 782 c 128,-1,96
 589 801 589 801 561 814 c 0,97,98
 517 834 517 834 491 845.5 c 128,-1,99
 465 857 465 857 450.5 863.5 c 128,-1,100
 436 870 436 870 431 872.5 c 128,-1,101
 426 875 426 875 424 876 c 1,77,78
EndSplineSet
EndChar

StartChar: dieresis
Encoding: 168 168 104
Width: 1101
Flags: W
LayerCount: 2
Fore
SplineSet
461 1257 m 0,0,1
 461 1185 461 1185 416 1142.5 c 128,-1,2
 371 1100 371 1100 296 1100 c 256,3,4
 221 1100 221 1100 176 1142 c 128,-1,5
 131 1184 131 1184 131 1257 c 0,6,7
 131 1291 131 1291 143.5 1320 c 128,-1,8
 156 1349 156 1349 178 1369 c 128,-1,9
 200 1389 200 1389 230.5 1400.5 c 128,-1,10
 261 1412 261 1412 296 1412 c 0,11,12
 332 1412 332 1412 362.5 1400.5 c 128,-1,13
 393 1389 393 1389 414.5 1369 c 128,-1,14
 436 1349 436 1349 448.5 1320 c 128,-1,15
 461 1291 461 1291 461 1257 c 0,0,1
956 1257 m 0,16,17
 956 1184 956 1184 911 1142 c 128,-1,18
 866 1100 866 1100 791 1100 c 256,19,20
 716 1100 716 1100 671 1142 c 128,-1,21
 626 1184 626 1184 626 1257 c 0,22,23
 626 1291 626 1291 638.5 1320 c 128,-1,24
 651 1349 651 1349 673 1369 c 128,-1,25
 695 1389 695 1389 725.5 1400.5 c 128,-1,26
 756 1412 756 1412 791 1412 c 0,27,28
 827 1412 827 1412 857.5 1400.5 c 128,-1,29
 888 1389 888 1389 909.5 1369 c 128,-1,30
 931 1349 931 1349 943.5 1320 c 128,-1,31
 956 1291 956 1291 956 1257 c 0,16,17
EndSplineSet
EndChar

StartChar: copyright
Encoding: 169 169 105
Width: 1724
Flags: W
LayerCount: 2
Fore
SplineSet
267 707 m 0,0,1
 267 578 267 578 312 467.5 c 128,-1,2
 357 357 357 357 437 275 c 128,-1,3
 517 193 517 193 625.5 146.5 c 128,-1,4
 734 100 734 100 862 100 c 0,5,6
 952 100 952 100 1031.5 122.5 c 128,-1,7
 1111 145 1111 145 1178 185.5 c 128,-1,8
 1245 226 1245 226 1297.5 282 c 128,-1,9
 1350 338 1350 338 1386.5 405.5 c 128,-1,10
 1423 473 1423 473 1442.5 549.5 c 128,-1,11
 1462 626 1462 626 1462 707 c 0,12,13
 1462 837 1462 837 1415.5 948 c 128,-1,14
 1369 1059 1369 1059 1288 1141 c 128,-1,15
 1207 1223 1207 1223 1097.5 1269.5 c 128,-1,16
 988 1316 988 1316 862 1316 c 0,17,18
 732 1316 732 1316 623 1268 c 128,-1,19
 514 1220 514 1220 435 1137.5 c 128,-1,20
 356 1055 356 1055 311.5 944 c 128,-1,21
 267 833 267 833 267 707 c 0,0,1
113 706 m 0,22,23
 113 858 113 858 167.5 994 c 128,-1,24
 222 1130 222 1130 321 1232.5 c 128,-1,25
 420 1335 420 1335 558 1395 c 128,-1,26
 696 1455 696 1455 862 1455 c 0,27,28
 973 1455 973 1455 1071.5 1428 c 128,-1,29
 1170 1401 1170 1401 1253 1351.5 c 128,-1,30
 1336 1302 1336 1302 1402.5 1233 c 128,-1,31
 1469 1164 1469 1164 1515.5 1081 c 128,-1,32
 1562 998 1562 998 1586.5 903 c 128,-1,33
 1611 808 1611 808 1611 706 c 0,34,35
 1611 602 1611 602 1585.5 506.5 c 128,-1,36
 1560 411 1560 411 1512.5 328 c 128,-1,37
 1465 245 1465 245 1398 177.5 c 128,-1,38
 1331 110 1331 110 1247.5 62 c 128,-1,39
 1164 14 1164 14 1066.5 -12.5 c 128,-1,40
 969 -39 969 -39 862 -39 c 0,41,42
 753 -39 753 -39 655.5 -12.5 c 128,-1,43
 558 14 558 14 474.5 62 c 128,-1,44
 391 110 391 110 324 177.5 c 128,-1,45
 257 245 257 245 210.5 328 c 128,-1,46
 164 411 164 411 138.5 506.5 c 128,-1,47
 113 602 113 602 113 706 c 0,22,23
1160 496 m 1,48,-1
 1171 389 l 1,49,50
 1118 354 1118 354 1043 333.5 c 128,-1,51
 968 313 968 313 883 313 c 0,52,53
 790 313 790 313 712 339 c 128,-1,54
 634 365 634 365 578 415 c 128,-1,55
 522 465 522 465 491 537.5 c 128,-1,56
 460 610 460 610 460 703 c 0,57,58
 460 805 460 805 494.5 881.5 c 128,-1,59
 529 958 529 958 588.5 1008.5 c 128,-1,60
 648 1059 648 1059 726.5 1084.5 c 128,-1,61
 805 1110 805 1110 893 1110 c 0,62,63
 979 1110 979 1110 1052.5 1087 c 128,-1,64
 1126 1064 1126 1064 1172 1023 c 1,65,-1
 1160 873 l 1,66,-1
 1039 873 l 1,67,68
 1004 944 1004 944 966 975 c 128,-1,69
 928 1006 928 1006 878 1006 c 0,70,71
 833 1006 833 1006 799 984 c 128,-1,72
 765 962 765 962 741.5 925 c 128,-1,73
 718 888 718 888 706 839 c 128,-1,74
 694 790 694 790 694 736 c 0,75,76
 694 655 694 655 709 595 c 128,-1,77
 724 535 724 535 751.5 496 c 128,-1,78
 779 457 779 457 817 438 c 128,-1,79
 855 419 855 419 900 419 c 0,80,81
 977 419 977 419 1037.5 438 c 128,-1,82
 1098 457 1098 457 1160 496 c 1,48,-1
EndSplineSet
EndChar

StartChar: ordfeminine
Encoding: 170 170 106
Width: 877
Flags: W
LayerCount: 2
Fore
SplineSet
500 887 m 1,0,1
 503 933 503 933 504.5 976.5 c 128,-1,2
 506 1020 506 1020 506 1068 c 1,3,-1
 460 1068 l 2,4,5
 375 1068 375 1068 331 1036.5 c 128,-1,6
 287 1005 287 1005 287 938 c 0,7,8
 287 890 287 890 310 863 c 128,-1,9
 333 836 333 836 375 836 c 0,10,11
 404 836 404 836 436 850 c 128,-1,12
 468 864 468 864 500 887 c 1,0,1
839 832 m 1,13,-1
 839 764 l 1,14,15
 797 753 797 753 751 747.5 c 128,-1,16
 705 742 705 742 655 742 c 0,17,18
 594 742 594 742 563 759 c 1,19,20
 557 765 557 765 551 774 c 128,-1,21
 545 783 545 783 539.5 792.5 c 128,-1,22
 534 802 534 802 529 810.5 c 128,-1,23
 524 819 524 819 519 824 c 1,24,25
 474 780 474 780 422.5 755 c 128,-1,26
 371 730 371 730 304 730 c 0,27,28
 251 730 251 730 207 742.5 c 128,-1,29
 163 755 163 755 131.5 780.5 c 128,-1,30
 100 806 100 806 83 843.5 c 128,-1,31
 66 881 66 881 66 931 c 0,32,33
 66 1039 66 1039 159.5 1093.5 c 128,-1,34
 253 1148 253 1148 450 1148 c 2,35,-1
 506 1148 l 1,36,-1
 506 1189 l 2,37,38
 506 1246 506 1246 500.5 1279.5 c 128,-1,39
 495 1313 495 1313 484.5 1330 c 128,-1,40
 474 1347 474 1347 459.5 1352 c 128,-1,41
 445 1357 445 1357 426 1357 c 0,42,43
 395 1357 395 1357 368 1346.5 c 128,-1,44
 341 1336 341 1336 315.5 1317 c 128,-1,45
 290 1298 290 1298 266.5 1271.5 c 128,-1,46
 243 1245 243 1245 219 1214 c 1,47,48
 176 1240 176 1240 143 1260.5 c 128,-1,49
 110 1281 110 1281 85 1298 c 1,50,51
 85 1326 85 1326 109 1353 c 128,-1,52
 133 1380 133 1380 175 1401 c 128,-1,53
 217 1422 217 1422 274.5 1435 c 128,-1,54
 332 1448 332 1448 398 1448 c 0,55,56
 573 1448 573 1448 651 1380.5 c 128,-1,57
 729 1313 729 1313 729 1181 c 0,58,59
 729 1151 729 1151 728.5 1118 c 128,-1,60
 728 1085 728 1085 728 1050 c 2,61,-1
 728 952 l 2,62,63
 728 912 728 912 728.5 884 c 128,-1,64
 729 856 729 856 732 838 c 1,65,66
 756 834 756 834 782 833 c 128,-1,67
 808 832 808 832 839 832 c 1,13,-1
EndSplineSet
EndChar

StartChar: guillemotleft
Encoding: 171 171 107
Width: 1062
Flags: W
LayerCount: 2
Fore
SplineSet
449 84 m 1,0,-1
 133 501 l 1,1,2
 136 524 136 524 140.5 548.5 c 128,-1,3
 145 573 145 573 153 598 c 1,4,-1
 425 962 l 2,5,6
 436 976 436 976 445.5 987.5 c 128,-1,7
 455 999 455 999 465 1010 c 1,8,9
 495 1002 495 1002 524.5 988 c 128,-1,10
 554 974 554 974 582 961 c 1,11,12
 540 886 540 886 480 779 c 128,-1,13
 420 672 420 672 347 544 c 1,14,15
 407 431 407 431 462 329.5 c 128,-1,16
 517 228 517 228 568 134 c 1,17,18
 547 117 547 117 531 107 c 128,-1,19
 515 97 515 97 502 92 c 128,-1,20
 489 87 489 87 476.5 85.5 c 128,-1,21
 464 84 464 84 449 84 c 1,0,-1
795 101 m 1,22,-1
 494 501 l 1,23,24
 496 526 496 526 500.5 550 c 128,-1,25
 505 574 505 574 513 598 c 1,26,-1
 771 945 l 2,27,28
 781 959 781 959 791 970 c 128,-1,29
 801 981 801 981 810 992 c 1,30,31
 839 984 839 984 869.5 971 c 128,-1,32
 900 958 900 958 929 944 c 1,33,34
 891 872 891 872 834 769.5 c 128,-1,35
 777 667 777 667 708 544 c 1,36,-1
 914 151 l 1,37,38
 895 135 895 135 880 125 c 128,-1,39
 865 115 865 115 851.5 110 c 128,-1,40
 838 105 838 105 824.5 103 c 128,-1,41
 811 101 811 101 795 101 c 1,22,-1
EndSplineSet
EndChar

StartChar: logicalnot
Encoding: 172 172 108
Width: 1297
Flags: W
LayerCount: 2
Fore
SplineSet
966 304 m 1,0,-1
 966 659 l 1,1,-1
 133 659 l 1,2,-1
 133 732 l 2,3,4
 133 763 133 763 139 781 c 128,-1,5
 145 799 145 799 158.5 807 c 128,-1,6
 172 815 172 815 192 817 c 128,-1,7
 212 819 212 819 241 819 c 2,8,-1
 1164 819 l 1,9,-1
 1164 243 l 1,10,-1
 1069 243 l 2,11,12
 1021 243 1021 243 995.5 256 c 128,-1,13
 970 269 970 269 966 304 c 1,0,-1
EndSplineSet
EndChar

StartChar: registered
Encoding: 174 174 109
Width: 1724
Flags: W
LayerCount: 2
Fore
SplineSet
839 1006 m 0,0,1
 825 1006 825 1006 811.5 1006 c 128,-1,2
 798 1006 798 1006 785 1005 c 1,3,-1
 785 720 l 1,4,5
 796 719 796 719 807 719 c 128,-1,6
 818 719 818 719 830 719 c 0,7,8
 916 719 916 719 955.5 752.5 c 128,-1,9
 995 786 995 786 995 864 c 0,10,11
 995 904 995 904 986.5 931.5 c 128,-1,12
 978 959 978 959 959.5 975.5 c 128,-1,13
 941 992 941 992 911 999 c 128,-1,14
 881 1006 881 1006 839 1006 c 0,0,1
610 463 m 2,15,-1
 610 949 l 2,16,17
 610 984 610 984 604 1002 c 1,18,19
 595 1002 595 1002 584.5 1003 c 128,-1,20
 574 1004 574 1004 563 1004 c 2,21,-1
 492 1004 l 1,22,-1
 492 1073 l 1,23,24
 518 1075 518 1075 549 1079.5 c 128,-1,25
 580 1084 580 1084 625 1086 c 0,26,27
 676 1089 676 1089 727.5 1089.5 c 128,-1,28
 779 1090 779 1090 834 1090 c 0,29,30
 910 1090 910 1090 973 1080 c 128,-1,31
 1036 1070 1036 1070 1081 1044.5 c 128,-1,32
 1126 1019 1126 1019 1150.5 976.5 c 128,-1,33
 1175 934 1175 934 1175 869 c 0,34,35
 1175 827 1175 827 1160.5 793 c 128,-1,36
 1146 759 1146 759 1120.5 733 c 128,-1,37
 1095 707 1095 707 1060.5 689 c 128,-1,38
 1026 671 1026 671 987 662 c 1,39,40
 1025 649 1025 649 1055.5 625 c 128,-1,41
 1086 601 1086 601 1109.5 572 c 128,-1,42
 1133 543 1133 543 1150 512.5 c 128,-1,43
 1167 482 1167 482 1179 456 c 0,44,45
 1183 448 1183 448 1190 432.5 c 128,-1,46
 1197 417 1197 417 1205 411 c 1,47,48
 1215 412 1215 412 1229.5 415 c 128,-1,49
 1244 418 1244 418 1281 434 c 1,50,-1
 1293 373 l 1,51,52
 1261 347 1261 347 1220.5 330 c 128,-1,53
 1180 313 1180 313 1139 313 c 0,54,55
 1116 313 1116 313 1098.5 317.5 c 128,-1,56
 1081 322 1081 322 1067.5 333 c 128,-1,57
 1054 344 1054 344 1042.5 361.5 c 128,-1,58
 1031 379 1031 379 1021 405 c 0,59,60
 991 478 991 478 958 538 c 128,-1,61
 925 598 925 598 885 650 c 1,62,63
 859 650 859 650 834.5 650 c 128,-1,64
 810 650 810 650 785 651 c 1,65,-1
 785 464 l 2,66,67
 785 444 785 444 787 430.5 c 128,-1,68
 789 417 789 417 791 406 c 1,69,70
 812 403 812 403 838 403 c 2,71,-1
 881 403 l 1,72,-1
 881 321 l 1,73,74
 824 325 824 325 775 327 c 128,-1,75
 726 329 726 329 672 329 c 0,76,77
 634 329 634 329 594.5 327 c 128,-1,78
 555 325 555 325 507 321 c 1,79,-1
 507 403 l 1,80,-1
 553 403 l 2,81,82
 567 403 567 403 579.5 403.5 c 128,-1,83
 592 404 592 404 604 406 c 1,84,85
 610 425 610 425 610 463 c 2,15,-1
267 707 m 0,86,87
 267 578 267 578 312 467.5 c 128,-1,88
 357 357 357 357 437 275 c 128,-1,89
 517 193 517 193 625.5 146.5 c 128,-1,90
 734 100 734 100 862 100 c 0,91,92
 952 100 952 100 1031.5 122.5 c 128,-1,93
 1111 145 1111 145 1178 185.5 c 128,-1,94
 1245 226 1245 226 1297.5 282 c 128,-1,95
 1350 338 1350 338 1386.5 405.5 c 128,-1,96
 1423 473 1423 473 1442.5 549.5 c 128,-1,97
 1462 626 1462 626 1462 707 c 0,98,99
 1462 837 1462 837 1415.5 948 c 128,-1,100
 1369 1059 1369 1059 1288 1141 c 128,-1,101
 1207 1223 1207 1223 1097.5 1269.5 c 128,-1,102
 988 1316 988 1316 862 1316 c 0,103,104
 732 1316 732 1316 623 1268 c 128,-1,105
 514 1220 514 1220 435 1137.5 c 128,-1,106
 356 1055 356 1055 311.5 944 c 128,-1,107
 267 833 267 833 267 707 c 0,86,87
113 706 m 0,108,109
 113 858 113 858 167.5 994 c 128,-1,110
 222 1130 222 1130 321 1232.5 c 128,-1,111
 420 1335 420 1335 558 1395 c 128,-1,112
 696 1455 696 1455 862 1455 c 0,113,114
 973 1455 973 1455 1071.5 1428 c 128,-1,115
 1170 1401 1170 1401 1253 1351.5 c 128,-1,116
 1336 1302 1336 1302 1402.5 1233 c 128,-1,117
 1469 1164 1469 1164 1515.5 1081 c 128,-1,118
 1562 998 1562 998 1586.5 903 c 128,-1,119
 1611 808 1611 808 1611 706 c 0,120,121
 1611 602 1611 602 1585.5 506.5 c 128,-1,122
 1560 411 1560 411 1512.5 328 c 128,-1,123
 1465 245 1465 245 1398 177.5 c 128,-1,124
 1331 110 1331 110 1247.5 62 c 128,-1,125
 1164 14 1164 14 1066.5 -12.5 c 128,-1,126
 969 -39 969 -39 862 -39 c 0,127,128
 753 -39 753 -39 655.5 -12.5 c 128,-1,129
 558 14 558 14 474.5 62 c 128,-1,130
 391 110 391 110 324 177.5 c 128,-1,131
 257 245 257 245 210.5 328 c 128,-1,132
 164 411 164 411 138.5 506.5 c 128,-1,133
 113 602 113 602 113 706 c 0,108,109
EndSplineSet
EndChar

StartChar: degree
Encoding: 176 176 110
Width: 727
Flags: W
LayerCount: 2
Fore
SplineSet
196 1174 m 0,0,1
 196 1138 196 1138 209 1107.5 c 128,-1,2
 222 1077 222 1077 244.5 1055.5 c 128,-1,3
 267 1034 267 1034 297 1021.5 c 128,-1,4
 327 1009 327 1009 362 1009 c 0,5,6
 398 1009 398 1009 428 1021.5 c 128,-1,7
 458 1034 458 1034 480.5 1056 c 128,-1,8
 503 1078 503 1078 515.5 1108 c 128,-1,9
 528 1138 528 1138 528 1174 c 0,10,11
 528 1208 528 1208 515.5 1238 c 128,-1,12
 503 1268 503 1268 480.5 1290.5 c 128,-1,13
 458 1313 458 1313 428 1325.5 c 128,-1,14
 398 1338 398 1338 362 1338 c 256,15,16
 326 1338 326 1338 296 1325.5 c 128,-1,17
 266 1313 266 1313 243.5 1290.5 c 128,-1,18
 221 1268 221 1268 208.5 1238 c 128,-1,19
 196 1208 196 1208 196 1174 c 0,0,1
98 1174 m 0,20,21
 98 1229 98 1229 118.5 1276 c 128,-1,22
 139 1323 139 1323 174.5 1357.5 c 128,-1,23
 210 1392 210 1392 258 1411 c 128,-1,24
 306 1430 306 1430 362 1430 c 256,25,26
 418 1430 418 1430 466.5 1410.5 c 128,-1,27
 515 1391 515 1391 550.5 1356.5 c 128,-1,28
 586 1322 586 1322 606.5 1275.5 c 128,-1,29
 627 1229 627 1229 627 1174 c 256,30,31
 627 1119 627 1119 607 1071.5 c 128,-1,32
 587 1024 587 1024 551.5 989.5 c 128,-1,33
 516 955 516 955 467.5 935.5 c 128,-1,34
 419 916 419 916 362 916 c 0,35,36
 306 916 306 916 258 935.5 c 128,-1,37
 210 955 210 955 174.5 989.5 c 128,-1,38
 139 1024 139 1024 118.5 1071 c 128,-1,39
 98 1118 98 1118 98 1174 c 0,20,21
EndSplineSet
EndChar

StartChar: plusminus
Encoding: 177 177 111
Width: 1225
Flags: W
LayerCount: 2
Fore
SplineSet
1006 34 m 1,0,-1
 133 34 l 1,1,-1
 133 112 l 2,2,3
 133 142 133 142 139.5 159 c 128,-1,4
 146 176 146 176 161 184.5 c 128,-1,5
 176 193 176 193 201 195.5 c 128,-1,6
 226 198 226 198 263 198 c 2,7,-1
 1092 198 l 1,8,-1
 1092 121 l 2,9,10
 1092 80 1092 80 1069.5 59 c 128,-1,11
 1047 38 1047 38 1006 34 c 1,0,-1
954 671 m 1,12,-1
 694 671 l 1,13,-1
 694 334 l 1,14,-1
 603 334 l 2,15,16
 574 334 574 334 554.5 337 c 128,-1,17
 535 340 535 340 523 349.5 c 128,-1,18
 511 359 511 359 506 377.5 c 128,-1,19
 501 396 501 396 501 426 c 2,20,-1
 501 671 l 1,21,-1
 153 671 l 1,22,-1
 153 749 l 2,23,24
 153 772 153 772 156.5 786.5 c 128,-1,25
 160 801 160 801 168 810 c 128,-1,26
 176 819 176 819 188.5 823 c 128,-1,27
 201 827 201 827 219 830 c 0,28,29
 248 835 248 835 280.5 835.5 c 128,-1,30
 313 836 313 836 348 836 c 2,31,-1
 501 836 l 1,32,-1
 501 1173 l 1,33,-1
 548 1173 l 2,34,35
 585 1173 585 1173 611.5 1170.5 c 128,-1,36
 638 1168 638 1168 655 1159.5 c 128,-1,37
 672 1151 672 1151 681.5 1135.5 c 128,-1,38
 691 1120 691 1120 694 1094 c 1,39,-1
 694 836 l 1,40,-1
 1043 836 l 1,41,-1
 1043 758 l 1,42,43
 1041 737 1041 737 1036.5 721.5 c 128,-1,44
 1032 706 1032 706 1022.5 695.5 c 128,-1,45
 1013 685 1013 685 996 679 c 128,-1,46
 979 673 979 673 954 671 c 1,12,-1
EndSplineSet
EndChar

StartChar: acute
Encoding: 180 180 112
Width: 1216
Flags: W
LayerCount: 2
Fore
SplineSet
362 1192 m 1,0,1
 392 1251 392 1251 416.5 1299.5 c 128,-1,2
 441 1348 441 1348 461 1390 c 128,-1,3
 481 1432 481 1432 498.5 1468 c 128,-1,4
 516 1504 516 1504 532 1537 c 1,5,-1
 852 1537 l 1,6,7
 834 1514 834 1514 809 1485 c 128,-1,8
 784 1456 784 1456 748 1415 c 128,-1,9
 712 1374 712 1374 662.5 1319.5 c 128,-1,10
 613 1265 613 1265 546 1192 c 1,11,-1
 362 1192 l 1,0,1
EndSplineSet
EndChar

StartChar: mu
Encoding: 181 181 113
Width: 1562
Flags: W
LayerCount: 2
Fore
SplineSet
1011 483 m 1,0,-1
 1011 798 l 2,1,2
 1011 843 1011 843 1005 879 c 1,3,4
 976 885 976 885 941 885 c 2,5,-1
 855 885 l 1,6,-1
 850 990 l 1,7,8
 1000 1023 1000 1023 1156 1023 c 0,9,10
 1189 1023 1189 1023 1220.5 1021 c 128,-1,11
 1252 1019 1252 1019 1282 1015 c 1,12,13
 1306 1009 1306 1009 1314.5 989.5 c 128,-1,14
 1323 970 1323 970 1323 947 c 2,15,-1
 1323 308 l 2,16,17
 1323 239 1323 239 1325.5 195.5 c 128,-1,18
 1328 152 1328 152 1339 124 c 1,19,20
 1361 122 1361 122 1383.5 122 c 128,-1,21
 1406 122 1406 122 1431 122 c 2,22,-1
 1492 122 l 1,23,-1
 1492 25 l 1,24,25
 1337 -11 1337 -11 1176 -11 c 0,26,27
 1129 -11 1129 -11 1097 -7.5 c 128,-1,28
 1065 -4 1065 -4 1044.5 8.5 c 128,-1,29
 1024 21 1024 21 1014 45.5 c 128,-1,30
 1004 70 1004 70 1003 112 c 1,31,32
 967 86 967 86 929 62 c 128,-1,33
 891 38 891 38 852 19.5 c 128,-1,34
 813 1 813 1 772 -10 c 128,-1,35
 731 -21 731 -21 689 -21 c 0,36,37
 672 -21 672 -21 655 -18.5 c 128,-1,38
 638 -16 638 -16 620 -10 c 1,39,40
 620 -73 620 -73 624 -118 c 128,-1,41
 628 -163 628 -163 642 -194.5 c 128,-1,42
 656 -226 656 -226 683.5 -245 c 128,-1,43
 711 -264 711 -264 758 -275 c 1,44,45
 759 -295 759 -295 759.5 -308 c 128,-1,46
 760 -321 760 -321 760 -327 c 2,47,-1
 760 -353 l 1,48,49
 712 -382 712 -382 658.5 -394.5 c 128,-1,50
 605 -407 605 -407 541 -407 c 0,51,52
 511 -407 511 -407 479.5 -404.5 c 128,-1,53
 448 -402 448 -402 421.5 -393.5 c 128,-1,54
 395 -385 395 -385 376 -368.5 c 128,-1,55
 357 -352 357 -352 350 -324 c 0,56,57
 342 -294 342 -294 340 -263.5 c 128,-1,58
 338 -233 338 -233 338 -195 c 2,59,-1
 338 798 l 2,60,61
 338 843 338 843 332 879 c 1,62,63
 302 885 302 885 266 885 c 2,64,-1
 177 885 l 1,65,-1
 171 990 l 1,66,67
 247 1007 247 1007 326 1016 c 128,-1,68
 405 1025 405 1025 489 1025 c 0,69,70
 524 1025 524 1025 554.5 1022.5 c 128,-1,71
 585 1020 585 1020 610 1014 c 0,72,73
 633 1009 633 1009 641 988.5 c 128,-1,74
 649 968 649 968 649 947 c 2,75,-1
 649 636 l 2,76,77
 649 546 649 546 649.5 458 c 128,-1,78
 650 370 650 370 650 281 c 0,79,80
 650 248 650 248 654.5 218.5 c 128,-1,81
 659 189 659 189 671.5 167.5 c 128,-1,82
 684 146 684 146 708 133.5 c 128,-1,83
 732 121 732 121 771 121 c 0,84,85
 806 121 806 121 844 132.5 c 128,-1,86
 882 144 882 144 914.5 159.5 c 128,-1,87
 947 175 947 175 970.5 191 c 128,-1,88
 994 207 994 207 1000 215 c 1,89,90
 1007 268 1007 268 1008 339.5 c 128,-1,91
 1009 411 1009 411 1011 483 c 1,0,-1
EndSplineSet
EndChar

StartChar: paragraph
Encoding: 182 182 114
Width: 1207
Flags: W
LayerCount: 2
Fore
SplineSet
655 1387 m 2,0,-1
 797 1387 l 2,1,2
 906 1387 906 1387 988 1384.5 c 128,-1,3
 1070 1382 1070 1382 1124 1372 c 1,4,-1
 1124 1272 l 1,5,-1
 1032 1272 l 2,6,7
 999 1272 999 1272 973 1270 c 128,-1,8
 947 1268 947 1268 929 1261 c 1,9,10
 921 1238 921 1238 917.5 1209 c 128,-1,11
 914 1180 914 1180 914 1141 c 2,12,-1
 914 64 l 2,13,14
 914 -13 914 -13 930 -57 c 1,15,16
 948 -63 948 -63 973.5 -64.5 c 128,-1,17
 999 -66 999 -66 1033 -66 c 2,18,-1
 1122 -66 l 1,19,-1
 1122 -202 l 1,20,21
 1033 -193 1033 -193 944 -188 c 128,-1,22
 855 -183 855 -183 774 -183 c 1,23,-1
 774 1311 l 1,24,-1
 620 1311 l 1,25,-1
 620 -183 l 1,26,27
 539 -183 539 -183 450 -188 c 128,-1,28
 361 -193 361 -193 272 -202 c 1,29,-1
 272 -66 l 1,30,-1
 361 -66 l 2,31,32
 394 -66 394 -66 420 -64.5 c 128,-1,33
 446 -63 446 -63 464 -57 c 1,34,35
 480 -13 480 -13 480 64 c 2,36,-1
 480 595 l 1,37,38
 378 595 378 595 303 622.5 c 128,-1,39
 228 650 228 650 179 702.5 c 128,-1,40
 130 755 130 755 106 831 c 128,-1,41
 82 907 82 907 82 1004 c 0,42,43
 82 1116 82 1116 122.5 1189.5 c 128,-1,44
 163 1263 163 1263 237.5 1307 c 128,-1,45
 312 1351 312 1351 418 1369 c 128,-1,46
 524 1387 524 1387 655 1387 c 2,0,-1
EndSplineSet
EndChar

StartChar: cedilla
Encoding: 184 184 115
Width: 675
Flags: W
LayerCount: 2
Fore
SplineSet
119 -366 m 1,0,1
 155 -377 155 -377 189.5 -383.5 c 128,-1,2
 224 -390 224 -390 253 -390 c 0,3,4
 315 -390 315 -390 351 -364.5 c 128,-1,5
 387 -339 387 -339 387 -291 c 0,6,7
 387 -239 387 -239 361 -212.5 c 128,-1,8
 335 -186 335 -186 287 -178 c 0,9,10
 281 -178 281 -178 272 -180.5 c 128,-1,11
 263 -183 263 -183 250 -186 c 1,12,13
 239 -179 239 -179 225.5 -174 c 128,-1,14
 212 -169 212 -169 199 -163 c 1,15,-1
 284 11 l 1,16,-1
 385 11 l 1,17,-1
 329 -96 l 1,18,19
 382 -99 382 -99 423.5 -109 c 128,-1,20
 465 -119 465 -119 494 -139.5 c 128,-1,21
 523 -160 523 -160 538.5 -192.5 c 128,-1,22
 554 -225 554 -225 554 -272 c 0,23,24
 554 -329 554 -329 535.5 -371.5 c 128,-1,25
 517 -414 517 -414 483 -442 c 128,-1,26
 449 -470 449 -470 401.5 -484 c 128,-1,27
 354 -498 354 -498 296 -498 c 0,28,29
 236 -498 236 -498 192 -487 c 128,-1,30
 148 -476 148 -476 119 -457 c 1,31,32
 113 -441 113 -441 113 -417 c 256,33,34
 113 -393 113 -393 119 -366 c 1,0,1
EndSplineSet
EndChar

StartChar: ordmasculine
Encoding: 186 186 116
Width: 928
Flags: W
LayerCount: 2
Fore
SplineSet
465 1349 m 0,0,1
 423 1349 423 1349 394 1331 c 128,-1,2
 365 1313 365 1313 347.5 1279 c 128,-1,3
 330 1245 330 1245 322.5 1197 c 128,-1,4
 315 1149 315 1149 315 1088 c 0,5,6
 315 1028 315 1028 323 980.5 c 128,-1,7
 331 933 331 933 348.5 899 c 128,-1,8
 366 865 366 865 394.5 847 c 128,-1,9
 423 829 423 829 465 829 c 256,10,11
 507 829 507 829 535 847.5 c 128,-1,12
 563 866 563 866 580.5 900 c 128,-1,13
 598 934 598 934 605.5 982 c 128,-1,14
 613 1030 613 1030 613 1089 c 0,15,16
 613 1149 613 1149 605.5 1197 c 128,-1,17
 598 1245 598 1245 580.5 1279 c 128,-1,18
 563 1313 563 1313 534.5 1331 c 128,-1,19
 506 1349 506 1349 465 1349 c 0,0,1
856 1087 m 0,20,21
 856 998 856 998 824.5 931 c 128,-1,22
 793 864 793 864 739.5 819.5 c 128,-1,23
 686 775 686 775 615 752.5 c 128,-1,24
 544 730 544 730 465 730 c 0,25,26
 379 730 379 730 307 754.5 c 128,-1,27
 235 779 235 779 182.5 825 c 128,-1,28
 130 871 130 871 101 937 c 128,-1,29
 72 1003 72 1003 72 1087 c 0,30,31
 72 1173 72 1173 102 1240 c 128,-1,32
 132 1307 132 1307 184.5 1353.5 c 128,-1,33
 237 1400 237 1400 309 1424.5 c 128,-1,34
 381 1449 381 1449 465 1449 c 256,35,36
 549 1449 549 1449 621 1424 c 128,-1,37
 693 1399 693 1399 745 1352.5 c 128,-1,38
 797 1306 797 1306 826.5 1238.5 c 128,-1,39
 856 1171 856 1171 856 1087 c 0,20,21
EndSplineSet
EndChar

StartChar: guillemotright
Encoding: 187 187 117
Width: 1062
Flags: W
LayerCount: 2
Fore
SplineSet
928 501 m 1,0,1
 846 395 846 395 766.5 287.5 c 128,-1,2
 687 180 687 180 599 78 c 1,3,4
 571 84 571 84 545.5 97 c 128,-1,5
 520 110 520 110 488 134 c 1,6,7
 540 228 540 228 596.5 329.5 c 128,-1,8
 653 431 653 431 715 544 c 1,9,10
 638 680 638 680 581 783 c 128,-1,11
 524 886 524 886 485 961 c 1,12,13
 514 975 514 975 542.5 988 c 128,-1,14
 571 1001 571 1001 601 1010 c 1,15,16
 610 999 610 999 619.5 987.5 c 128,-1,17
 629 976 629 976 639 962 c 2,18,-1
 888 624 l 2,19,20
 901 606 901 606 909 590.5 c 128,-1,21
 917 575 917 575 921 561 c 128,-1,22
 925 547 925 547 926 532.5 c 128,-1,23
 927 518 927 518 928 501 c 1,0,1
568 501 m 1,24,25
 487 400 487 400 411.5 297 c 128,-1,26
 336 194 336 194 253 95 c 1,27,28
 227 100 227 100 197.5 116.5 c 128,-1,29
 168 133 168 133 141 151 c 1,30,-1
 354 544 l 1,31,32
 281 676 281 676 228 774.5 c 128,-1,33
 175 873 175 873 140 944 c 1,34,35
 162 955 162 955 192.5 969 c 128,-1,36
 223 983 223 983 255 992 c 1,37,38
 264 981 264 981 273 971 c 128,-1,39
 282 961 282 961 292 948 c 2,40,-1
 530 621 l 2,41,42
 542 604 542 604 549 589.5 c 128,-1,43
 556 575 556 575 560 561 c 128,-1,44
 564 547 564 547 565.5 532.5 c 128,-1,45
 567 518 567 518 568 501 c 1,24,25
EndSplineSet
EndChar

